<svg width="379" height="282" viewBox="0 0 379 282" fill="none" xmlns="http://www.w3.org/2000/svg">
<path d="M378.606 247.652H0.394531V247.841H378.606V247.652Z" fill="#E6E6E6"/>
<path d="M86.5209 253.72H60.5V253.909H86.5209V253.72Z" fill="#E6E6E6"/>
<path d="M99.2819 253.72H91.5059V253.909H99.2819V253.72Z" fill="#E6E6E6"/>
<path d="M137.648 250.005H123.004V250.194H137.648V250.005Z" fill="#E6E6E6"/>
<path d="M326.117 257.917H293.447V258.106H326.117V257.917Z" fill="#E6E6E6"/>
<path d="M337.646 257.917H332.857V258.106H337.646V257.917Z" fill="#E6E6E6"/>
<path d="M301.715 251.276H230.854V251.465H301.715V251.276Z" fill="#E6E6E6"/>
<path d="M179.666 213.916H33.6085C32.4643 213.914 31.3676 213.458 30.5593 212.649C29.7509 211.839 29.2969 210.741 29.2969 209.597V4.28135C29.3068 3.14371 29.7652 2.05594 30.5725 1.25431C31.3798 0.452687 32.4708 0.00194884 33.6085 0H179.666C180.812 0 181.91 0.455054 182.72 1.26506C183.53 2.07506 183.985 3.17366 183.985 4.31917V209.597C183.985 210.743 183.53 211.841 182.72 212.651C181.91 213.461 180.812 213.916 179.666 213.916ZM33.6085 0.151285C32.5144 0.153289 31.4659 0.589302 30.693 1.36362C29.9201 2.13794 29.486 3.1873 29.486 4.28135V209.597C29.486 210.691 29.9201 211.74 30.693 212.515C31.4659 213.289 32.5144 213.725 33.6085 213.727H179.666C180.761 213.725 181.81 213.289 182.584 212.515C183.358 211.741 183.794 210.692 183.796 209.597V4.28135C183.794 3.1866 183.358 2.13727 182.584 1.36316C181.81 0.589057 180.761 0.153285 179.666 0.151285H33.6085Z" fill="#E6E6E6"/>
<path d="M343.289 213.916H197.223C196.079 213.914 194.981 213.459 194.172 212.649C193.362 211.839 192.906 210.742 192.904 209.597V4.28135C192.916 3.14302 193.376 2.05526 194.185 1.25384C194.993 0.452423 196.085 0.00192758 197.223 0H343.289C344.425 0.0039368 345.514 0.455555 346.32 1.25697C347.125 2.05838 347.583 3.14502 347.593 4.28135V209.597C347.593 210.74 347.14 211.836 346.333 212.646C345.526 213.455 344.432 213.912 343.289 213.916ZM197.223 0.151285C196.129 0.153285 195.079 0.589057 194.305 1.36316C193.531 2.13727 193.095 3.1866 193.093 4.28135V209.597C193.095 210.692 193.531 211.741 194.305 212.515C195.079 213.289 196.129 213.725 197.223 213.727H343.289C344.383 213.725 345.433 213.289 346.207 212.515C346.981 211.741 347.417 210.692 347.419 209.597V4.28135C347.417 3.1866 346.981 2.13727 346.207 1.36316C345.433 0.589057 344.383 0.153285 343.289 0.151285H197.223Z" fill="#E6E6E6"/>
<path d="M317.35 144.56H264.348V247.652H317.35V144.56Z" fill="#F5F5F5"/>
<path d="M317.351 144.56H312.979V247.652H317.351V144.56Z" fill="#F0F0F0"/>
<path d="M146.4 169.771L268.434 169.771V147.502H146.4V169.771Z" fill="#E0E0E0"/>
<path d="M197.283 247.729H144.962C144.761 247.729 144.568 247.649 144.427 247.507C144.285 247.365 144.205 247.173 144.205 246.972C144.205 246.772 144.285 246.579 144.427 246.438C144.568 246.296 144.761 246.216 144.962 246.216H197.283C204.847 246.216 205.854 244.007 205.854 235.248V124.81C205.854 124.61 205.933 124.417 206.075 124.275C206.217 124.133 206.409 124.054 206.61 124.054C206.811 124.054 207.003 124.133 207.145 124.275C207.287 124.417 207.366 124.61 207.366 124.81V235.248C207.366 244.612 205.914 247.729 197.283 247.729Z" fill="#E0E0E0"/>
<path d="M151.09 152.691L316.156 152.691V144.961L151.09 144.961V152.691Z" fill="#F0F0F0"/>
<path d="M152.284 144.56H99.2812V247.652H152.284V144.56Z" fill="#F5F5F5"/>
<path d="M152.276 144.56H147.904V247.652H152.276V144.56Z" fill="#F0F0F0"/>
<path d="M114.75 247.653L114.75 64.0693H69.2663L69.2663 247.653H114.75Z" fill="#FAFAFA"/>
<path d="M112.254 109.923V69.4316H71.7626V109.923H112.254Z" fill="#F5F5F5"/>
<path d="M83.041 68.8877H100.998C100.998 70.0011 100.556 71.0689 99.7689 71.8562C98.9816 72.6435 97.9138 73.0858 96.8003 73.0858H87.2694C86.7156 73.0898 86.1664 72.9842 85.6536 72.775C85.1407 72.5658 84.6743 72.2572 84.2813 71.867C83.8883 71.4767 83.5763 71.0126 83.3634 70.5013C83.1506 69.9899 83.041 69.4416 83.041 68.8877Z" fill="#E0E0E0"/>
<path d="M112.246 154.046V113.555H71.7548V154.046H112.246Z" fill="#F5F5F5"/>
<path d="M112.254 198.167V157.676H71.7626V198.167H112.254Z" fill="#F5F5F5"/>
<path d="M112.254 242.297V201.806H71.7626V242.297H112.254Z" fill="#F5F5F5"/>
<path d="M83.041 113.017H100.998C100.996 114.129 100.554 115.196 99.7667 115.983C98.9798 116.77 97.9131 117.213 96.8003 117.215H87.2694C86.7158 117.218 86.1671 117.111 85.6547 116.902C85.1424 116.692 84.6764 116.384 84.2835 115.994C83.8907 115.604 83.5787 115.14 83.3655 114.629C83.1523 114.118 83.042 113.57 83.041 113.017Z" fill="#E0E0E0"/>
<path d="M83.041 157.14H100.998C100.998 158.253 100.556 159.321 99.7689 160.108C98.9816 160.895 97.9138 161.338 96.8003 161.338H87.2694C86.7156 161.342 86.1664 161.236 85.6536 161.027C85.1407 160.818 84.6743 160.509 84.2813 160.119C83.8883 159.729 83.5763 159.265 83.3634 158.753C83.1506 158.242 83.041 157.694 83.041 157.14Z" fill="#E0E0E0"/>
<path d="M83.041 201.262H100.998C100.998 202.375 100.556 203.443 99.7689 204.23C98.9816 205.018 97.9138 205.46 96.8003 205.46H87.2694C86.7156 205.464 86.1664 205.358 85.6536 205.149C85.1407 204.94 84.6743 204.631 84.2813 204.241C83.8883 203.851 83.5763 203.387 83.3634 202.875C83.1506 202.364 83.041 201.816 83.041 201.262Z" fill="#E0E0E0"/>
<path d="M69.2676 247.653L69.2676 64.0693H46.5522L46.5522 247.653H69.2676Z" fill="#F0F0F0"/>
<path d="M200.385 144.56H188.955L191.731 122.306H203.168L200.385 144.56Z" fill="#F0F0F0"/>
<path d="M202.92 144.56H191.482L194.266 122.306H205.696L202.92 144.56Z" fill="#F5F5F5"/>
<path d="M227.442 144.56H219.175L217.594 142.041H225.854L227.442 144.56Z" fill="#F0F0F0"/>
<path d="M271.739 144.56H221.702L220.121 142.041H264.992L271.739 144.56Z" fill="#FAFAFA"/>
<path d="M164.13 138.176H167.746C169.439 138.176 171.063 138.848 172.26 140.046C173.457 141.243 174.13 142.867 174.13 144.56H157.73C157.73 143.72 157.896 142.889 158.218 142.113C158.54 141.338 159.011 140.633 159.606 140.04C160.2 139.447 160.906 138.977 161.682 138.657C162.458 138.337 163.29 138.174 164.13 138.176Z" fill="#F0F0F0"/>
<path d="M204.303 133.433H192.873L194.265 122.306H205.694L204.303 133.433Z" fill="#F0F0F0"/>
<path d="M162.268 130.77H243.205C243.364 130.77 243.522 130.737 243.667 130.671C243.812 130.606 243.942 130.51 244.047 130.39C244.152 130.271 244.231 130.13 244.278 129.978C244.324 129.825 244.338 129.665 244.317 129.507L238.084 79.6435C238.051 79.3721 237.919 79.1222 237.715 78.941C237.51 78.7599 237.246 78.66 236.972 78.6602H156.058C155.899 78.6601 155.742 78.6936 155.598 78.7587C155.453 78.8237 155.324 78.9188 155.219 79.0375C155.114 79.1562 155.035 79.2959 154.988 79.4473C154.941 79.5987 154.927 79.7584 154.946 79.9158L161.179 129.787C161.211 130.054 161.34 130.301 161.54 130.482C161.74 130.662 161.998 130.765 162.268 130.77Z" fill="#F0F0F0"/>
<path d="M163.494 130.77H244.378C244.537 130.77 244.695 130.737 244.84 130.671C244.985 130.606 245.115 130.51 245.22 130.39C245.325 130.271 245.404 130.13 245.45 129.978C245.497 129.825 245.51 129.665 245.49 129.507L239.257 79.6435C239.222 79.3727 239.09 79.1238 238.886 78.9429C238.681 78.7621 238.418 78.6616 238.145 78.6602H157.261C157.102 78.6601 156.946 78.6936 156.801 78.7587C156.656 78.8237 156.527 78.9188 156.422 79.0375C156.317 79.1562 156.238 79.2959 156.191 79.4473C156.144 79.5987 156.13 79.7584 156.149 79.9158L162.382 129.787C162.415 130.058 162.547 130.308 162.751 130.489C162.956 130.67 163.22 130.77 163.494 130.77Z" fill="#F5F5F5"/>
<path d="M242.881 128.009L237.049 81.3379C237.038 81.2618 237 81.1922 236.941 81.1421C236.883 81.092 236.808 81.0648 236.731 81.0656H159.069C159.025 81.064 158.981 81.0722 158.94 81.0897C158.899 81.1072 158.862 81.1334 158.833 81.1667C158.803 81.1999 158.781 81.2393 158.768 81.282C158.756 81.3246 158.753 81.3696 158.759 81.4136L164.591 128.092C164.601 128.168 164.637 128.237 164.695 128.288C164.752 128.338 164.825 128.365 164.901 128.365H242.571C242.615 128.364 242.659 128.354 242.7 128.335C242.74 128.316 242.776 128.289 242.805 128.256C242.834 128.222 242.856 128.183 242.869 128.141C242.882 128.098 242.886 128.053 242.881 128.009Z" fill="#E0E0E0"/>
<path d="M213.32 144.56H194.697V144.325C194.697 143.834 194.892 143.362 195.24 143.015C195.588 142.667 196.059 142.472 196.55 142.472H211.467C211.959 142.472 212.43 142.667 212.778 143.015C213.125 143.362 213.32 143.834 213.32 144.325V144.56Z" fill="#FAFAFA"/>
<path d="M196.867 144.56H184.235V144.325C184.235 143.834 184.43 143.362 184.778 143.015C185.125 142.667 185.597 142.472 186.088 142.472H195.014C195.505 142.472 195.977 142.667 196.324 143.015C196.672 143.362 196.867 143.834 196.867 144.325V144.56Z" fill="#F0F0F0"/>
<path d="M88.4879 43.3349V43.2971C88.6619 42.7147 88.8283 42.1247 88.9721 41.5346C89.2281 41.9425 89.5766 42.2844 89.9891 42.5327C90.4017 42.7811 90.867 42.9289 91.3472 42.9643H91.5515C92.8147 42.8433 94.025 41.6178 94.7889 39.689C94.8037 39.6543 94.8113 39.617 94.8113 39.5793C94.8113 39.5416 94.8037 39.5043 94.7889 39.4696C94.7523 39.4005 94.6897 39.3488 94.615 39.3259C93.7083 39.0961 92.7633 39.0602 91.8417 39.2205C90.9202 39.3808 90.0429 39.7338 89.2671 40.2563C89.3805 39.6965 89.4789 39.1292 89.5621 38.5695C89.7615 38.6079 89.9641 38.6282 90.1672 38.63C92.2247 38.63 93.7375 36.7919 93.8132 36.7011C93.8398 36.6678 93.8582 36.6286 93.867 36.5869C93.8757 36.5451 93.8745 36.5018 93.8635 36.4606C93.8524 36.4194 93.8319 36.3814 93.8034 36.3495C93.775 36.3177 93.7394 36.2931 93.6997 36.2775C93.2217 36.0402 92.699 35.9068 92.1658 35.8859C91.6326 35.865 91.101 35.9573 90.6059 36.1565C90.0775 36.4252 89.6503 36.8578 89.3881 37.3894C89.0027 36.2058 88.298 35.1515 87.3517 34.3427C86.4054 33.5339 85.2543 33.002 84.0251 32.8055C83.9869 32.7965 83.9472 32.7966 83.909 32.8058C83.8709 32.815 83.8355 32.833 83.8057 32.8585C83.774 32.8808 83.7479 32.9102 83.7295 32.9443C83.7111 32.9784 83.701 33.0164 83.6998 33.0551C83.5939 34.9235 83.6544 37.2155 85.0538 38.3047C85.6391 38.7364 86.3543 38.9552 87.081 38.925C87.732 38.9093 88.378 38.8076 89.0023 38.6224C88.8025 39.9742 88.5119 41.3111 88.1324 42.6239C86.7635 40.7586 84.8214 39.393 82.603 38.7359C82.5329 38.7196 82.4591 38.7309 82.3972 38.7675C82.3352 38.8041 82.2897 38.8632 82.2702 38.9325C81.8466 40.5437 82.0659 41.8523 82.898 42.7147C83.3211 43.0948 83.8165 43.3858 84.3545 43.5703C84.8925 43.7549 85.4622 43.8292 86.0296 43.7888C86.6394 43.7849 87.2474 43.7216 87.845 43.5997C87.497 44.704 87.0886 45.7857 86.7028 46.8145C85.8632 46.058 83.3897 44.1821 80.6968 44.9688C80.6245 44.9928 80.5646 45.0444 80.5304 45.1125C80.5156 45.1472 80.508 45.1845 80.508 45.2222C80.508 45.2599 80.5156 45.2972 80.5304 45.3319C81.2868 47.117 82.0962 48.108 83.14 48.4483C83.4182 48.5401 83.7094 48.586 84.0024 48.5845C84.8017 48.5505 85.5806 48.322 86.2716 47.9188C85.6967 49.288 85.084 50.5663 84.5016 51.701C83.8103 50.9959 82.9417 50.4904 81.9872 50.2374C81.0328 49.9845 80.0278 49.9936 79.078 50.2638C79.0132 50.2766 78.9556 50.3132 78.9164 50.3664C78.8772 50.4196 78.8593 50.4855 78.8663 50.5512C78.9332 51.1233 79.1495 51.6677 79.4933 52.1297C79.8372 52.5918 80.2966 52.9552 80.8254 53.1835C81.2243 53.3551 81.6543 53.4427 82.0886 53.4407C82.6911 53.4332 83.2828 53.2801 83.8133 52.9944C83.2232 54.0912 82.6786 55.0065 82.255 55.7024H77.1114C76.2944 54.303 75.3489 52.5633 74.4261 50.6117C74.8559 50.74 75.3013 50.8088 75.7498 50.8159C76.3014 50.8228 76.8472 50.7025 77.3448 50.4645C77.8425 50.2264 78.2786 49.877 78.6195 49.4433C78.9604 49.0095 79.1968 48.5031 79.3104 47.9633C79.424 47.4234 79.4118 46.8647 79.2747 46.3304C79.257 46.2683 79.2173 46.2148 79.163 46.18C79.1087 46.1452 79.0435 46.1314 78.9797 46.1413C77.9293 46.2437 76.919 46.5976 76.0342 47.1729C75.1495 47.7483 74.4162 48.5282 73.8966 49.4468C73.2914 48.0853 72.7014 46.6405 72.187 45.1503C72.8418 45.5229 73.5753 45.7354 74.3277 45.7706C74.6263 45.774 74.9232 45.7254 75.2052 45.6269C76.718 45.1276 77.5879 43.3047 78.3292 41.4136C78.3459 41.3795 78.3546 41.3419 78.3546 41.3039C78.3546 41.2659 78.3459 41.2284 78.3292 41.1942C78.3118 41.1595 78.2873 41.1288 78.2573 41.1041C78.2274 41.0793 78.1926 41.0611 78.1552 41.0505C75.1295 40.2033 72.6409 43.1156 71.8693 44.1594C71.4659 42.8999 71.1301 41.6197 70.8633 40.3244C71.4989 40.4488 72.1446 40.5146 72.7922 40.521C73.4358 40.5681 74.0822 40.4822 74.6912 40.2688C75.3002 40.0554 75.8588 39.719 76.3322 39.2805C77.2475 38.3123 77.4669 36.8599 76.9752 35.0899C76.9665 35.0552 76.9508 35.0226 76.9292 34.9942C76.9075 34.9657 76.8803 34.9419 76.8492 34.9242C76.8181 34.9065 76.7837 34.8954 76.7482 34.8913C76.7126 34.8873 76.6766 34.8905 76.6424 34.9008C74.2285 35.6541 72.1272 37.1762 70.6591 39.2351L70.5456 38.5468C70.5376 38.4872 70.5112 38.4317 70.47 38.3879C70.3452 37.9404 70.1279 37.524 69.8321 37.1656C69.5364 36.8073 69.1687 36.5151 68.7529 36.3078C68.2072 36.0972 67.6231 36.0046 67.0391 36.0358C66.455 36.0671 65.8842 36.2217 65.3641 36.4893C65.3241 36.5066 65.2885 36.5325 65.2597 36.5652C65.2309 36.5979 65.2098 36.6366 65.1977 36.6784C65.1884 36.7195 65.189 36.7622 65.1996 36.803C65.2101 36.8438 65.2302 36.8814 65.2582 36.9129C65.3339 37.0112 66.998 38.9779 69.237 38.9779C69.4783 38.9748 69.7189 38.9495 69.9556 38.9023C70.0539 39.5452 70.175 40.1882 70.3111 40.8236C69.4485 40.2557 68.4753 39.8772 67.4557 39.7129C66.4361 39.5486 65.3932 39.6023 64.3959 39.8705C64.3211 39.8935 64.2586 39.9452 64.2219 40.0142C64.2069 40.0502 64.1992 40.0887 64.1992 40.1277C64.1992 40.1666 64.2069 40.2052 64.2219 40.2412C65.0918 42.344 66.4382 43.6753 67.83 43.7888H68.0192C68.7226 43.7888 69.6757 43.4635 70.6439 42.17C71.0252 43.6408 71.4848 45.0901 72.0206 46.5119C70.712 45.8916 67.7695 44.8251 65.6667 46.4514C65.6378 46.4723 65.6134 46.4988 65.595 46.5294C65.5766 46.5599 65.5646 46.5939 65.5596 46.6292C65.5547 46.6645 65.5569 46.7005 65.5662 46.7349C65.5755 46.7694 65.5917 46.8016 65.6137 46.8296C66.9753 48.6828 68.2309 49.583 69.4639 49.583C70.4851 49.583 71.4609 48.94 72.4367 47.6692C72.9964 49.061 73.6016 50.3923 74.1991 51.6177C72.8905 50.8084 71.4533 50.937 69.7589 52.0035C69.7197 52.027 69.6873 52.0603 69.6647 52.1001C69.6422 52.1398 69.6304 52.1847 69.6303 52.2305C69.6272 52.275 69.6361 52.3195 69.6561 52.3594C69.676 52.3993 69.7063 52.4331 69.7438 52.4574C70.753 53.1848 71.9447 53.6169 73.1855 53.7055C73.8257 53.7182 74.4533 53.5275 74.9782 53.1609C75.4623 54.0913 75.9389 54.946 76.3776 55.71H74.0403V57.0413H74.8875L75.5909 64.0912H85.9464L86.6423 57.0413H87.497V55.71H82.845C83.3594 54.8552 84.0175 53.713 84.721 52.3742C84.742 52.3472 84.7574 52.3164 84.7663 52.2834C84.9479 51.943 85.1219 51.5951 85.3034 51.232C85.611 51.6974 86.0257 52.0825 86.5126 52.3549C86.9995 52.6273 87.5445 52.7791 88.1022 52.7978C88.218 52.8053 88.3343 52.8053 88.4501 52.7978C89.0663 52.7279 89.6512 52.4888 90.1398 52.107C90.6285 51.7251 91.0019 51.2155 91.2186 50.6344C91.241 50.5747 91.2411 50.5089 91.2188 50.4492C91.1966 50.3894 91.1536 50.3397 91.0976 50.3091C90.3045 49.8611 89.4161 49.6082 88.5059 49.5714C87.5958 49.5346 86.6899 49.7149 85.8632 50.0973C86.2565 49.2728 86.6196 48.3878 87.0129 47.4726C87.0426 47.4386 87.0611 47.3964 87.0659 47.3515C87.1718 47.0943 87.2701 46.8372 87.376 46.5951C88.2761 47.7297 89.1687 48.2895 90.0991 48.2895C91.2262 48.2895 92.3684 47.4574 93.5938 45.7403C93.6363 45.683 93.6546 45.6112 93.6447 45.5404C93.6348 45.4697 93.5975 45.4056 93.5408 45.3621C91.612 43.9174 89.0023 44.9083 87.7769 45.4832C88.0265 44.8024 88.2535 44.114 88.4653 43.4106L88.4879 43.3349Z" fill="#E0E0E0"/>
<path d="M304.832 40.1436H266.148V82.6167H304.832V40.1436Z" fill="#E0E0E0"/>
<path d="M300.058 41.8835C300.026 41.8912 299.992 41.8912 299.96 41.8835C299.869 41.823 290.732 36.3919 287.857 36.3919C284.983 36.3919 276.246 41.823 276.155 41.8759C276.135 41.8896 276.112 41.8989 276.087 41.9032C276.063 41.9075 276.038 41.9069 276.014 41.9012C275.99 41.8955 275.967 41.885 275.947 41.8702C275.927 41.8555 275.911 41.8368 275.898 41.8154C275.873 41.7731 275.865 41.7226 275.876 41.6745C275.887 41.6265 275.917 41.5847 275.959 41.5582C276.322 41.3313 284.847 36.0137 287.857 36.0137C290.868 36.0137 299.809 41.3086 300.187 41.5582C300.208 41.5706 300.227 41.5873 300.242 41.6072C300.257 41.627 300.267 41.6497 300.273 41.6738C300.278 41.6979 300.279 41.7229 300.275 41.7472C300.27 41.7716 300.261 41.7948 300.247 41.8154C300.226 41.8441 300.197 41.8659 300.163 41.878C300.13 41.8901 300.093 41.892 300.058 41.8835Z" fill="#EBEBEB"/>
<path d="M309.015 40.1436H269.061V82.6167H309.015V40.1436Z" fill="#F5F5F5"/>
<path d="M305.672 79.2651V43.4863H272.412V79.2651H305.672Z" fill="white"/>
<path d="M295.484 67.8222C299.044 64.2626 299.044 58.4913 295.484 54.9318C291.924 51.3722 286.153 51.3722 282.594 54.9318C279.034 58.4913 279.034 64.2626 282.594 67.8222C286.153 71.3817 291.924 71.3817 295.484 67.8222Z" fill="#E0E0E0"/>
<path d="M288.266 196.103H322.168C325.279 196.106 328.267 194.888 330.489 192.711C332.711 190.534 333.99 187.572 334.052 184.462L335.323 122.39C335.346 121.238 335.139 120.093 334.714 119.022C334.289 117.951 333.655 116.975 332.848 116.153C332.042 115.33 331.079 114.676 330.017 114.23C328.954 113.784 327.814 113.554 326.662 113.555H305.406C303.28 113.554 301.227 114.337 299.641 115.753C298.055 117.169 297.045 119.119 296.806 121.232L288.266 196.103Z" fill="#E6E6E6"/>
<path d="M306.768 196.103H270.641C270.191 196.103 269.76 195.924 269.443 195.606C269.125 195.289 268.946 194.858 268.946 194.408V194.249C268.946 193.018 269.436 191.836 270.307 190.965C271.178 190.094 272.359 189.605 273.591 189.605H306.768V196.103Z" fill="#E6E6E6"/>
<path d="M303.916 248.5C303.74 248.504 303.568 248.446 303.43 248.337C303.292 248.228 303.196 248.074 303.159 247.902L292.569 196.859H274.113L263.523 247.902C263.482 248.103 263.362 248.279 263.192 248.392C263.021 248.504 262.812 248.545 262.611 248.503C262.411 248.462 262.235 248.343 262.122 248.172C262.009 248.001 261.969 247.793 262.01 247.592L272.736 195.951C272.771 195.778 272.866 195.622 273.005 195.511C273.143 195.401 273.315 195.342 273.492 195.346H293.159C293.336 195.342 293.509 195.401 293.647 195.511C293.785 195.622 293.88 195.778 293.916 195.951L304.634 247.592C304.675 247.787 304.636 247.991 304.527 248.158C304.418 248.325 304.247 248.443 304.052 248.485C304.007 248.495 303.962 248.5 303.916 248.5Z" fill="#E6E6E6"/>
<path d="M292.411 248.5C292.361 248.508 292.31 248.508 292.26 248.5C292.162 248.48 292.07 248.441 291.987 248.386C291.905 248.33 291.834 248.259 291.78 248.176C291.725 248.093 291.687 248 291.668 247.903C291.649 247.805 291.65 247.705 291.67 247.608L302.396 195.967C302.431 195.793 302.526 195.638 302.664 195.527C302.803 195.417 302.975 195.358 303.152 195.361H322.819C322.996 195.358 323.169 195.417 323.307 195.527C323.445 195.638 323.54 195.793 323.576 195.967L334.294 247.608C334.314 247.707 334.315 247.809 334.296 247.909C334.277 248.008 334.238 248.103 334.182 248.188C334.126 248.273 334.054 248.345 333.97 248.402C333.886 248.459 333.792 248.499 333.693 248.519C333.593 248.539 333.491 248.54 333.391 248.521C333.292 248.502 333.197 248.463 333.112 248.407C333.028 248.351 332.955 248.279 332.898 248.195C332.841 248.111 332.802 248.017 332.781 247.918L322.191 196.874H303.719L293.13 247.918C293.091 248.081 293 248.226 292.87 248.332C292.74 248.437 292.578 248.496 292.411 248.5Z" fill="#E6E6E6"/>
<path d="M189.501 281.813C270.5 281.813 336.163 277.979 336.163 273.25C336.163 268.521 270.5 264.688 189.501 264.688C108.501 264.688 42.8379 268.521 42.8379 273.25C42.8379 277.979 108.501 281.813 189.501 281.813Z" fill="#F5F5F5"/>
<path d="M202.444 266.261C202.207 266.261 201.978 266.178 201.794 266.028C201.611 265.878 201.485 265.669 201.438 265.437L187.066 194.666H162.036L147.664 265.437C147.596 265.689 147.434 265.906 147.211 266.043C146.989 266.18 146.723 266.227 146.467 266.175C146.211 266.123 145.984 265.976 145.833 265.763C145.681 265.55 145.617 265.287 145.652 265.028L160.19 193.433C160.239 193.201 160.365 192.993 160.548 192.843C160.731 192.693 160.96 192.61 161.196 192.608H187.898C188.135 192.609 188.365 192.691 188.548 192.841C188.731 192.992 188.857 193.201 188.904 193.433L203.45 265.028C203.504 265.295 203.45 265.572 203.299 265.799C203.149 266.026 202.915 266.184 202.648 266.239L202.444 266.261Z" fill="#407BFF"/>
<path d="M162.27 266.261C162.033 266.259 161.804 266.176 161.621 266.027C161.438 265.877 161.312 265.668 161.264 265.437L146.892 194.666H121.862L107.489 265.437C107.47 265.576 107.423 265.71 107.35 265.831C107.277 265.951 107.181 266.055 107.066 266.137C106.951 266.218 106.821 266.275 106.683 266.304C106.546 266.334 106.403 266.334 106.265 266.306C106.128 266.278 105.997 266.222 105.881 266.142C105.766 266.061 105.668 265.958 105.595 265.838C105.521 265.718 105.472 265.585 105.452 265.445C105.432 265.306 105.44 265.164 105.477 265.028L120.023 193.433C120.07 193.201 120.196 192.992 120.38 192.841C120.563 192.691 120.792 192.609 121.029 192.608H147.731C147.967 192.609 148.196 192.692 148.378 192.842C148.56 192.992 148.684 193.201 148.73 193.433L163.276 265.028C163.329 265.295 163.275 265.572 163.125 265.799C162.974 266.026 162.74 266.184 162.474 266.239L162.27 266.261Z" fill="#407BFF"/>
<path d="M167.89 193.644H121.899C117.678 193.645 113.625 191.991 110.609 189.036C107.594 186.082 105.858 182.063 105.773 177.843L104.063 107.949C104.031 106.387 104.311 104.834 104.886 103.381C105.462 101.928 106.321 100.605 107.414 99.4885C108.508 98.372 109.813 97.4848 111.253 96.8789C112.693 96.2731 114.24 95.9606 115.803 95.96H144.638C147.523 95.9618 150.308 97.0251 152.46 98.9473C154.612 100.87 155.982 103.516 156.309 106.383L167.89 193.644Z" fill="#407BFF"/>
<path d="M142.807 184.794H187.814C189.485 184.794 191.088 185.458 192.269 186.639C193.451 187.821 194.115 189.424 194.115 191.095V191.314C194.115 191.916 193.876 192.493 193.45 192.919C193.025 193.345 192.447 193.584 191.846 193.584H142.807V184.794Z" fill="#407BFF"/>
<g opacity="0.3">
<path d="M202.444 266.261C202.207 266.261 201.978 266.178 201.794 266.028C201.611 265.878 201.485 265.669 201.438 265.437L187.066 194.666H162.036L147.664 265.437C147.596 265.689 147.434 265.906 147.211 266.043C146.989 266.18 146.723 266.227 146.467 266.175C146.211 266.123 145.984 265.976 145.833 265.763C145.681 265.55 145.617 265.287 145.652 265.028L160.19 193.433C160.239 193.201 160.365 192.993 160.548 192.843C160.731 192.693 160.96 192.61 161.196 192.608H187.898C188.135 192.609 188.365 192.691 188.548 192.841C188.731 192.992 188.857 193.201 188.904 193.433L203.45 265.028C203.504 265.295 203.45 265.572 203.299 265.799C203.149 266.026 202.915 266.184 202.648 266.239L202.444 266.261Z" fill="black"/>
<path d="M162.27 266.261C162.033 266.259 161.804 266.176 161.621 266.027C161.438 265.877 161.312 265.668 161.264 265.437L146.892 194.666H121.862L107.489 265.437C107.47 265.576 107.423 265.71 107.35 265.831C107.277 265.951 107.181 266.055 107.066 266.137C106.951 266.218 106.821 266.275 106.683 266.304C106.546 266.334 106.403 266.334 106.265 266.306C106.128 266.278 105.997 266.222 105.881 266.142C105.766 266.061 105.668 265.958 105.595 265.838C105.521 265.718 105.472 265.585 105.452 265.445C105.432 265.306 105.44 265.164 105.477 265.028L120.023 193.433C120.07 193.201 120.196 192.992 120.38 192.841C120.563 192.691 120.792 192.609 121.029 192.608H147.731C147.967 192.609 148.196 192.692 148.378 192.842C148.56 192.992 148.684 193.201 148.73 193.433L163.276 265.028C163.329 265.295 163.275 265.572 163.125 265.799C162.974 266.026 162.74 266.184 162.474 266.239L162.27 266.261Z" fill="black"/>
<path d="M167.89 193.644H121.899C117.678 193.645 113.625 191.991 110.609 189.036C107.594 186.082 105.858 182.063 105.773 177.843L104.063 107.949C104.031 106.387 104.311 104.834 104.886 103.381C105.462 101.928 106.321 100.605 107.414 99.4885C108.508 98.372 109.813 97.4848 111.253 96.8789C112.693 96.2731 114.24 95.9606 115.803 95.96H144.638C147.523 95.9618 150.308 97.0251 152.46 98.9473C154.612 100.87 155.982 103.516 156.309 106.383L167.89 193.644Z" fill="black"/>
<path d="M142.807 184.794H187.814C189.485 184.794 191.088 185.458 192.269 186.639C193.451 187.821 194.115 189.424 194.115 191.095V191.314C194.115 191.916 193.876 192.493 193.45 192.919C193.025 193.345 192.447 193.584 191.846 193.584H142.807V184.794Z" fill="black"/>
</g>
<path d="M155.091 92.1028C155.091 92.1028 161.52 100.499 157.36 117.216C153.2 133.933 131.732 124.856 130.431 109.788C128.919 92.0271 148.858 104.274 152.368 88.4795L155.091 92.1028Z" fill="#263238"/>
<path d="M150.424 87.1172C147.632 89.0839 146.528 91.9432 149.614 94.7419C152.7 97.5407 157.103 97.4499 158.434 96.3002C159.765 95.1504 159.501 89.3108 159.501 89.3108L150.424 87.1172Z" fill="#407BFF"/>
<path opacity="0.8" d="M150.424 87.1172C147.632 89.0839 146.528 91.9432 149.614 94.7419C152.7 97.5407 157.103 97.4499 158.434 96.3002C159.765 95.1504 159.501 89.3108 159.501 89.3108L150.424 87.1172Z" fill="white"/>
<path d="M185.673 124.326C185.748 124.667 185.877 125.196 185.998 125.642L186.361 127.064C186.618 128.018 186.898 128.971 187.193 129.924C187.753 131.845 188.373 133.759 189.024 135.673C189.674 137.586 190.34 139.455 191.066 141.391C191.422 142.337 191.777 143.29 192.155 144.235L192.594 145.37C192.682 145.564 192.796 145.745 192.934 145.907C194.011 146.996 195.323 147.824 196.77 148.327C198.536 149.038 200.358 149.605 202.216 150.022C204.137 150.468 206.111 150.839 208.108 151.149C210.105 151.459 212.155 151.709 214.122 151.905L214.19 155.975C209.875 156.421 205.525 156.421 201.21 155.975C198.954 155.742 196.724 155.31 194.546 154.681C193.366 154.325 192.217 153.872 191.112 153.327C189.839 152.709 188.674 151.889 187.662 150.899C187.075 150.315 186.567 149.656 186.149 148.94C186.036 148.759 185.938 148.554 185.832 148.365L185.635 147.957L185.287 147.2C184.818 146.24 184.349 145.279 183.918 144.303C183.04 142.352 182.186 140.385 181.422 138.381C180.658 136.376 179.909 134.356 179.274 132.329C178.963 131.285 178.661 130.249 178.381 129.182L177.965 127.586C177.844 127.011 177.73 126.535 177.609 125.854L185.673 124.326Z" fill="#E58A7B"/>
<path d="M183.102 115.733C186.347 116.557 188.608 129.9 188.608 129.9L179.675 135.952C179.675 135.952 171.105 122.488 173.624 118.925C176.203 115.264 178.366 114.553 183.102 115.733Z" fill="#407BFF"/>
<path opacity="0.5" d="M183.102 115.733C186.347 116.557 188.608 129.9 188.608 129.9L179.675 135.952C179.675 135.952 171.105 122.488 173.624 118.925C176.203 115.264 178.366 114.553 183.102 115.733Z" fill="white"/>
<path opacity="0.2" d="M181.936 119.092L174.168 125.249C175.681 128.989 177.521 132.589 179.667 136.005L185.862 131.792L181.936 119.092Z" fill="#407BFF"/>
<path d="M183.101 115.733C183.101 115.733 186.883 117.049 179.319 163.214H147.383C147.92 150.211 147.935 142.193 141.725 115.499C146.197 114.578 150.729 113.981 155.287 113.714C160.12 113.369 164.971 113.369 169.803 113.714C176.036 114.311 183.101 115.733 183.101 115.733Z" fill="#407BFF"/>
<path opacity="0.5" d="M183.101 115.733C183.101 115.733 186.883 117.049 179.319 163.214H147.383C147.92 150.211 147.935 142.193 141.725 115.499C146.197 114.578 150.729 113.981 155.287 113.714C160.12 113.369 164.971 113.369 169.803 113.714C176.036 114.311 183.101 115.733 183.101 115.733Z" fill="white"/>
<path d="M212.95 151.867L218.525 146.209L219.282 154.182C219.282 154.182 215.099 157.011 212.209 155.49L212.95 151.867Z" fill="#E58A7B"/>
<path d="M225.107 145.369L225.356 152.071L219.275 154.181L218.541 146.209L225.107 145.369Z" fill="#E58A7B"/>
<path d="M215.568 258.923H223.435L224.645 240.701H216.779L215.568 258.923Z" fill="#E58A7B"/>
<path d="M185.121 258.923H192.988L195.514 240.701H187.648L185.121 258.923Z" fill="#E58A7B"/>
<path d="M193.479 258.009H184.636C184.484 258.006 184.336 258.059 184.22 258.158C184.104 258.257 184.029 258.395 184.009 258.546L183.003 265.543C182.985 265.72 183.004 265.898 183.059 266.067C183.114 266.236 183.205 266.391 183.324 266.523C183.443 266.655 183.588 266.76 183.75 266.833C183.913 266.905 184.088 266.942 184.266 266.942C187.344 266.889 188.804 266.708 192.715 266.708C195.105 266.708 201.24 266.957 204.546 266.957C207.851 266.957 208.025 263.69 206.648 263.395C200.484 262.063 196.868 260.24 194.788 258.493C194.423 258.181 193.959 258.01 193.479 258.009Z" fill="#263238"/>
<path d="M224.046 258.009H215.219C215.067 258.007 214.919 258.061 214.804 258.16C214.688 258.258 214.613 258.396 214.591 258.546L213.585 265.543C213.567 265.72 213.586 265.898 213.641 266.067C213.697 266.236 213.787 266.391 213.906 266.523C214.025 266.655 214.17 266.76 214.332 266.832C214.495 266.905 214.67 266.942 214.848 266.942C217.927 266.889 219.386 266.708 223.297 266.708C225.695 266.708 230.634 266.957 233.94 266.957C237.246 266.957 237.42 263.69 236.043 263.395C229.878 262.063 227.45 260.24 225.377 258.493C225.005 258.178 224.533 258.007 224.046 258.009Z" fill="#263238"/>
<path d="M176.83 81.4824C179.659 81.664 181.097 95.8545 172.799 95.03C164.501 94.2055 176.83 81.4824 176.83 81.4824Z" fill="#263238"/>
<path d="M224.645 240.701L224.017 250.096H216.15L216.771 240.701H224.645Z" fill="#CF6F64"/>
<path d="M187.648 240.701H195.523L194.214 250.096H186.34L187.648 240.701Z" fill="#CF6F64"/>
<path opacity="0.2" d="M144.918 130.34C145.674 134.213 146.211 137.556 146.62 140.567L148.488 126.111L144.918 130.34Z" fill="#407BFF"/>
<path d="M156.724 97.4053C157.64 102.072 158.555 110.628 155.287 113.744C155.287 113.744 156.565 118.479 165.242 118.479C174.78 118.479 169.78 113.744 169.78 113.744C164.568 112.503 164.705 108.638 165.612 105.015L156.724 97.4053Z" fill="#E58A7B"/>
<path d="M163.518 119.492L166.422 118.449L166.036 117.654L163.518 119.492Z" fill="#263238"/>
<path d="M169.153 118.887L166.422 118.448L167.012 117.563L169.153 118.887Z" fill="#263238"/>
<path d="M156.348 111.542L154.373 113.463C154.314 113.524 154.281 113.605 154.281 113.69C154.281 113.775 154.314 113.856 154.373 113.917L162.694 123.395C163.09 121.144 164.295 119.116 166.083 117.692C159.199 115.09 157.407 112.397 156.794 111.64C156.78 111.596 156.754 111.557 156.72 111.526C156.686 111.495 156.644 111.473 156.599 111.463C156.554 111.453 156.507 111.455 156.463 111.469C156.419 111.483 156.379 111.508 156.348 111.542Z" fill="#407BFF"/>
<path d="M168.239 112.994L170.69 113.66C170.763 113.68 170.83 113.72 170.883 113.774C170.936 113.829 170.974 113.896 170.992 113.97C171.685 117.079 171.554 120.314 170.614 123.357C170.266 122.071 169.101 118.993 167.014 117.563C169.283 115.997 168.368 113.978 168.042 113.214C168.032 113.185 168.029 113.154 168.035 113.125C168.041 113.095 168.054 113.067 168.074 113.045C168.095 113.022 168.121 113.005 168.15 112.997C168.179 112.988 168.21 112.987 168.239 112.994Z" fill="#407BFF"/>
<path d="M160.364 100.506L165.659 105.007C165.439 105.85 165.29 106.71 165.213 107.578C163.224 107.291 160.493 105.112 160.281 103.04C160.151 102.197 160.18 101.338 160.364 100.506Z" fill="#CF6F64"/>
<path d="M156.219 85.105C155.319 92.8583 154.767 96.1261 157.944 100.755C162.709 107.722 172.437 107.132 175.636 99.8023C178.518 93.2063 179.502 81.6482 172.543 77.2307C171.012 76.2535 169.257 75.684 167.444 75.5764C165.631 75.4687 163.821 75.8263 162.185 76.6154C160.549 77.4045 159.142 78.5987 158.098 80.0846C157.054 81.5705 156.407 83.2987 156.219 85.105Z" fill="#E58A7B"/>
<path d="M173.95 72.2995C161.129 67.239 151.499 72.95 149.51 81.0664C146.386 93.6684 156.363 94.5534 156.363 94.5534L157.611 91.331C159.404 92.4127 164.419 91.9362 162.906 82.5792C162.014 77.2843 168.716 84.6594 177.218 83.8349C179.479 83.6155 182.573 75.7034 173.95 72.2995Z" fill="#263238"/>
<path d="M178.314 75.4157C176.627 72.8212 173.177 70.5973 166.029 69.5459C166.029 69.5459 169.743 70.3855 170.946 73.1011C172.149 75.8166 180.348 78.5398 178.314 75.4157Z" fill="#263238"/>
<path d="M153.752 91.8152C153.7 92.5609 153.795 93.3095 154.033 94.0182C154.27 94.7269 154.645 95.3818 155.136 95.9453C156.46 97.4581 158.2 96.5277 158.745 94.7123C159.229 93.0709 159.13 90.3175 157.36 89.4854C155.59 88.6534 153.896 89.9696 153.752 91.8152Z" fill="#E58A7B"/>
<path d="M179.342 163.244C179.342 163.244 232.095 168.153 231.58 192.139C231.043 217.101 225.703 248.281 225.703 248.281H214.803C214.803 248.281 213.873 221.897 213.555 197.321C213.396 184.522 162.421 181.958 162.421 181.958L155.84 163.244H179.342Z" fill="#263238"/>
<path d="M170.901 163.244C170.901 163.244 204.993 174.553 205.855 188.546C207.436 214.31 196.113 248.304 196.113 248.304H185.379C185.379 248.304 185.992 225.762 187.27 202.419C188.889 173.085 137.134 202.011 147.384 163.267L170.901 163.244Z" fill="#263238"/>
<path d="M167.436 89.3336C167.323 89.9538 167.565 90.5211 167.973 90.5968C168.382 90.6724 168.798 90.2186 168.911 89.5983C169.025 88.978 168.783 88.4032 168.374 88.3351C167.966 88.267 167.565 88.7057 167.436 89.3336Z" fill="#263238"/>
<path d="M174.493 90.5972C174.379 91.2175 174.621 91.7848 175.03 91.8605C175.438 91.9361 175.862 91.4822 175.975 90.862C176.089 90.2417 175.847 89.6668 175.438 89.5988C175.03 89.5307 174.606 89.9694 174.493 90.5972Z" fill="#263238"/>
<path d="M175.25 89.5981L176.831 89.4316C176.831 89.4316 175.885 90.4679 175.25 89.5981Z" fill="#263238"/>
<path d="M172.436 91.3311C172.739 92.8554 173.248 94.3314 173.949 95.7183C173.593 95.8805 173.206 95.9644 172.814 95.9644C172.423 95.9644 172.036 95.8805 171.68 95.7183L172.436 91.3311Z" fill="#DF5753"/>
<path d="M169.077 97.7378C168.247 97.6061 167.46 97.2807 166.779 96.7879C166.098 96.295 165.543 95.6487 165.159 94.9012C165.146 94.8721 165.145 94.8391 165.156 94.8094C165.168 94.7797 165.19 94.7556 165.219 94.7424C165.249 94.732 165.282 94.7332 165.312 94.7457C165.341 94.7583 165.365 94.7814 165.378 94.8105C165.742 95.5168 166.266 96.1283 166.908 96.5959C167.55 97.0634 168.293 97.3742 169.077 97.5033C169.108 97.5106 169.136 97.5294 169.154 97.556C169.172 97.5826 169.18 97.6151 169.175 97.647C169.17 97.6702 169.157 97.6911 169.14 97.7073C169.122 97.7234 169.1 97.734 169.077 97.7378Z" fill="#263238"/>
<path d="M165.78 86.543C165.747 86.5442 165.714 86.538 165.684 86.5249C165.654 86.5118 165.627 86.4922 165.606 86.4673C165.583 86.4461 165.565 86.4203 165.552 86.3917C165.54 86.3631 165.533 86.3322 165.533 86.3009C165.533 86.2697 165.54 86.2388 165.552 86.2101C165.565 86.1815 165.583 86.1557 165.606 86.1345C166.013 85.7364 166.51 85.442 167.055 85.2761C167.6 85.1102 168.177 85.0778 168.737 85.1814C168.797 85.1991 168.847 85.2387 168.878 85.2921C168.909 85.3455 168.918 85.4088 168.904 85.4689C168.897 85.4994 168.884 85.5281 168.865 85.5535C168.847 85.5789 168.824 85.6003 168.797 85.6165C168.77 85.6327 168.74 85.6434 168.709 85.6479C168.678 85.6524 168.647 85.6507 168.616 85.6428C168.133 85.5574 167.636 85.5891 167.168 85.7352C166.699 85.8813 166.273 86.1375 165.924 86.4825C165.883 86.517 165.833 86.5382 165.78 86.543Z" fill="#263238"/>
<path d="M178.352 87.7832C178.305 87.7849 178.259 87.772 178.22 87.7463C178.181 87.7205 178.15 87.6832 178.133 87.6395C177.948 87.1855 177.659 86.7816 177.288 86.4608C176.917 86.1401 176.476 85.9115 176 85.7938C175.938 85.7827 175.883 85.7481 175.847 85.6974C175.81 85.6466 175.794 85.5835 175.803 85.5215C175.814 85.4584 175.85 85.4022 175.902 85.3653C175.955 85.3284 176.02 85.3139 176.083 85.3249C176.637 85.4532 177.152 85.7135 177.584 86.0836C178.016 86.4536 178.352 86.9225 178.564 87.4504C178.59 87.5086 178.591 87.5746 178.569 87.6341C178.546 87.6935 178.501 87.7417 178.443 87.7681L178.352 87.7832Z" fill="#263238"/>
<path d="M146.499 126.913C145.811 129.182 145.069 131.451 144.411 133.781C143.753 136.111 143.057 138.38 142.46 140.687C141.862 142.994 141.295 145.279 140.871 147.495C140.667 148.614 140.478 149.726 140.372 150.77C140.311 151.292 140.281 151.784 140.274 152.238C140.274 152.344 140.274 152.238 140.198 152.064C140.106 151.859 139.978 151.672 139.82 151.511C139.434 151.179 139.29 151.239 139.464 151.292C139.781 151.369 140.107 151.402 140.432 151.39C141.451 151.355 142.464 151.226 143.458 151.005C145.711 150.508 147.932 149.874 150.107 149.106C154.578 147.593 159.116 145.748 163.534 143.864L165.485 147.427C161.294 150.174 156.914 152.621 152.376 154.749C150.027 155.857 147.603 156.8 145.122 157.57C143.741 157.991 142.322 158.277 140.886 158.425C139.989 158.517 139.084 158.494 138.193 158.357C137.602 158.269 137.025 158.103 136.476 157.865C135.767 157.559 135.125 157.117 134.585 156.564C133.536 155.459 132.935 154.003 132.898 152.48C132.861 151.723 132.853 150.967 132.898 150.286C132.951 148.887 133.08 147.563 133.254 146.269C133.617 143.682 134.086 141.186 134.661 138.705C135.236 136.224 135.849 133.826 136.522 131.421C137.195 129.015 137.921 126.655 138.791 124.25L146.499 126.913Z" fill="#E58A7B"/>
<path d="M196.173 259.332C195.476 259.315 194.784 259.219 194.108 259.045C194.083 259.04 194.06 259.028 194.042 259.009C194.023 258.991 194.011 258.968 194.006 258.943C194.001 258.918 194.004 258.891 194.014 258.868C194.024 258.844 194.041 258.824 194.063 258.81C194.328 258.636 196.688 257.108 197.588 257.509C197.682 257.552 197.763 257.619 197.822 257.705C197.881 257.79 197.915 257.89 197.921 257.993C197.958 258.161 197.952 258.336 197.901 258.5C197.851 258.665 197.758 258.813 197.633 258.931C197.209 259.233 196.692 259.375 196.173 259.332ZM194.471 258.863C195.931 259.166 197.028 259.128 197.452 258.735C197.544 258.645 197.612 258.533 197.649 258.41C197.686 258.287 197.691 258.157 197.664 258.031C197.661 257.972 197.642 257.914 197.608 257.865C197.575 257.815 197.529 257.776 197.474 257.751C196.9 257.494 195.304 258.349 194.471 258.863Z" fill="#407BFF"/>
<path d="M194.138 259.053H194.07C194.049 259.04 194.031 259.023 194.019 259.001C194.007 258.98 194.001 258.956 194.002 258.932C194.002 258.841 194.002 256.602 194.849 255.861C194.948 255.765 195.068 255.695 195.2 255.654C195.331 255.613 195.47 255.604 195.606 255.626C195.742 255.625 195.874 255.671 195.981 255.756C196.087 255.842 196.16 255.962 196.188 256.095C196.347 256.912 195.031 258.584 194.206 259.053H194.138ZM195.469 255.861C195.303 255.862 195.143 255.927 195.023 256.042C194.426 256.572 194.305 258.069 194.267 258.667C195.023 258.122 196.037 256.746 195.908 256.133C195.908 256.034 195.833 255.906 195.56 255.868L195.469 255.861Z" fill="#407BFF"/>
<path d="M227.005 259.332C226.173 259.314 225.345 259.22 224.531 259.053C224.504 259.046 224.48 259.032 224.461 259.011C224.443 258.991 224.43 258.966 224.425 258.939C224.421 258.911 224.426 258.883 224.44 258.858C224.454 258.834 224.475 258.814 224.501 258.803C224.849 258.621 227.958 257.033 228.903 257.547C228.985 257.593 229.055 257.658 229.105 257.738C229.155 257.817 229.185 257.907 229.191 258.001C229.212 258.159 229.194 258.319 229.139 258.468C229.083 258.617 228.992 258.751 228.873 258.856C228.323 259.223 227.663 259.392 227.005 259.332ZM224.97 258.864C225.983 259.037 227.995 259.287 228.691 258.667C228.778 258.586 228.845 258.485 228.885 258.373C228.926 258.262 228.94 258.142 228.926 258.024C228.925 257.973 228.911 257.922 228.884 257.878C228.858 257.835 228.82 257.799 228.775 257.774C228.154 257.441 226.067 258.326 224.97 258.864Z" fill="#407BFF"/>
<path d="M224.562 259.052C224.537 259.06 224.511 259.06 224.486 259.052C224.468 259.038 224.453 259.02 224.442 258.999C224.432 258.978 224.426 258.955 224.426 258.931C224.426 258.841 224.615 256.745 225.583 255.906C225.719 255.79 225.877 255.703 226.047 255.651C226.218 255.599 226.397 255.583 226.574 255.603C227.058 255.648 227.194 255.89 227.232 256.08C227.368 256.949 225.538 258.614 224.615 259.03L224.562 259.052ZM226.43 255.86C226.182 255.859 225.942 255.951 225.757 256.117C225.046 256.707 224.796 258.122 224.721 258.689C225.712 258.137 227.066 256.715 226.99 256.133C226.99 256.072 226.99 255.906 226.574 255.868L226.43 255.86Z" fill="#407BFF"/>
<path d="M163.351 143.986L170.81 142.095L167.254 149.258C167.254 149.258 162.209 149.477 160.545 146.664L163.351 143.986Z" fill="#E58A7B"/>
<path d="M176.838 144.81L173.54 150.65L167.254 149.258L170.809 142.095L176.838 144.81Z" fill="#E58A7B"/>
<path d="M168.186 88.3354L169.766 88.1689C169.766 88.1689 168.791 89.2052 168.186 88.3354Z" fill="#263238"/>
<path d="M146.906 161.367L146.649 164.227C146.543 164.454 146.8 164.681 147.171 164.681H179.5C179.788 164.681 180.022 164.537 180.045 164.355L180.332 161.496C180.332 161.299 180.098 161.133 179.788 161.133H147.428C147.328 161.125 147.228 161.142 147.137 161.183C147.046 161.224 146.966 161.287 146.906 161.367Z" fill="#407BFF"/>
<path d="M151.257 164.991H150.387C150.213 164.991 150.085 164.9 150.092 164.794L150.501 161.073C150.501 160.967 150.667 160.876 150.841 160.876H151.681C151.855 160.876 151.983 160.967 151.976 161.073L151.567 164.794C151.575 164.9 151.423 164.991 151.257 164.991Z" fill="#263238"/>
<path d="M177.066 164.991H176.196C176.022 164.991 175.893 164.9 175.901 164.794L176.309 161.073C176.309 160.967 176.476 160.876 176.65 160.876H177.512C177.686 160.876 177.814 160.967 177.807 161.073L177.398 164.794C177.398 164.9 177.232 164.991 177.066 164.991Z" fill="#263238"/>
<path d="M164.161 164.991H163.291C163.117 164.991 162.989 164.9 162.996 164.794L163.405 161.073C163.405 160.967 163.571 160.876 163.745 160.876H164.608C164.782 160.876 164.91 160.967 164.903 161.073L164.494 164.794C164.479 164.9 164.335 164.991 164.161 164.991Z" fill="#263238"/>
<path d="M141.726 115.529C138.518 116.505 134.676 127.526 134.676 127.526L145.001 137.609C145.001 137.609 151.627 127.208 150.296 123.07C148.881 118.759 145.379 114.425 141.726 115.529Z" fill="#407BFF"/>
<path opacity="0.5" d="M141.726 115.529C138.518 116.505 134.676 127.526 134.676 127.526L145.001 137.609C145.001 137.609 151.627 127.208 150.296 123.07C148.881 118.759 145.379 114.425 141.726 115.529Z" fill="white"/>
<path d="M313.296 155.384H253.115V272.44H313.296V155.384Z" fill="#407BFF"/>
<path opacity="0.6" d="M313.296 155.384H253.115V272.44H313.296V155.384Z" fill="white"/>
<path d="M196.708 155.384H136.527V272.44H196.708V155.384Z" fill="#407BFF"/>
<path opacity="0.6" d="M196.708 155.384H136.527V272.44H196.708V155.384Z" fill="white"/>
<path d="M315.55 155.384H310.588V272.44H315.55V155.384Z" fill="#407BFF"/>
<path opacity="0.3" d="M315.55 155.384H310.588V272.44H315.55V155.384Z" fill="black"/>
<path d="M197.427 164.166L317.086 164.166V155.384H197.427V164.166Z" fill="#407BFF"/>
<path opacity="0.3" d="M197.427 164.166L317.086 164.166V155.384H197.427V164.166Z" fill="black"/>
<path d="M198.97 155.384H194.008V272.44H198.97V155.384Z" fill="#407BFF"/>
<path opacity="0.3" d="M198.97 155.384H194.008V272.44H198.97V155.384Z" fill="black"/>
<path d="M197.139 183.387H313.068V158.1H197.139V183.387Z" fill="#407BFF"/>
<path opacity="0.3" d="M197.139 183.387H313.068V158.1H197.139V183.387Z" fill="black"/>
<path d="M313.325 275.845H279.914C277.646 275.843 275.471 274.941 273.867 273.337C272.263 271.733 271.361 269.558 271.359 267.289V161.874C271.359 159.868 270.562 157.944 269.144 156.526C267.725 155.107 265.801 154.31 263.795 154.31H253.795V153.554H263.787C265.994 153.554 268.11 154.43 269.671 155.991C271.231 157.551 272.108 159.668 272.108 161.874V267.289C272.11 269.357 272.932 271.34 274.394 272.802C275.856 274.264 277.839 275.086 279.907 275.088H313.325C313.894 275.089 314.449 274.911 314.91 274.578C315.371 274.245 315.716 273.776 315.894 273.236C316.073 272.696 316.076 272.113 315.905 271.571C315.733 271.029 315.394 270.555 314.937 270.217L315.383 269.612C315.967 270.045 316.399 270.651 316.618 271.344C316.838 272.037 316.833 272.781 316.606 273.471C316.378 274.161 315.938 274.762 315.349 275.188C314.76 275.614 314.052 275.844 313.325 275.845Z" fill="#407BFF"/>
<path opacity="0.3" d="M313.325 275.845H279.914C277.646 275.843 275.471 274.941 273.867 273.337C272.263 271.733 271.361 269.558 271.359 267.289V161.874C271.359 159.868 270.562 157.944 269.144 156.526C267.725 155.107 265.801 154.31 263.795 154.31H253.795V153.554H263.787C265.994 153.554 268.11 154.43 269.671 155.991C271.231 157.551 272.108 159.668 272.108 161.874V267.289C272.11 269.357 272.932 271.34 274.394 272.802C275.856 274.264 277.839 275.086 279.907 275.088H313.325C313.894 275.089 314.449 274.911 314.91 274.578C315.371 274.245 315.716 273.776 315.894 273.236C316.073 272.696 316.076 272.113 315.905 271.571C315.733 271.029 315.394 270.555 314.937 270.217L315.383 269.612C315.967 270.045 316.399 270.651 316.618 271.344C316.838 272.037 316.833 272.781 316.606 273.471C316.378 274.161 315.938 274.762 315.349 275.188C314.76 275.614 314.052 275.844 313.325 275.845Z" fill="black"/>
<path d="M318.198 189.923H317.441V204.545H318.198V189.923Z" fill="#407BFF"/>
<path opacity="0.3" d="M318.198 189.923H317.441V204.545H318.198V189.923Z" fill="black"/>
<path d="M318.198 181.292H317.441V185.135H318.198V181.292Z" fill="#407BFF"/>
<path opacity="0.3" d="M318.198 181.292H317.441V185.135H318.198V181.292Z" fill="black"/>
<path d="M262.797 120.438H206.716L198.592 153.554H254.665L262.797 120.438Z" fill="#407BFF"/>
<path opacity="0.4" d="M262.797 120.438H206.716L198.592 153.554H254.665L262.797 120.438Z" fill="white"/>
<path d="M200.309 153.554L200.082 155.384H178.078L178.305 153.554H200.309Z" fill="#407BFF"/>
<path opacity="0.4" d="M200.309 153.554L200.082 155.384H178.078L178.305 153.554H200.309Z" fill="white"/>
<path d="M256.39 153.554L256.163 155.384H200.082L200.309 153.554H256.39Z" fill="#407BFF"/>
<path opacity="0.5" d="M256.39 153.554L256.163 155.384H200.082L200.309 153.554H256.39Z" fill="black"/>
<path d="M264.522 120.438H208.44L200.316 153.554H256.39L264.522 120.438Z" fill="#407BFF"/>
<path opacity="0.5" d="M264.522 120.438H208.44L200.316 153.554H256.39L264.522 120.438Z" fill="black"/>
<path d="M286.177 147.041C286.177 147.041 277.925 132.813 289.347 121.489C289.347 121.489 292.335 123.441 292.289 126.028C292.244 128.615 289.09 129.311 289.763 131.489C290.436 133.668 293.424 135.823 291.465 137.631C289.506 139.439 291.783 141.043 291.646 143.252C291.51 145.46 286.177 147.041 286.177 147.041Z" fill="#407BFF"/>
<path d="M286.805 148.342C286.805 148.342 290.149 132.238 275.716 125.104C275.716 125.104 273.492 127.896 274.362 130.399C275.232 132.903 278.432 132.502 278.477 134.794C278.522 137.086 276.374 140.051 278.802 141.148C281.23 142.245 279.559 144.492 280.398 146.549C281.238 148.607 286.805 148.342 286.805 148.342Z" fill="#407BFF"/>
<path opacity="0.5" d="M286.805 148.342C286.805 148.342 290.149 132.238 275.716 125.104C275.716 125.104 273.492 127.896 274.362 130.399C275.232 132.903 278.432 132.502 278.477 134.794C278.522 137.086 276.374 140.051 278.802 141.148C281.23 142.245 279.559 144.492 280.398 146.549C281.238 148.607 286.805 148.342 286.805 148.342Z" fill="black"/>
<path d="M274.158 144.771C274.158 144.771 274.438 155.361 284.96 155.361C295.482 155.361 295.754 144.771 295.754 144.771H274.158Z" fill="#407BFF"/>
<path opacity="0.5" d="M274.158 144.771C274.158 144.771 274.438 155.361 284.96 155.361C295.482 155.361 295.754 144.771 295.754 144.771H274.158Z" fill="black"/>
<path d="M217.601 75.3845L208.615 63.7734L199.629 75.3845H203.857V90.4146H213.373V75.3845H217.601Z" fill="#407BFF"/>
<path d="M243.963 89.0382C243.963 83.421 246.194 78.0338 250.166 74.0618C254.138 70.0898 259.525 67.8584 265.143 67.8584V73.3727C263.087 73.3717 261.051 73.7758 259.151 74.5619C257.252 75.3479 255.525 76.5006 254.071 77.9539C252.617 79.4073 251.464 81.1329 250.677 83.0322C249.89 84.9315 249.485 86.9672 249.485 89.0231L243.963 89.0382Z" fill="#407BFF"/>
<path d="M243.963 89.0381H249.485C249.485 93.1908 251.134 97.1735 254.071 100.11C257.007 103.046 260.99 104.696 265.143 104.696C267.89 104.701 270.59 103.975 272.964 102.593L275.733 107.412C272.513 109.271 268.86 110.249 265.142 110.249C261.425 110.249 257.772 109.27 254.552 107.411C251.333 105.552 248.659 102.878 246.8 99.6586C244.941 96.4387 243.963 92.7863 243.963 89.0683V89.0381Z" fill="#407BFF"/>
<path opacity="0.5" d="M243.963 89.0381H249.485C249.485 93.1908 251.134 97.1735 254.071 100.11C257.007 103.046 260.99 104.696 265.143 104.696C267.89 104.701 270.59 103.975 272.964 102.593L275.733 107.412C272.513 109.271 268.86 110.249 265.142 110.249C261.425 110.249 257.772 109.27 254.552 107.411C251.333 105.552 248.659 102.878 246.8 99.6586C244.941 96.4387 243.963 92.7863 243.963 89.0683V89.0381Z" fill="white"/>
<path d="M265.143 73.3724V67.8429C269.82 67.825 274.372 69.356 278.087 72.1968C281.803 75.0376 284.474 79.0285 285.683 83.5469C286.893 88.0652 286.572 92.8567 284.772 97.1737C282.972 101.491 279.793 105.091 275.732 107.411L272.972 102.623C275.979 100.911 278.334 98.2504 279.669 95.0574C281.003 91.8644 281.241 88.3191 280.347 84.9761C279.452 81.6332 277.474 78.681 274.723 76.5815C271.972 74.4819 268.603 73.3534 265.143 73.3724Z" fill="#407BFF"/>
<path opacity="0.7" d="M265.143 73.3724V67.8429C269.82 67.825 274.372 69.356 278.087 72.1968C281.803 75.0376 284.474 79.0285 285.683 83.5469C286.893 88.0652 286.572 92.8567 284.772 97.1737C282.972 101.491 279.793 105.091 275.732 107.411L272.972 102.623C275.979 100.911 278.334 98.2504 279.669 95.0574C281.003 91.8644 281.241 88.3191 280.347 84.9761C279.452 81.6332 277.474 78.681 274.723 76.5815C271.972 74.4819 268.603 73.3534 265.143 73.3724Z" fill="black"/>
<path d="M245.256 37.0645H225.96C225.272 37.0645 224.612 37.3378 224.125 37.8244C223.639 38.3109 223.365 38.9709 223.365 39.659V75.3394C223.371 76.0236 223.647 76.6777 224.133 77.1594C224.619 77.6411 225.276 77.9113 225.96 77.9113H250.657C251.344 77.9093 252.002 77.635 252.487 77.1487C252.972 76.6623 253.244 76.0035 253.244 75.3167V45.0598L245.256 37.0645Z" fill="#263238"/>
<path d="M244.122 74.3633H228.078C227.777 74.3633 227.488 74.2437 227.276 74.0309C227.063 73.8182 226.943 73.5295 226.943 73.2286C226.945 72.929 227.066 72.6424 227.278 72.4312C227.491 72.2201 227.778 72.1016 228.078 72.1016H244.129C244.429 72.1016 244.716 72.2201 244.929 72.4312C245.141 72.6424 245.262 72.929 245.264 73.2286C245.262 73.5302 245.141 73.8188 244.927 74.0314C244.713 74.244 244.423 74.3633 244.122 74.3633Z" fill="#407BFF"/>
<path d="M236.557 42.9121H228.078C227.778 42.9121 227.491 42.7936 227.278 42.5825C227.066 42.3713 226.945 42.0846 226.943 41.785C226.943 41.4841 227.063 41.1955 227.276 40.9827C227.488 40.7699 227.777 40.6504 228.078 40.6504H236.565C236.866 40.6504 237.155 40.7699 237.367 40.9827C237.58 41.1955 237.7 41.4841 237.7 41.785C237.699 41.934 237.668 42.0814 237.61 42.2187C237.552 42.3559 237.468 42.4805 237.362 42.5851C237.256 42.6898 237.13 42.7725 236.992 42.8286C236.854 42.8847 236.706 42.9131 236.557 42.9121Z" fill="#407BFF"/>
<path d="M242.102 47.4043H228.078C227.778 47.4043 227.491 47.2858 227.278 47.0746C227.066 46.8635 226.945 46.5768 226.943 46.2772C226.943 45.9763 227.063 45.6877 227.276 45.4749C227.488 45.2621 227.777 45.1426 228.078 45.1426H242.11C242.409 45.1446 242.696 45.265 242.907 45.4776C243.118 45.6901 243.237 45.9776 243.237 46.2772C243.237 46.4259 243.207 46.573 243.15 46.7103C243.093 46.8475 243.009 46.9721 242.904 47.0769C242.798 47.1816 242.673 47.2645 242.536 47.3207C242.398 47.3769 242.251 47.4053 242.102 47.4043Z" fill="#407BFF"/>
<path d="M248.547 51.8974H228.078C227.778 51.8975 227.491 51.7789 227.278 51.5678C227.066 51.3566 226.945 51.07 226.943 50.7704C226.943 50.4695 227.063 50.1809 227.276 49.9681C227.488 49.7553 227.777 49.6357 228.078 49.6357H248.554C248.855 49.6357 249.144 49.7553 249.357 49.9681C249.569 50.1809 249.689 50.4695 249.689 50.7704C249.688 50.9194 249.658 51.0667 249.6 51.204C249.542 51.3413 249.457 51.4658 249.351 51.5705C249.245 51.6751 249.12 51.7579 248.982 51.814C248.844 51.8701 248.696 51.8984 248.547 51.8974Z" fill="#407BFF"/>
<path d="M248.547 56.3906H236.64C236.341 56.3906 236.053 56.2721 235.841 56.061C235.628 55.8498 235.508 55.5632 235.506 55.2635C235.506 54.9626 235.625 54.674 235.838 54.4612C236.051 54.2484 236.34 54.1289 236.64 54.1289H248.547C248.847 54.1289 249.136 54.2484 249.349 54.4612C249.562 54.674 249.681 54.9626 249.681 55.2635C249.679 55.5632 249.559 55.8498 249.346 56.061C249.134 56.2721 248.846 56.3906 248.547 56.3906Z" fill="#407BFF"/>
<path d="M231.179 56.3906H228.078C227.778 56.3906 227.491 56.2721 227.278 56.061C227.066 55.8498 226.945 55.5632 226.943 55.2635C226.943 54.9626 227.063 54.674 227.276 54.4612C227.488 54.2484 227.777 54.1289 228.078 54.1289H231.187C231.488 54.1289 231.776 54.2484 231.989 54.4612C232.202 54.674 232.322 54.9626 232.322 55.2635C232.321 55.4125 232.29 55.5599 232.232 55.6972C232.174 55.8345 232.09 55.959 231.984 56.0636C231.878 56.1683 231.752 56.251 231.614 56.3071C231.476 56.3632 231.328 56.3916 231.179 56.3906Z" fill="#407BFF"/>
<path d="M248.547 60.8838H228.078C227.777 60.8838 227.488 60.7642 227.276 60.5514C227.063 60.3387 226.943 60.0501 226.943 59.7491C226.945 59.4495 227.066 59.1629 227.278 58.9517C227.491 58.7406 227.778 58.6221 228.078 58.6221H248.554C248.854 58.6221 249.141 58.7406 249.354 58.9517C249.567 59.1629 249.687 59.4495 249.689 59.7491C249.689 59.8988 249.659 60.0469 249.602 60.1851C249.544 60.3233 249.46 60.4487 249.354 60.5541C249.248 60.6596 249.122 60.743 248.983 60.7996C248.845 60.8562 248.696 60.8848 248.547 60.8838Z" fill="#407BFF"/>
<path d="M240.642 65.3769H228.078C227.777 65.3769 227.488 65.2574 227.276 65.0446C227.063 64.8318 226.943 64.5432 226.943 64.2423C226.945 63.9427 227.066 63.656 227.278 63.4449C227.491 63.2337 227.778 63.1152 228.078 63.1152H240.65C240.949 63.1152 241.237 63.2337 241.449 63.4449C241.662 63.656 241.782 63.9427 241.784 64.2423C241.784 64.3919 241.755 64.5401 241.697 64.6783C241.64 64.8164 241.556 64.9418 241.449 65.0473C241.343 65.1528 241.217 65.2362 241.079 65.2927C240.94 65.3493 240.792 65.3779 240.642 65.3769Z" fill="#407BFF"/>
<path d="M248.546 65.3769H245.188C244.888 65.3749 244.601 65.2545 244.39 65.0419C244.179 64.8294 244.061 64.5419 244.061 64.2423C244.061 63.9434 244.179 63.6567 244.391 63.4453C244.602 63.234 244.889 63.1152 245.188 63.1152H248.546C248.846 63.1152 249.133 63.2337 249.346 63.4449C249.558 63.656 249.679 63.9427 249.681 64.2423C249.681 64.5432 249.561 64.8318 249.348 65.0446C249.136 65.2574 248.847 65.3769 248.546 65.3769Z" fill="#407BFF"/>
<path d="M248.547 69.8701H228.078C227.777 69.8701 227.488 69.7506 227.276 69.5378C227.063 69.325 226.943 69.0364 226.943 68.7355C226.945 68.4358 227.066 68.1492 227.278 67.938C227.491 67.7269 227.778 67.6084 228.078 67.6084H248.554C248.854 67.6084 249.141 67.7269 249.354 67.938C249.567 68.1492 249.687 68.4358 249.689 68.7355C249.689 68.8851 249.659 69.0333 249.602 69.1714C249.544 69.3096 249.46 69.435 249.354 69.5405C249.248 69.6459 249.122 69.7293 248.983 69.7859C248.845 69.8425 248.696 69.8711 248.547 69.8701Z" fill="#407BFF"/>
<g opacity="0.5">
<path d="M244.122 74.3633H228.078C227.777 74.3633 227.488 74.2437 227.276 74.0309C227.063 73.8182 226.943 73.5295 226.943 73.2286C226.945 72.929 227.066 72.6424 227.278 72.4312C227.491 72.2201 227.778 72.1016 228.078 72.1016H244.129C244.429 72.1016 244.716 72.2201 244.929 72.4312C245.141 72.6424 245.262 72.929 245.264 73.2286C245.262 73.5302 245.141 73.8188 244.927 74.0314C244.713 74.244 244.423 74.3633 244.122 74.3633Z" fill="white"/>
</g>
<g opacity="0.5">
<path d="M236.557 42.9121H228.078C227.778 42.9121 227.491 42.7936 227.278 42.5825C227.066 42.3713 226.945 42.0846 226.943 41.785C226.943 41.4841 227.063 41.1955 227.276 40.9827C227.488 40.7699 227.777 40.6504 228.078 40.6504H236.565C236.866 40.6504 237.155 40.7699 237.367 40.9827C237.58 41.1955 237.7 41.4841 237.7 41.785C237.699 41.934 237.668 42.0814 237.61 42.2187C237.552 42.3559 237.468 42.4805 237.362 42.5851C237.256 42.6898 237.13 42.7725 236.992 42.8286C236.854 42.8847 236.706 42.9131 236.557 42.9121Z" fill="white"/>
</g>
<g opacity="0.5">
<path d="M242.102 47.4043H228.078C227.778 47.4043 227.491 47.2858 227.278 47.0746C227.066 46.8635 226.945 46.5768 226.943 46.2772C226.943 45.9763 227.063 45.6877 227.276 45.4749C227.488 45.2621 227.777 45.1426 228.078 45.1426H242.11C242.409 45.1446 242.696 45.265 242.907 45.4776C243.118 45.6901 243.237 45.9776 243.237 46.2772C243.237 46.4259 243.207 46.573 243.15 46.7103C243.093 46.8475 243.009 46.9721 242.904 47.0769C242.798 47.1816 242.673 47.2645 242.536 47.3207C242.398 47.3769 242.251 47.4053 242.102 47.4043Z" fill="white"/>
</g>
<g opacity="0.5">
<path d="M248.547 51.8974H228.078C227.778 51.8975 227.491 51.7789 227.278 51.5678C227.066 51.3566 226.945 51.07 226.943 50.7704C226.943 50.4695 227.063 50.1809 227.276 49.9681C227.488 49.7553 227.777 49.6357 228.078 49.6357H248.554C248.855 49.6357 249.144 49.7553 249.357 49.9681C249.569 50.1809 249.689 50.4695 249.689 50.7704C249.688 50.9194 249.658 51.0667 249.6 51.204C249.542 51.3413 249.457 51.4658 249.351 51.5705C249.245 51.6751 249.12 51.7579 248.982 51.814C248.844 51.8701 248.696 51.8984 248.547 51.8974Z" fill="white"/>
</g>
<g opacity="0.5">
<path d="M248.547 56.3906H236.64C236.341 56.3906 236.053 56.2721 235.841 56.061C235.628 55.8498 235.508 55.5632 235.506 55.2635C235.506 54.9626 235.625 54.674 235.838 54.4612C236.051 54.2484 236.34 54.1289 236.64 54.1289H248.547C248.847 54.1289 249.136 54.2484 249.349 54.4612C249.562 54.674 249.681 54.9626 249.681 55.2635C249.679 55.5632 249.559 55.8498 249.346 56.061C249.134 56.2721 248.846 56.3906 248.547 56.3906Z" fill="white"/>
</g>
<g opacity="0.5">
<path d="M231.179 56.3906H228.078C227.778 56.3906 227.491 56.2721 227.278 56.061C227.066 55.8498 226.945 55.5632 226.943 55.2635C226.943 54.9626 227.063 54.674 227.276 54.4612C227.488 54.2484 227.777 54.1289 228.078 54.1289H231.187C231.488 54.1289 231.776 54.2484 231.989 54.4612C232.202 54.674 232.322 54.9626 232.322 55.2635C232.321 55.4125 232.29 55.5599 232.232 55.6972C232.174 55.8345 232.09 55.959 231.984 56.0636C231.878 56.1683 231.752 56.251 231.614 56.3071C231.476 56.3632 231.328 56.3916 231.179 56.3906Z" fill="white"/>
</g>
<g opacity="0.5">
<path d="M248.547 60.8838H228.078C227.777 60.8838 227.488 60.7642 227.276 60.5514C227.063 60.3387 226.943 60.0501 226.943 59.7491C226.945 59.4495 227.066 59.1629 227.278 58.9517C227.491 58.7406 227.778 58.6221 228.078 58.6221H248.554C248.854 58.6221 249.141 58.7406 249.354 58.9517C249.567 59.1629 249.687 59.4495 249.689 59.7491C249.689 59.8988 249.659 60.0469 249.602 60.1851C249.544 60.3233 249.46 60.4487 249.354 60.5541C249.248 60.6596 249.122 60.743 248.983 60.7996C248.845 60.8562 248.696 60.8848 248.547 60.8838Z" fill="white"/>
</g>
<g opacity="0.5">
<path d="M240.642 65.3769H228.078C227.777 65.3769 227.488 65.2574 227.276 65.0446C227.063 64.8318 226.943 64.5432 226.943 64.2423C226.945 63.9427 227.066 63.656 227.278 63.4449C227.491 63.2337 227.778 63.1152 228.078 63.1152H240.65C240.949 63.1152 241.237 63.2337 241.449 63.4449C241.662 63.656 241.782 63.9427 241.784 64.2423C241.784 64.3919 241.755 64.5401 241.697 64.6783C241.64 64.8164 241.556 64.9418 241.449 65.0473C241.343 65.1528 241.217 65.2362 241.079 65.2927C240.94 65.3493 240.792 65.3779 240.642 65.3769Z" fill="white"/>
</g>
<g opacity="0.5">
<path d="M248.546 65.3769H245.188C244.888 65.3749 244.601 65.2545 244.39 65.0419C244.179 64.8294 244.061 64.5419 244.061 64.2423C244.061 63.9434 244.179 63.6567 244.391 63.4453C244.602 63.234 244.889 63.1152 245.188 63.1152H248.546C248.846 63.1152 249.133 63.2337 249.346 63.4449C249.558 63.656 249.679 63.9427 249.681 64.2423C249.681 64.5432 249.561 64.8318 249.348 65.0446C249.136 65.2574 248.847 65.3769 248.546 65.3769Z" fill="white"/>
</g>
<g opacity="0.5">
<path d="M248.547 69.8701H228.078C227.777 69.8701 227.488 69.7506 227.276 69.5378C227.063 69.325 226.943 69.0364 226.943 68.7355C226.945 68.4358 227.066 68.1492 227.278 67.938C227.491 67.7269 227.778 67.6084 228.078 67.6084H248.554C248.854 67.6084 249.141 67.7269 249.354 67.938C249.567 68.1492 249.687 68.4358 249.689 68.7355C249.689 68.8851 249.659 69.0333 249.602 69.1714C249.544 69.3096 249.46 69.435 249.354 69.5405C249.248 69.6459 249.122 69.7293 248.983 69.7859C248.845 69.8425 248.696 69.8711 248.547 69.8701Z" fill="white"/>
</g>
<path d="M245.256 37.0645V42.4653C245.255 42.8063 245.321 43.1441 245.451 43.4594C245.581 43.7746 245.772 44.061 246.014 44.3021C246.255 44.5433 246.541 44.7343 246.856 44.8644C247.172 44.9944 247.509 45.0608 247.85 45.0598H253.244L245.256 37.0645Z" fill="#407BFF"/>
<path opacity="0.5" d="M245.256 37.0645V42.4653C245.255 42.8063 245.321 43.1441 245.451 43.4594C245.581 43.7746 245.772 44.061 246.014 44.3021C246.255 44.5433 246.541 44.7343 246.856 44.8644C247.172 44.9944 247.509 45.0608 247.85 45.0598H253.244L245.256 37.0645Z" fill="white"/>
</svg>
