<svg width="32" height="32" viewBox="0 0 32 32" fill="none" xmlns="http://www.w3.org/2000/svg">
<g clip-path="url(#clip0_951_4828)">
<path d="M14.6542 0.668017L0.668885 14.6418C-0.0829877 15.3931 -0.0829877 16.6065 0.668885 17.3577L14.6542 31.3315C15.4061 32.0828 16.6205 32.0828 17.3723 31.3315L23.2362 25.4725C23.9095 24.7997 23.9095 23.7089 23.2362 23.0361C22.5628 22.3633 21.4711 22.3633 20.7977 23.0361L16.3524 27.4777C16.1653 27.6647 15.8812 27.6647 15.6941 27.4777L4.52584 16.3187C4.3387 16.1317 4.3387 15.8479 4.52584 15.6609L15.6941 4.50183C15.8812 4.31485 16.1653 4.31485 16.3524 4.50183L20.7977 8.94351C21.4711 9.61631 22.5628 9.61631 23.2362 8.94351C23.9095 8.2707 23.9095 7.17987 23.2362 6.50707L17.373 0.648692C16.618 -0.0863052 15.4032 -0.0803549 14.6542 0.668017Z" fill="url(#paint0_linear_951_4828)"/>
<path d="M14.6542 0.668017L0.668885 14.6418C-0.0829877 15.3931 -0.0829877 16.6065 0.668885 17.3577L14.6542 31.3315C15.4061 32.0828 16.6205 32.0828 17.3723 31.3315L23.2362 25.4725C23.9095 24.7997 23.9095 23.7089 23.2362 23.0361C22.5628 22.3633 21.4711 22.3633 20.7977 23.0361L16.3524 27.4777C16.1653 27.6647 15.8812 27.6647 15.6941 27.4777L4.52584 16.3187C4.3387 16.1317 4.3387 15.8479 4.52584 15.6609L15.6941 4.50183C16.1601 4.10012 16.9204 3.28646 18.0368 3.09616C18.8666 2.95474 19.7737 3.26602 20.7583 4.03C20.1 3.37232 18.9716 2.24522 17.373 0.648692C16.618 -0.0863052 15.4032 -0.0803549 14.6542 0.668017Z" fill="url(#paint1_linear_951_4828)"/>
<path d="M24.5899 21.7363C25.2633 22.4091 26.355 22.4091 27.0283 21.7363L31.3538 17.4144C32.1057 16.6631 32.1057 15.4497 31.3539 14.6986L26.9907 10.3544C26.3158 9.68244 25.2237 9.68341 24.5499 10.3566C23.8766 11.0294 23.8766 12.1202 24.5499 12.793L27.4968 15.7375C27.684 15.9245 27.684 16.2083 27.4968 16.3953L24.5899 19.2998C23.9165 19.9726 23.9165 21.0635 24.5899 21.7363Z" fill="url(#paint2_linear_951_4828)"/>
<path d="M16.0832 19.8427C18.1686 19.8427 19.8592 18.1535 19.8592 16.0698C19.8592 13.9861 18.1686 12.2969 16.0832 12.2969C13.9977 12.2969 12.3071 13.9861 12.3071 16.0698C12.3071 18.1535 13.9977 19.8427 16.0832 19.8427Z" fill="url(#paint3_linear_951_4828)"/>
</g>
<defs>
<linearGradient id="paint0_linear_951_4828" x1="14.7836" y1="0.102052" x2="28.0737" y2="8.21811" gradientUnits="userSpaceOnUse">
<stop stop-color="#4285EB"/>
<stop offset="1" stop-color="#2EC7FF"/>
</linearGradient>
<linearGradient id="paint1_linear_951_4828" x1="16.5662" y1="0.102051" x2="10.0021" y2="34.027" gradientUnits="userSpaceOnUse">
<stop stop-color="#29CDFF"/>
<stop offset="0.378601" stop-color="#148EFF"/>
<stop offset="1" stop-color="#0A60FF"/>
</linearGradient>
<linearGradient id="paint2_linear_951_4828" x1="29.5315" y1="8.24358" x2="20.9906" y2="21.6008" gradientUnits="userSpaceOnUse">
<stop stop-color="#FA816E"/>
<stop offset="0.414726" stop-color="#F74A5C"/>
<stop offset="1" stop-color="#F51D2C"/>
</linearGradient>
<linearGradient id="paint3_linear_951_4828" x1="17.4522" y1="9.60372" x2="14.6104" y2="20.9714" gradientUnits="userSpaceOnUse">
<stop stop-color="#FA8E7D"/>
<stop offset="0.512635" stop-color="#F74A5C"/>
<stop offset="1" stop-color="#F51D2C"/>
</linearGradient>
<clipPath id="clip0_951_4828">
<rect width="32" height="32" fill="white"/>
</clipPath>
</defs>
</svg>
