<svg width="379" height="282" viewBox="0 0 379 282" fill="none" xmlns="http://www.w3.org/2000/svg">
<path d="M378.606 247.653H0.394531V247.842H378.606V247.653Z" fill="#E6E6E6"/>
<path d="M86.5204 253.719H60.4995V253.908H86.5204V253.719Z" fill="#E6E6E6"/>
<path d="M99.2814 253.719H91.5054V253.908H99.2814V253.719Z" fill="#E6E6E6"/>
<path d="M137.647 250.005H123.003V250.194H137.647V250.005Z" fill="#E6E6E6"/>
<path d="M326.118 257.917H293.448V258.107H326.118V257.917Z" fill="#E6E6E6"/>
<path d="M337.646 257.917H332.857V258.107H337.646V257.917Z" fill="#E6E6E6"/>
<path d="M301.716 251.276H230.854V251.465H301.716V251.276Z" fill="#E6E6E6"/>
<path d="M179.667 213.916H33.609C32.4648 213.914 31.3681 213.458 30.5597 212.649C29.7514 211.839 29.2974 210.741 29.2974 209.597V4.28135C29.3073 3.14371 29.7657 2.05594 30.573 1.25431C31.3803 0.452687 32.4713 0.00194884 33.609 0H179.667C180.812 0 181.911 0.455054 182.721 1.26506C183.531 2.07506 183.986 3.17366 183.986 4.31917V209.597C183.986 210.743 183.531 211.841 182.721 212.651C181.911 213.461 180.812 213.916 179.667 213.916ZM33.609 0.151285C32.5149 0.153289 31.4664 0.589302 30.6935 1.36362C29.9206 2.13794 29.4865 3.1873 29.4865 4.28135V209.597C29.4865 210.691 29.9206 211.74 30.6935 212.515C31.4664 213.289 32.5149 213.725 33.609 213.727H179.667C180.761 213.725 181.811 213.289 182.585 212.515C183.359 211.741 183.795 210.692 183.797 209.597V4.28135C183.795 3.1866 183.359 2.13727 182.585 1.36316C181.811 0.589057 180.761 0.153285 179.667 0.151285H33.609Z" fill="#E6E6E6"/>
<path d="M343.289 213.916H197.223C196.079 213.914 194.981 213.459 194.172 212.649C193.362 211.839 192.906 210.742 192.904 209.597V4.28135C192.916 3.14302 193.376 2.05526 194.185 1.25384C194.993 0.452423 196.085 0.00192758 197.223 0H343.289C344.425 0.0039368 345.514 0.455555 346.32 1.25697C347.125 2.05838 347.583 3.14502 347.593 4.28135V209.597C347.593 210.74 347.14 211.836 346.333 212.646C345.526 213.455 344.432 213.912 343.289 213.916ZM197.223 0.151285C196.129 0.153285 195.079 0.589057 194.305 1.36316C193.531 2.13727 193.095 3.1866 193.093 4.28135V209.597C193.095 210.692 193.531 211.741 194.305 212.515C195.079 213.289 196.129 213.725 197.223 213.727H343.289C344.383 213.725 345.433 213.289 346.207 212.515C346.981 211.741 347.417 210.692 347.419 209.597V4.28135C347.417 3.1866 346.981 2.13727 346.207 1.36316C345.433 0.589057 344.383 0.153285 343.289 0.151285H197.223Z" fill="#E6E6E6"/>
<path d="M317.351 144.56H264.348V247.653H317.351V144.56Z" fill="#F5F5F5"/>
<path d="M317.351 144.56H312.979V247.653H317.351V144.56Z" fill="#F0F0F0"/>
<path d="M146.399 169.771L268.433 169.771V147.502H146.399V169.771Z" fill="#E0E0E0"/>
<path d="M197.284 247.728H144.962C144.761 247.728 144.569 247.649 144.427 247.507C144.285 247.365 144.206 247.172 144.206 246.972C144.206 246.771 144.285 246.579 144.427 246.437C144.569 246.295 144.761 246.215 144.962 246.215H197.284C204.848 246.215 205.854 244.007 205.854 235.247V124.81C205.854 124.609 205.934 124.417 206.076 124.275C206.217 124.133 206.41 124.053 206.61 124.053C206.811 124.053 207.003 124.133 207.145 124.275C207.287 124.417 207.367 124.609 207.367 124.81V235.247C207.367 244.612 205.915 247.728 197.284 247.728Z" fill="#E0E0E0"/>
<path d="M151.089 152.691L316.155 152.691V144.961L151.089 144.961V152.691Z" fill="#F0F0F0"/>
<path d="M152.284 144.56H99.2817V247.653H152.284V144.56Z" fill="#F5F5F5"/>
<path d="M152.277 144.56H147.905V247.653H152.277V144.56Z" fill="#F0F0F0"/>
<path d="M114.75 247.653L114.75 64.069H69.2668L69.2668 247.653H114.75Z" fill="#FAFAFA"/>
<path d="M112.254 109.923V69.432H71.7631V109.923H112.254Z" fill="#F5F5F5"/>
<path d="M83.041 68.8873H100.998C100.998 70.0007 100.556 71.0686 99.7689 71.8559C98.9816 72.6432 97.9138 73.0855 96.8003 73.0855H87.2694C86.7156 73.0895 86.1664 72.9838 85.6536 72.7746C85.1407 72.5654 84.6743 72.2568 84.2813 71.8666C83.8883 71.4764 83.5763 71.0122 83.3634 70.5009C83.1506 69.9896 83.041 69.4412 83.041 68.8873Z" fill="#E0E0E0"/>
<path d="M112.247 154.045V113.554H71.7558V154.045H112.247Z" fill="#F5F5F5"/>
<path d="M112.254 198.168V157.676H71.7631V198.168H112.254Z" fill="#F5F5F5"/>
<path d="M112.254 242.297V201.806H71.7631V242.297H112.254Z" fill="#F5F5F5"/>
<path d="M83.041 113.017H100.998C100.996 114.13 100.554 115.197 99.7667 115.983C98.9798 116.77 97.9131 117.213 96.8003 117.215H87.2694C86.7158 117.218 86.1671 117.112 85.6547 116.902C85.1424 116.693 84.6764 116.384 84.2835 115.994C83.8907 115.604 83.5787 115.14 83.3655 114.629C83.1523 114.119 83.042 113.571 83.041 113.017Z" fill="#E0E0E0"/>
<path d="M83.041 157.139H100.998C100.998 158.253 100.556 159.32 99.7689 160.108C98.9816 160.895 97.9138 161.337 96.8003 161.337H87.2694C86.7156 161.341 86.1664 161.236 85.6536 161.026C85.1407 160.817 84.6743 160.509 84.2813 160.118C83.8883 159.728 83.5763 159.264 83.3634 158.753C83.1506 158.241 83.041 157.693 83.041 157.139Z" fill="#E0E0E0"/>
<path d="M83.041 201.261H100.998C100.998 202.375 100.556 203.443 99.7689 204.23C98.9816 205.017 97.9138 205.46 96.8003 205.46H87.2694C86.7156 205.464 86.1664 205.358 85.6536 205.149C85.1407 204.94 84.6743 204.631 84.2813 204.241C83.8883 203.851 83.5763 203.386 83.3634 202.875C83.1506 202.364 83.041 201.815 83.041 201.261Z" fill="#E0E0E0"/>
<path d="M69.2671 247.653L69.2671 64.069H46.5517L46.5517 247.653H69.2671Z" fill="#F0F0F0"/>
<path d="M200.385 144.56H188.956L191.732 122.306H203.169L200.385 144.56Z" fill="#F0F0F0"/>
<path d="M202.919 144.56H191.482L194.266 122.306H205.695L202.919 144.56Z" fill="#F5F5F5"/>
<path d="M227.442 144.56H219.175L217.594 142.041H225.854L227.442 144.56Z" fill="#F0F0F0"/>
<path d="M271.738 144.56H221.701L220.12 142.041H264.991L271.738 144.56Z" fill="#FAFAFA"/>
<path d="M164.13 138.176H167.746C169.439 138.176 171.063 138.848 172.26 140.045C173.457 141.243 174.13 142.867 174.13 144.56H157.73C157.73 143.72 157.896 142.889 158.218 142.113C158.54 141.338 159.011 140.633 159.606 140.04C160.2 139.447 160.906 138.977 161.682 138.657C162.458 138.337 163.29 138.174 164.13 138.176Z" fill="#F0F0F0"/>
<path d="M204.304 133.433H192.874L194.266 122.306H205.695L204.304 133.433Z" fill="#F0F0F0"/>
<path d="M162.269 130.77H243.206C243.365 130.771 243.523 130.737 243.668 130.671C243.813 130.606 243.943 130.51 244.048 130.391C244.153 130.271 244.232 130.13 244.279 129.978C244.325 129.826 244.339 129.665 244.318 129.507L238.085 79.6437C238.052 79.3723 237.92 79.1224 237.716 78.9413C237.511 78.7601 237.247 78.6602 236.973 78.6604H156.059C155.9 78.6603 155.743 78.6939 155.599 78.7589C155.454 78.824 155.325 78.919 155.22 79.0377C155.115 79.1564 155.036 79.2961 154.989 79.4475C154.942 79.599 154.928 79.7587 154.947 79.9161L161.18 129.787C161.212 130.055 161.341 130.301 161.541 130.482C161.741 130.663 161.999 130.765 162.269 130.77Z" fill="#F0F0F0"/>
<path d="M163.494 130.77H244.379C244.538 130.771 244.695 130.737 244.841 130.671C244.986 130.606 245.115 130.51 245.221 130.391C245.326 130.271 245.404 130.13 245.451 129.978C245.497 129.826 245.511 129.665 245.49 129.507L239.258 79.6437C239.223 79.373 239.091 79.124 238.886 78.9432C238.682 78.7623 238.419 78.6618 238.146 78.6604H157.261C157.103 78.6603 156.946 78.6939 156.801 78.7589C156.657 78.824 156.528 78.919 156.422 79.0377C156.317 79.1564 156.239 79.2961 156.192 79.4475C156.145 79.599 156.13 79.7587 156.149 79.9161L162.382 129.787C162.416 130.058 162.547 130.308 162.752 130.489C162.957 130.671 163.221 130.771 163.494 130.77Z" fill="#F5F5F5"/>
<path d="M242.881 128.009L237.049 81.3381C237.038 81.2619 237 81.1923 236.941 81.1422C236.883 81.0921 236.808 81.065 236.731 81.0658H159.069C159.025 81.0641 158.981 81.0724 158.94 81.0898C158.899 81.1073 158.862 81.1336 158.833 81.1668C158.803 81.2 158.781 81.2394 158.768 81.2821C158.756 81.3248 158.753 81.3697 158.759 81.4137L164.591 128.093C164.601 128.168 164.637 128.238 164.695 128.288C164.752 128.338 164.825 128.365 164.901 128.365H242.571C242.615 128.364 242.659 128.354 242.7 128.335C242.74 128.317 242.776 128.29 242.805 128.256C242.834 128.223 242.856 128.183 242.869 128.141C242.882 128.098 242.886 128.053 242.881 128.009Z" fill="#E0E0E0"/>
<path d="M213.32 144.56H194.697V144.326C194.697 143.834 194.892 143.363 195.24 143.015C195.587 142.668 196.058 142.472 196.55 142.472H211.467C211.958 142.472 212.429 142.668 212.777 143.015C213.125 143.363 213.32 143.834 213.32 144.326V144.56Z" fill="#FAFAFA"/>
<path d="M196.868 144.56H184.235V144.326C184.235 143.834 184.431 143.363 184.778 143.015C185.126 142.668 185.597 142.472 186.089 142.472H195.014C195.506 142.472 195.977 142.668 196.325 143.015C196.672 143.363 196.868 143.834 196.868 144.326V144.56Z" fill="#F0F0F0"/>
<path d="M88.4875 43.3354V43.2976C88.6614 42.7151 88.8278 42.1251 88.9716 41.5351C89.2277 41.943 89.5761 42.2849 89.9887 42.5332C90.4013 42.7815 90.8665 42.9294 91.3467 42.9648H91.551C92.8142 42.8437 94.0245 41.6183 94.7885 39.6895C94.8032 39.6548 94.8108 39.6175 94.8108 39.5798C94.8108 39.5421 94.8032 39.5048 94.7885 39.4701C94.7518 39.401 94.6892 39.3493 94.6145 39.3264C93.7078 39.0966 92.7628 39.0606 91.8413 39.221C90.9197 39.3813 90.0424 39.7342 89.2666 40.2568C89.38 39.697 89.4784 39.1297 89.5616 38.5699C89.761 38.6084 89.9636 38.6287 90.1667 38.6305C92.2242 38.6305 93.737 36.7924 93.8127 36.7016C93.8393 36.6682 93.8577 36.6291 93.8665 36.5873C93.8752 36.5456 93.874 36.5023 93.863 36.4611C93.852 36.4199 93.8314 36.3818 93.8029 36.35C93.7745 36.3182 93.7389 36.2935 93.6992 36.278C93.2212 36.0407 92.6985 35.9073 92.1653 35.8864C91.6321 35.8655 91.1005 35.9577 90.6054 36.157C90.077 36.4257 89.6498 36.8583 89.3876 37.3899C89.0022 36.2063 88.2975 35.152 87.3512 34.3432C86.405 33.5344 85.2538 33.0024 84.0246 32.806C83.9864 32.797 83.9467 32.7971 83.9086 32.8063C83.8704 32.8155 83.835 32.8335 83.8052 32.859C83.7735 32.8813 83.7474 32.9107 83.729 32.9448C83.7106 32.9789 83.7005 33.0169 83.6993 33.0556C83.5934 34.924 83.6539 37.216 85.0533 38.3052C85.6386 38.7369 86.3538 38.9557 87.0805 38.9255C87.7315 38.9098 88.3775 38.808 89.0018 38.6229C88.802 39.9747 88.5114 41.3116 88.1319 42.6244C86.763 40.7591 84.8209 39.3935 82.6025 38.7364C82.5324 38.72 82.4587 38.7314 82.3967 38.768C82.3347 38.8046 82.2892 38.8637 82.2697 38.933C81.8461 40.5442 82.0654 41.8528 82.8975 42.7151C83.3206 43.0953 83.816 43.3863 84.354 43.5708C84.892 43.7554 85.4617 43.8296 86.0291 43.7893C86.6389 43.7854 87.2469 43.7221 87.8445 43.6002C87.4965 44.7045 87.0881 45.7862 86.7023 46.815C85.8627 46.0585 83.3892 44.1826 80.6963 44.9693C80.624 44.9932 80.5641 45.0449 80.5299 45.113C80.5151 45.1477 80.5075 45.185 80.5075 45.2227C80.5075 45.2604 80.5151 45.2977 80.5299 45.3324C81.2863 47.1175 82.0957 48.1084 83.1395 48.4488C83.4177 48.5406 83.709 48.5865 84.0019 48.585C84.8012 48.551 85.5801 48.3225 86.2711 47.9193C85.6963 49.2885 85.0836 50.5668 84.5011 51.7014C83.8098 50.9964 82.9412 50.4909 81.9867 50.2379C81.0323 49.985 80.0273 49.9941 79.0776 50.2642C79.0128 50.2771 78.9551 50.3137 78.9159 50.3669C78.8767 50.4201 78.8588 50.486 78.8658 50.5517C78.9327 51.1238 79.149 51.6681 79.4928 52.1302C79.8367 52.5922 80.2961 52.9557 80.8249 53.184C81.2238 53.3556 81.6539 53.4431 82.0881 53.4412C82.6906 53.4337 83.2823 53.2806 83.8128 52.9949C83.2228 54.0917 82.6781 55.007 82.2545 55.7029H77.1109C76.2939 54.3035 75.3484 52.5638 74.4256 50.6122C74.8554 50.7405 75.3008 50.8092 75.7493 50.8164C76.3009 50.8233 76.8467 50.703 77.3443 50.465C77.842 50.2269 78.2782 49.8775 78.619 49.4437C78.9599 49.01 79.1963 48.5036 79.3099 47.9638C79.4235 47.4239 79.4113 46.8652 79.2742 46.3308C79.2565 46.2688 79.2168 46.2153 79.1625 46.1805C79.1082 46.1457 79.043 46.1319 78.9792 46.1417C77.9288 46.2442 76.9185 46.598 76.0337 47.1734C75.149 47.7488 74.4157 48.5287 73.8961 49.4473C73.2909 48.0857 72.7009 46.641 72.1866 45.1508C72.8413 45.5234 73.5748 45.7359 74.3272 45.7711C74.6258 45.7745 74.9228 45.7259 75.2047 45.6274C76.7175 45.1281 77.5874 43.3052 78.3287 41.4141C78.3454 41.3799 78.3541 41.3424 78.3541 41.3044C78.3541 41.2664 78.3454 41.2289 78.3287 41.1947C78.3113 41.16 78.2868 41.1293 78.2568 41.1046C78.2269 41.0798 78.1921 41.0616 78.1547 41.051C75.129 40.2038 72.6404 43.116 71.8689 44.1599C71.4654 42.9004 71.1296 41.6202 70.8628 40.3248C71.4984 40.4493 72.1441 40.5151 72.7917 40.5215C73.4353 40.5686 74.0817 40.4827 74.6907 40.2693C75.2997 40.0559 75.8583 39.7195 76.3317 39.281C77.247 38.3128 77.4664 36.8604 76.9747 35.0904C76.966 35.0557 76.9503 35.0231 76.9287 34.9947C76.907 34.9662 76.8798 34.9424 76.8487 34.9247C76.8176 34.907 76.7832 34.8958 76.7477 34.8918C76.7121 34.8878 76.6762 34.891 76.6419 34.9013C74.228 35.6546 72.1267 37.1767 70.6586 39.2356L70.5451 38.5473C70.5371 38.4877 70.5107 38.4322 70.4695 38.3884C70.3447 37.9409 70.1274 37.5245 69.8317 37.1661C69.5359 36.8078 69.1682 36.5156 68.7524 36.3082C68.2067 36.0977 67.6226 36.005 67.0386 36.0363C66.4545 36.0676 65.8837 36.2222 65.3636 36.4898C65.3236 36.5071 65.288 36.533 65.2592 36.5657C65.2304 36.5984 65.2093 36.637 65.1972 36.6789C65.1879 36.72 65.1886 36.7627 65.1991 36.8035C65.2096 36.8443 65.2297 36.8819 65.2577 36.9134C65.3334 37.0117 66.9975 38.9784 69.2365 38.9784C69.4779 38.9753 69.7184 38.95 69.9551 38.9028C70.0534 39.5457 70.1745 40.1887 70.3106 40.8241C69.448 40.2562 68.4748 39.8777 67.4552 39.7134C66.4356 39.5491 65.3927 39.6028 64.3954 39.871C64.3207 39.894 64.2581 39.9456 64.2214 40.0147C64.2064 40.0507 64.1987 40.0892 64.1987 40.1282C64.1987 40.1671 64.2064 40.2057 64.2214 40.2416C65.0913 42.3445 66.4377 43.6758 67.8296 43.7893H68.0187C68.7221 43.7893 69.6752 43.464 70.6435 42.1705C71.0247 43.6413 71.4843 45.0906 72.0201 46.5124C70.7115 45.8921 67.769 44.8256 65.6662 46.4519C65.6373 46.4728 65.6129 46.4993 65.5945 46.5299C65.5761 46.5604 65.5641 46.5944 65.5591 46.6297C65.5542 46.665 65.5564 46.701 65.5657 46.7354C65.575 46.7698 65.5912 46.8021 65.6132 46.8301C66.9748 48.6833 68.2305 49.5835 69.4634 49.5835C70.4846 49.5835 71.4604 48.9405 72.4362 47.6697C72.9959 49.0615 73.6011 50.3928 74.1986 51.6182C72.89 50.8089 71.4528 50.9375 69.7584 52.004C69.7192 52.0275 69.6868 52.0608 69.6643 52.1005C69.6417 52.1403 69.6299 52.1852 69.6298 52.2309C69.6267 52.2755 69.6356 52.32 69.6556 52.3599C69.6755 52.3998 69.7058 52.4336 69.7433 52.4579C70.7525 53.1853 71.9442 53.6174 73.185 53.706C73.8252 53.7187 74.4529 53.528 74.9778 53.1613C75.4619 54.0917 75.9384 54.9465 76.3771 55.7105H74.0398V57.0418H74.887L75.5905 64.0916H85.9459L86.6418 57.0418H87.4965V55.7105H82.8445C83.3589 54.8557 84.017 53.7135 84.7205 52.3747C84.7415 52.3477 84.7569 52.3169 84.7659 52.2839C84.9474 51.9435 85.1214 51.5955 85.3029 51.2325C85.6106 51.6979 86.0252 52.0829 86.5121 52.3554C86.999 52.6278 87.5441 52.7796 88.1017 52.7983C88.2175 52.8058 88.3338 52.8058 88.4496 52.7983C89.0659 52.7284 89.6507 52.4893 90.1393 52.1075C90.628 51.7256 91.0014 51.2159 91.2181 50.6349C91.2405 50.5752 91.2406 50.5094 91.2184 50.4497C91.1961 50.3899 91.1531 50.3402 91.0971 50.3096C90.304 49.8616 89.4156 49.6087 88.5055 49.5719C87.5953 49.5351 86.6894 49.7153 85.8627 50.0978C86.256 49.2733 86.6191 48.3883 87.0124 47.473C87.0421 47.4391 87.0606 47.3968 87.0654 47.352C87.1713 47.0948 87.2696 46.8376 87.3755 46.5956C88.2757 47.7302 89.1682 48.29 90.0986 48.29C91.2257 48.29 92.3679 47.4579 93.5933 45.7408C93.6359 45.6835 93.6542 45.6116 93.6442 45.5409C93.6343 45.4701 93.597 45.4061 93.5404 45.3626C91.6115 43.9179 89.0018 44.9088 87.7764 45.4837C88.026 44.8029 88.253 44.1145 88.4648 43.4111L88.4875 43.3354Z" fill="#E0E0E0"/>
<path d="M304.832 40.1433H266.148V82.6164H304.832V40.1433Z" fill="#E0E0E0"/>
<path d="M300.059 41.8831C300.027 41.8909 299.993 41.8909 299.961 41.8831C299.87 41.8226 290.732 36.3915 287.858 36.3915C284.983 36.3915 276.247 41.8226 276.156 41.8756C276.135 41.8892 276.112 41.8985 276.088 41.9028C276.063 41.9072 276.038 41.9065 276.014 41.9008C275.99 41.8952 275.968 41.8846 275.948 41.8699C275.928 41.8551 275.911 41.8365 275.899 41.8151C275.873 41.7728 275.865 41.7222 275.877 41.6742C275.888 41.6261 275.918 41.5844 275.959 41.5579C276.322 41.331 284.847 36.0133 287.858 36.0133C290.868 36.0133 299.809 41.3083 300.187 41.5579C300.209 41.5703 300.228 41.5869 300.242 41.6068C300.257 41.6267 300.268 41.6493 300.273 41.6734C300.279 41.6975 300.28 41.7225 300.275 41.7468C300.271 41.7712 300.262 41.7944 300.248 41.8151C300.227 41.8438 300.197 41.8656 300.164 41.8777C300.13 41.8898 300.094 41.8917 300.059 41.8831Z" fill="#EBEBEB"/>
<path d="M309.015 40.1433H269.061V82.6164H309.015V40.1433Z" fill="#F5F5F5"/>
<path d="M305.671 79.2656V43.4868H272.411V79.2656H305.671Z" fill="white"/>
<path d="M295.484 67.8218C299.043 64.2622 299.043 58.491 295.484 54.9314C291.924 51.3718 286.153 51.3718 282.593 54.9314C279.034 58.491 279.034 64.2622 282.593 67.8218C286.153 71.3814 291.924 71.3814 295.484 67.8218Z" fill="#E0E0E0"/>
<path d="M288.266 196.103H322.169C325.28 196.105 328.267 194.887 330.489 192.71C332.712 190.533 333.991 187.571 334.052 184.461L335.323 122.389C335.346 121.237 335.139 120.092 334.714 119.021C334.29 117.95 333.655 116.975 332.849 116.152C332.042 115.329 331.08 114.676 330.017 114.23C328.955 113.784 327.814 113.554 326.662 113.554H305.407C303.28 113.554 301.228 114.336 299.642 115.752C298.055 117.168 297.046 119.119 296.806 121.232L288.266 196.103Z" fill="#E6E6E6"/>
<path d="M306.769 196.103H270.642C270.192 196.103 269.761 195.924 269.444 195.606C269.126 195.289 268.947 194.858 268.947 194.408V194.249C268.947 193.018 269.437 191.836 270.308 190.965C271.179 190.094 272.36 189.605 273.592 189.605H306.769V196.103Z" fill="#E6E6E6"/>
<path d="M303.917 248.5C303.741 248.504 303.569 248.446 303.431 248.337C303.293 248.228 303.197 248.074 303.16 247.902L292.57 196.859H274.114L263.524 247.902C263.483 248.103 263.363 248.279 263.193 248.392C263.022 248.505 262.813 248.545 262.612 248.504C262.412 248.463 262.236 248.343 262.123 248.172C262.01 248.002 261.97 247.793 262.011 247.592L272.737 195.951C272.772 195.778 272.867 195.622 273.006 195.512C273.144 195.401 273.316 195.343 273.493 195.346H293.16C293.337 195.343 293.51 195.401 293.648 195.512C293.786 195.622 293.881 195.778 293.917 195.951L304.635 247.592C304.676 247.788 304.637 247.991 304.528 248.158C304.419 248.326 304.248 248.443 304.053 248.485C304.008 248.495 303.962 248.5 303.917 248.5Z" fill="#E6E6E6"/>
<path d="M292.411 248.5C292.361 248.507 292.31 248.507 292.26 248.5C292.163 248.48 292.07 248.441 291.988 248.386C291.906 248.33 291.835 248.259 291.78 248.176C291.725 248.093 291.687 248 291.669 247.903C291.65 247.805 291.65 247.705 291.67 247.607L302.396 195.966C302.432 195.793 302.527 195.637 302.665 195.527C302.803 195.416 302.976 195.358 303.153 195.361H322.82C322.997 195.358 323.169 195.416 323.307 195.527C323.446 195.637 323.541 195.793 323.576 195.966L334.295 247.607C334.315 247.707 334.315 247.809 334.296 247.909C334.277 248.008 334.238 248.103 334.183 248.188C334.127 248.272 334.055 248.345 333.971 248.402C333.887 248.459 333.792 248.498 333.693 248.519C333.594 248.539 333.491 248.54 333.392 248.521C333.292 248.501 333.197 248.463 333.113 248.407C333.028 248.351 332.955 248.279 332.899 248.195C332.842 248.111 332.802 248.017 332.782 247.917L322.192 196.874H303.72L293.13 247.917C293.092 248.08 293 248.226 292.87 248.331C292.74 248.437 292.579 248.496 292.411 248.5Z" fill="#E6E6E6"/>
<path d="M189.5 281.813C270.5 281.813 336.163 277.979 336.163 273.25C336.163 268.521 270.5 264.687 189.5 264.687C108.501 264.687 42.8374 268.521 42.8374 273.25C42.8374 277.979 108.501 281.813 189.5 281.813Z" fill="#F5F5F5"/>
<path d="M202.442 266.261C202.205 266.26 201.976 266.178 201.792 266.027C201.609 265.877 201.483 265.668 201.436 265.436L187.064 194.665H162.034L147.662 265.436C147.594 265.688 147.432 265.905 147.209 266.042C146.987 266.179 146.721 266.226 146.465 266.174C146.209 266.123 145.982 265.975 145.831 265.762C145.679 265.549 145.615 265.286 145.65 265.028L160.188 193.432C160.237 193.201 160.363 192.992 160.546 192.842C160.729 192.692 160.958 192.61 161.195 192.608H187.896C188.133 192.608 188.363 192.69 188.546 192.841C188.729 192.991 188.855 193.2 188.902 193.432L203.448 265.028C203.502 265.294 203.448 265.571 203.297 265.798C203.147 266.025 202.913 266.183 202.646 266.238L202.442 266.261Z" fill="#407BFF"/>
<path d="M162.269 266.261C162.032 266.259 161.803 266.176 161.62 266.026C161.437 265.876 161.311 265.668 161.263 265.436L146.891 194.665H121.861L107.488 265.436C107.47 265.575 107.422 265.71 107.349 265.83C107.276 265.95 107.18 266.054 107.065 266.136C106.95 266.217 106.82 266.275 106.682 266.304C106.545 266.333 106.402 266.333 106.264 266.305C106.127 266.277 105.996 266.221 105.88 266.141C105.765 266.06 105.667 265.957 105.594 265.837C105.52 265.717 105.471 265.584 105.451 265.445C105.431 265.305 105.44 265.163 105.476 265.028L120.022 193.432C120.069 193.2 120.195 192.991 120.379 192.841C120.562 192.69 120.791 192.608 121.028 192.608H147.73C147.966 192.608 148.195 192.691 148.377 192.841C148.559 192.992 148.683 193.2 148.729 193.432L163.275 265.028C163.328 265.294 163.274 265.571 163.124 265.798C162.973 266.025 162.739 266.183 162.473 266.238L162.269 266.261Z" fill="#407BFF"/>
<path d="M167.889 193.644H121.899C117.677 193.645 113.624 191.991 110.609 189.036C107.593 186.082 105.857 182.063 105.772 177.842L104.062 107.949C104.03 106.387 104.31 104.834 104.885 103.381C105.461 101.928 106.32 100.605 107.413 99.4882C108.507 98.3717 109.812 97.4846 111.252 96.8787C112.692 96.2728 114.239 95.9604 115.802 95.9597H144.637C147.522 95.9616 150.307 97.0249 152.459 98.9471C154.611 100.869 155.981 103.516 156.308 106.383L167.889 193.644Z" fill="#407BFF"/>
<path d="M142.806 184.794H187.813C189.484 184.794 191.087 185.458 192.269 186.639C193.45 187.821 194.114 189.424 194.114 191.095V191.314C194.114 191.916 193.875 192.493 193.45 192.919C193.024 193.345 192.447 193.584 191.845 193.584H142.806V184.794Z" fill="#407BFF"/>
<g opacity="0.3">
<path d="M202.442 266.261C202.205 266.26 201.976 266.178 201.792 266.027C201.609 265.877 201.483 265.668 201.436 265.436L187.064 194.665H162.034L147.662 265.436C147.594 265.688 147.432 265.905 147.209 266.042C146.987 266.179 146.721 266.226 146.465 266.174C146.209 266.123 145.982 265.975 145.831 265.762C145.679 265.549 145.615 265.286 145.65 265.028L160.188 193.432C160.237 193.201 160.363 192.992 160.546 192.842C160.729 192.692 160.958 192.61 161.195 192.608H187.896C188.133 192.608 188.363 192.69 188.546 192.841C188.729 192.991 188.855 193.2 188.902 193.432L203.448 265.028C203.502 265.294 203.448 265.571 203.297 265.798C203.147 266.025 202.913 266.183 202.646 266.238L202.442 266.261Z" fill="black"/>
<path d="M162.269 266.261C162.032 266.259 161.803 266.176 161.62 266.026C161.437 265.876 161.311 265.668 161.263 265.436L146.891 194.665H121.861L107.488 265.436C107.47 265.575 107.422 265.71 107.349 265.83C107.276 265.95 107.18 266.054 107.065 266.136C106.95 266.217 106.82 266.275 106.682 266.304C106.545 266.333 106.402 266.333 106.264 266.305C106.127 266.277 105.996 266.221 105.88 266.141C105.765 266.06 105.667 265.957 105.594 265.837C105.52 265.717 105.471 265.584 105.451 265.445C105.431 265.305 105.44 265.163 105.476 265.028L120.022 193.432C120.069 193.2 120.195 192.991 120.379 192.841C120.562 192.69 120.791 192.608 121.028 192.608H147.73C147.966 192.608 148.195 192.691 148.377 192.841C148.559 192.992 148.683 193.2 148.729 193.432L163.275 265.028C163.328 265.294 163.274 265.571 163.124 265.798C162.973 266.025 162.739 266.183 162.473 266.238L162.269 266.261Z" fill="black"/>
<path d="M167.889 193.644H121.899C117.677 193.645 113.624 191.991 110.609 189.036C107.593 186.082 105.857 182.063 105.772 177.842L104.062 107.949C104.03 106.387 104.31 104.834 104.885 103.381C105.461 101.928 106.32 100.605 107.413 99.4882C108.507 98.3717 109.812 97.4846 111.252 96.8787C112.692 96.2728 114.239 95.9604 115.802 95.9597H144.637C147.522 95.9616 150.307 97.0249 152.459 98.9471C154.611 100.869 155.981 103.516 156.308 106.383L167.889 193.644Z" fill="black"/>
<path d="M142.806 184.794H187.813C189.484 184.794 191.087 185.458 192.269 186.639C193.45 187.821 194.114 189.424 194.114 191.095V191.314C194.114 191.916 193.875 192.493 193.45 192.919C193.024 193.345 192.447 193.584 191.845 193.584H142.806V184.794Z" fill="black"/>
</g>
<path d="M155.091 92.102C155.091 92.102 161.52 100.498 157.36 117.215C153.2 133.932 131.732 124.855 130.431 109.787C128.919 92.0264 148.858 104.273 152.368 88.4788L155.091 92.102Z" fill="#263238"/>
<path d="M150.423 87.1171C147.632 89.0838 146.528 91.943 149.614 94.7418C152.7 97.5406 157.102 97.4498 158.434 96.3C159.765 95.1503 159.5 89.3107 159.5 89.3107L150.423 87.1171Z" fill="#407BFF"/>
<path opacity="0.8" d="M150.423 87.1171C147.632 89.0838 146.528 91.943 149.614 94.7418C152.7 97.5406 157.102 97.4498 158.434 96.3C159.765 95.1503 159.5 89.3107 159.5 89.3107L150.423 87.1171Z" fill="white"/>
<path d="M185.673 124.326C185.748 124.666 185.877 125.196 185.998 125.642L186.361 127.064C186.618 128.017 186.898 128.97 187.193 129.923C187.753 131.845 188.373 133.758 189.024 135.672C189.674 137.586 190.34 139.454 191.066 141.391C191.422 142.336 191.777 143.289 192.155 144.235L192.594 145.369C192.682 145.563 192.796 145.744 192.934 145.906C194.011 146.995 195.323 147.823 196.77 148.327C198.536 149.038 200.358 149.605 202.216 150.021C204.137 150.468 206.111 150.838 208.108 151.148C210.105 151.459 212.155 151.708 214.122 151.905L214.19 155.974C209.875 156.421 205.525 156.421 201.21 155.974C198.954 155.742 196.724 155.309 194.546 154.681C193.366 154.325 192.217 153.872 191.112 153.327C189.839 152.708 188.674 151.888 187.662 150.899C187.075 150.314 186.567 149.656 186.149 148.94C186.036 148.758 185.938 148.554 185.832 148.365L185.635 147.956L185.287 147.2C184.818 146.239 184.349 145.279 183.918 144.303C183.04 142.351 182.186 140.385 181.422 138.38C180.658 136.375 179.909 134.356 179.274 132.329C178.963 131.285 178.661 130.248 178.381 129.182L177.965 127.586C177.844 127.011 177.73 126.534 177.609 125.854L185.673 124.326Z" fill="#E58A7B"/>
<path d="M183.101 115.733C186.346 116.557 188.607 129.9 188.607 129.9L179.674 135.952C179.674 135.952 171.104 122.488 173.623 118.925C176.202 115.264 178.365 114.553 183.101 115.733Z" fill="#407BFF"/>
<path opacity="0.5" d="M183.101 115.733C186.346 116.557 188.607 129.9 188.607 129.9L179.674 135.952C179.674 135.952 171.104 122.488 173.623 118.925C176.202 115.264 178.365 114.553 183.101 115.733Z" fill="white"/>
<path opacity="0.2" d="M181.936 119.091L174.167 125.248C175.68 128.989 177.521 132.588 179.667 136.005L185.862 131.791L181.936 119.091Z" fill="#407BFF"/>
<path d="M183.101 115.733C183.101 115.733 186.883 117.049 179.319 163.213H147.383C147.92 150.21 147.935 142.192 141.725 115.498C146.197 114.577 150.729 113.98 155.287 113.713C160.12 113.368 164.971 113.368 169.803 113.713C176.036 114.311 183.101 115.733 183.101 115.733Z" fill="#407BFF"/>
<path opacity="0.5" d="M183.101 115.733C183.101 115.733 186.883 117.049 179.319 163.213H147.383C147.92 150.21 147.935 142.192 141.725 115.498C146.197 114.577 150.729 113.98 155.287 113.713C160.12 113.368 164.971 113.368 169.803 113.713C176.036 114.311 183.101 115.733 183.101 115.733Z" fill="white"/>
<path d="M212.949 151.867L218.524 146.209L219.281 154.181C219.281 154.181 215.098 157.01 212.208 155.49L212.949 151.867Z" fill="#E58A7B"/>
<path d="M225.105 145.369L225.354 152.071L219.273 154.181L218.539 146.209L225.105 145.369Z" fill="#E58A7B"/>
<path d="M215.566 258.923H223.433L224.643 240.701H216.777L215.566 258.923Z" fill="#E58A7B"/>
<path d="M185.121 258.923H192.987L195.514 240.701H187.647L185.121 258.923Z" fill="#E58A7B"/>
<path d="M193.479 258.008H184.636C184.484 258.005 184.336 258.058 184.22 258.157C184.104 258.256 184.029 258.394 184.009 258.545L183.003 265.542C182.985 265.719 183.004 265.897 183.059 266.066C183.114 266.235 183.205 266.39 183.324 266.522C183.443 266.654 183.588 266.76 183.75 266.832C183.913 266.904 184.088 266.941 184.266 266.942C187.344 266.889 188.804 266.707 192.715 266.707C195.105 266.707 201.24 266.957 204.546 266.957C207.851 266.957 208.025 263.689 206.648 263.394C200.484 262.063 196.868 260.24 194.788 258.492C194.423 258.181 193.959 258.009 193.479 258.008Z" fill="#263238"/>
<path d="M224.046 258.008H215.219C215.067 258.006 214.919 258.06 214.804 258.159C214.688 258.258 214.613 258.395 214.591 258.545L213.585 265.542C213.567 265.719 213.586 265.897 213.641 266.066C213.697 266.235 213.787 266.39 213.906 266.522C214.025 266.654 214.17 266.759 214.332 266.832C214.495 266.904 214.67 266.941 214.848 266.941C217.927 266.888 219.386 266.707 223.297 266.707C225.695 266.707 230.634 266.957 233.94 266.957C237.246 266.957 237.42 263.689 236.043 263.394C229.878 262.063 227.45 260.24 225.377 258.492C225.005 258.178 224.533 258.006 224.046 258.008Z" fill="#263238"/>
<path d="M176.83 81.4818C179.659 81.6634 181.096 95.8538 172.798 95.0293C164.5 94.2048 176.83 81.4818 176.83 81.4818Z" fill="#263238"/>
<path d="M224.644 240.701L224.016 250.096H216.149L216.769 240.701H224.644Z" fill="#CF6F64"/>
<path d="M187.647 240.701H195.521L194.213 250.096H186.338L187.647 240.701Z" fill="#CF6F64"/>
<path opacity="0.2" d="M144.917 130.339C145.673 134.212 146.21 137.555 146.618 140.566L148.487 126.111L144.917 130.339Z" fill="#407BFF"/>
<path d="M156.724 97.4044C157.64 102.072 158.555 110.627 155.287 113.743C155.287 113.743 156.565 118.478 165.242 118.478C174.78 118.478 169.78 113.743 169.78 113.743C164.568 112.503 164.705 108.637 165.612 105.014L156.724 97.4044Z" fill="#E58A7B"/>
<path d="M163.517 119.492L166.422 118.448L166.036 117.654L163.517 119.492Z" fill="#263238"/>
<path d="M169.153 118.887L166.422 118.448L167.012 117.563L169.153 118.887Z" fill="#263238"/>
<path d="M156.346 111.542L154.372 113.463C154.312 113.524 154.279 113.605 154.279 113.69C154.279 113.775 154.312 113.856 154.372 113.917L162.692 123.395C163.088 121.144 164.293 119.116 166.081 117.692C159.198 115.09 157.405 112.397 156.792 111.64C156.778 111.596 156.752 111.557 156.718 111.526C156.684 111.495 156.642 111.473 156.597 111.463C156.552 111.453 156.505 111.455 156.461 111.469C156.417 111.483 156.377 111.508 156.346 111.542Z" fill="#407BFF"/>
<path d="M168.237 112.994L170.688 113.66C170.761 113.68 170.828 113.72 170.881 113.774C170.934 113.829 170.972 113.896 170.99 113.97C171.683 117.079 171.552 120.314 170.612 123.357C170.264 122.071 169.099 118.993 167.012 117.563C169.281 115.997 168.366 113.978 168.04 113.214C168.03 113.185 168.027 113.154 168.033 113.125C168.039 113.095 168.052 113.067 168.073 113.045C168.093 113.022 168.119 113.005 168.148 112.997C168.177 112.988 168.208 112.987 168.237 112.994Z" fill="#407BFF"/>
<path d="M160.363 100.506L165.658 105.006C165.438 105.85 165.288 106.71 165.211 107.578C163.222 107.291 160.491 105.112 160.28 103.04C160.15 102.197 160.178 101.338 160.363 100.506Z" fill="#CF6F64"/>
<path d="M156.218 85.105C155.318 92.8583 154.765 96.1261 157.942 100.755C162.708 107.722 172.435 107.132 175.635 99.8023C178.517 93.2063 179.5 81.6482 172.541 77.2307C171.01 76.2535 169.255 75.684 167.442 75.5764C165.629 75.4687 163.819 75.8263 162.183 76.6154C160.548 77.4045 159.141 78.5987 158.097 80.0846C157.053 81.5705 156.406 83.2987 156.218 85.105Z" fill="#E58A7B"/>
<path d="M173.948 72.2987C161.127 67.2383 151.497 72.9492 149.508 81.0657C146.384 93.6677 156.361 94.5527 156.361 94.5527L157.609 91.3303C159.402 92.412 164.417 91.9354 162.904 82.5785C162.012 77.2835 168.714 84.6587 177.216 83.8342C179.477 83.6148 182.571 75.7026 173.948 72.2987Z" fill="#263238"/>
<path d="M178.313 75.4152C176.626 72.8207 173.177 70.5968 166.028 69.5454C166.028 69.5454 169.742 70.385 170.945 73.1006C172.148 75.8162 180.347 78.5393 178.313 75.4152Z" fill="#263238"/>
<path d="M153.752 91.8145C153.699 92.5601 153.795 93.3088 154.032 94.0175C154.27 94.7262 154.645 95.3811 155.136 95.9446C156.46 97.4574 158.199 96.527 158.744 94.7116C159.228 93.0702 159.13 90.3168 157.36 89.4847C155.59 88.6527 153.895 89.9688 153.752 91.8145Z" fill="#E58A7B"/>
<path d="M179.341 163.243C179.341 163.243 232.094 168.153 231.58 192.139C231.043 217.101 225.703 248.28 225.703 248.28H214.802C214.802 248.28 213.872 221.896 213.554 197.32C213.396 184.522 162.42 181.957 162.42 181.957L155.839 163.243H179.341Z" fill="#263238"/>
<path d="M170.9 163.243C170.9 163.243 204.992 174.552 205.854 188.546C207.435 214.309 196.111 248.303 196.111 248.303H185.377C185.377 248.303 185.99 225.762 187.269 202.419C188.887 173.084 137.133 202.01 147.382 163.266L170.9 163.243Z" fill="#263238"/>
<path d="M167.435 89.3334C167.322 89.9537 167.564 90.521 167.972 90.5967C168.381 90.6723 168.797 90.2185 168.91 89.5982C169.024 88.9779 168.782 88.403 168.373 88.335C167.965 88.2669 167.564 88.7056 167.435 89.3334Z" fill="#263238"/>
<path d="M174.493 90.5966C174.379 91.2169 174.621 91.7842 175.03 91.8599C175.438 91.9355 175.862 91.4816 175.975 90.8614C176.089 90.2411 175.847 89.6662 175.438 89.5981C175.03 89.5301 174.606 89.9688 174.493 90.5966Z" fill="#263238"/>
<path d="M175.249 89.5982L176.83 89.4318C176.83 89.4318 175.884 90.4681 175.249 89.5982Z" fill="#263238"/>
<path d="M172.435 91.3303C172.738 92.8547 173.247 94.3306 173.948 95.7176C173.592 95.8798 173.205 95.9637 172.813 95.9637C172.422 95.9637 172.035 95.8798 171.679 95.7176L172.435 91.3303Z" fill="#DF5753"/>
<path d="M169.076 97.7373C168.246 97.6057 167.459 97.2802 166.778 96.7874C166.098 96.2945 165.542 95.6482 165.158 94.9007C165.145 94.8716 165.145 94.8386 165.156 94.8089C165.167 94.7792 165.19 94.7551 165.219 94.7419C165.249 94.7315 165.282 94.7327 165.311 94.7453C165.341 94.7578 165.364 94.7809 165.378 94.81C165.741 95.5163 166.265 96.1278 166.907 96.5954C167.55 97.063 168.293 97.3737 169.076 97.5028C169.108 97.5101 169.135 97.5289 169.154 97.5555C169.172 97.5821 169.179 97.6146 169.175 97.6465C169.169 97.6697 169.157 97.6906 169.139 97.7068C169.122 97.7229 169.1 97.7335 169.076 97.7373Z" fill="#263238"/>
<path d="M165.779 86.5422C165.746 86.5435 165.713 86.5373 165.683 86.5242C165.653 86.5111 165.626 86.4914 165.605 86.4666C165.582 86.4454 165.564 86.4196 165.551 86.391C165.539 86.3623 165.532 86.3314 165.532 86.3002C165.532 86.2689 165.539 86.238 165.551 86.2094C165.564 86.1808 165.582 86.155 165.605 86.1338C166.012 85.7356 166.509 85.4412 167.054 85.2754C167.599 85.1095 168.176 85.077 168.736 85.1807C168.796 85.1983 168.846 85.2379 168.877 85.2914C168.908 85.3448 168.917 85.408 168.903 85.4681C168.896 85.4986 168.883 85.5274 168.864 85.5528C168.846 85.5781 168.823 85.5995 168.796 85.6158C168.769 85.632 168.739 85.6427 168.708 85.6472C168.677 85.6517 168.646 85.65 168.615 85.6421C168.132 85.5567 167.635 85.5884 167.167 85.7345C166.698 85.8805 166.272 86.1368 165.923 86.4817C165.882 86.5163 165.832 86.5374 165.779 86.5422Z" fill="#263238"/>
<path d="M178.35 87.7829C178.303 87.7846 178.257 87.7716 178.218 87.7459C178.179 87.7202 178.148 87.6829 178.131 87.6392C177.946 87.1851 177.657 86.7812 177.286 86.4605C176.915 86.1397 176.474 85.9112 175.998 85.7935C175.936 85.7824 175.881 85.7478 175.845 85.697C175.808 85.6462 175.792 85.5832 175.801 85.5212C175.812 85.458 175.848 85.4018 175.9 85.3649C175.953 85.3281 176.018 85.3135 176.081 85.3245C176.635 85.4529 177.15 85.7131 177.582 86.0832C178.014 86.4533 178.35 86.9222 178.562 87.45C178.588 87.5083 178.589 87.5743 178.567 87.6337C178.544 87.6932 178.499 87.7413 178.441 87.7677L178.35 87.7829Z" fill="#263238"/>
<path d="M146.497 126.912C145.809 129.182 145.068 131.451 144.41 133.781C143.752 136.11 143.056 138.38 142.458 140.687C141.861 142.994 141.293 145.278 140.87 147.495C140.665 148.614 140.476 149.726 140.37 150.77C140.31 151.292 140.28 151.784 140.272 152.237C140.272 152.343 140.272 152.237 140.196 152.063C140.104 151.858 139.976 151.671 139.818 151.511C139.432 151.178 139.289 151.239 139.463 151.292C139.779 151.369 140.105 151.402 140.431 151.39C141.449 151.355 142.462 151.226 143.457 151.004C145.71 150.508 147.93 149.874 150.106 149.106C154.576 147.593 159.115 145.747 163.532 143.864L165.484 147.427C161.293 150.174 156.912 152.621 152.375 154.749C150.025 155.857 147.602 156.8 145.121 157.57C143.74 157.991 142.321 158.277 140.885 158.425C139.988 158.517 139.083 158.494 138.192 158.357C137.601 158.268 137.023 158.103 136.475 157.865C135.766 157.559 135.124 157.117 134.584 156.564C133.535 155.459 132.934 154.003 132.897 152.479C132.859 151.723 132.852 150.967 132.897 150.286C132.95 148.886 133.079 147.563 133.253 146.269C133.616 143.682 134.085 141.186 134.659 138.705C135.234 136.224 135.847 133.826 136.52 131.421C137.193 129.015 137.92 126.655 138.79 124.25L146.497 126.912Z" fill="#E58A7B"/>
<path d="M196.172 259.332C195.475 259.315 194.782 259.218 194.107 259.044C194.082 259.04 194.058 259.027 194.04 259.009C194.022 258.991 194.01 258.968 194.005 258.943C194 258.917 194.003 258.891 194.013 258.868C194.023 258.844 194.04 258.824 194.062 258.81C194.326 258.636 196.686 257.108 197.586 257.509C197.681 257.552 197.762 257.619 197.82 257.705C197.879 257.79 197.913 257.89 197.919 257.993C197.957 258.161 197.95 258.336 197.9 258.5C197.849 258.665 197.757 258.813 197.632 258.931C197.208 259.232 196.691 259.374 196.172 259.332ZM194.47 258.863C195.93 259.165 197.027 259.128 197.45 258.734C197.542 258.645 197.61 258.533 197.647 258.41C197.684 258.287 197.689 258.156 197.662 258.031C197.659 257.971 197.64 257.914 197.607 257.864C197.573 257.815 197.527 257.776 197.473 257.751C196.898 257.494 195.302 258.349 194.47 258.863Z" fill="#407BFF"/>
<path d="M194.137 259.052H194.069C194.047 259.04 194.03 259.022 194.018 259.001C194.006 258.98 194 258.956 194.001 258.931C194.001 258.84 194.001 256.601 194.848 255.86C194.947 255.765 195.067 255.694 195.198 255.653C195.33 255.613 195.469 255.603 195.604 255.626C195.74 255.624 195.873 255.67 195.979 255.756C196.085 255.841 196.159 255.961 196.187 256.095C196.345 256.911 195.029 258.583 194.205 259.052H194.137ZM195.468 255.86C195.301 255.861 195.142 255.926 195.022 256.042C194.424 256.571 194.303 258.069 194.265 258.666C195.022 258.122 196.035 256.745 195.907 256.132C195.907 256.034 195.831 255.905 195.559 255.868L195.468 255.86Z" fill="#407BFF"/>
<path d="M227.004 259.332C226.172 259.313 225.344 259.22 224.53 259.052C224.503 259.045 224.479 259.031 224.46 259.011C224.442 258.991 224.429 258.965 224.424 258.938C224.42 258.911 224.425 258.882 224.439 258.858C224.453 258.833 224.474 258.814 224.5 258.802C224.848 258.621 227.957 257.032 228.902 257.547C228.984 257.592 229.054 257.657 229.104 257.737C229.154 257.816 229.184 257.907 229.19 258C229.211 258.158 229.193 258.318 229.138 258.468C229.082 258.617 228.991 258.75 228.872 258.855C228.322 259.223 227.662 259.391 227.004 259.332ZM224.969 258.863C225.982 259.037 227.994 259.286 228.69 258.666C228.777 258.585 228.844 258.484 228.885 258.373C228.925 258.261 228.939 258.141 228.925 258.023C228.924 257.972 228.91 257.922 228.883 257.878C228.857 257.834 228.819 257.798 228.774 257.774C228.153 257.441 226.066 258.326 224.969 258.863Z" fill="#407BFF"/>
<path d="M224.56 259.052C224.536 259.059 224.509 259.059 224.485 259.052C224.466 259.037 224.451 259.019 224.441 258.998C224.431 258.977 224.425 258.954 224.424 258.931C224.424 258.84 224.613 256.745 225.582 255.905C225.717 255.79 225.875 255.703 226.046 255.651C226.216 255.599 226.395 255.582 226.573 255.603C227.057 255.648 227.193 255.89 227.231 256.079C227.367 256.949 225.536 258.613 224.613 259.029L224.56 259.052ZM226.429 255.86C226.18 255.859 225.94 255.95 225.756 256.117C225.045 256.707 224.795 258.121 224.719 258.689C225.71 258.137 227.064 256.714 226.989 256.132C226.989 256.072 226.989 255.905 226.573 255.867L226.429 255.86Z" fill="#407BFF"/>
<path d="M163.351 143.985L170.809 142.094L167.254 149.257C167.254 149.257 162.209 149.477 160.544 146.663L163.351 143.985Z" fill="#E58A7B"/>
<path d="M176.838 144.81L173.54 150.649L167.254 149.257L170.809 142.094L176.838 144.81Z" fill="#E58A7B"/>
<path d="M168.184 88.3349L169.765 88.1685C169.765 88.1685 168.789 89.2048 168.184 88.3349Z" fill="#263238"/>
<path d="M146.906 161.367L146.649 164.227C146.543 164.454 146.8 164.681 147.17 164.681H179.5C179.787 164.681 180.022 164.537 180.045 164.355L180.332 161.496C180.332 161.299 180.098 161.133 179.787 161.133H147.428C147.328 161.125 147.228 161.142 147.136 161.183C147.045 161.224 146.966 161.287 146.906 161.367Z" fill="#407BFF"/>
<path d="M151.256 164.991H150.386C150.212 164.991 150.083 164.9 150.091 164.794L150.499 161.073C150.499 160.967 150.666 160.876 150.84 160.876H151.679C151.853 160.876 151.982 160.967 151.974 161.073L151.566 164.794C151.573 164.9 151.422 164.991 151.256 164.991Z" fill="#263238"/>
<path d="M177.065 164.991H176.195C176.021 164.991 175.892 164.9 175.9 164.794L176.308 161.073C176.308 160.967 176.475 160.876 176.649 160.876H177.511C177.685 160.876 177.813 160.967 177.806 161.073L177.397 164.794C177.397 164.9 177.231 164.991 177.065 164.991Z" fill="#263238"/>
<path d="M164.16 164.991H163.29C163.116 164.991 162.987 164.9 162.995 164.794L163.403 161.073C163.403 160.967 163.57 160.876 163.744 160.876H164.606C164.78 160.876 164.909 160.967 164.901 161.073L164.493 164.794C164.478 164.9 164.334 164.991 164.16 164.991Z" fill="#263238"/>
<path d="M141.725 115.528C138.517 116.504 134.675 127.525 134.675 127.525L145 137.608C145 137.608 151.626 127.208 150.295 123.07C148.88 118.758 145.378 114.424 141.725 115.528Z" fill="#407BFF"/>
<path opacity="0.5" d="M141.725 115.528C138.517 116.504 134.675 127.525 134.675 127.525L145 137.608C145 137.608 151.626 127.208 150.295 123.07C148.88 118.758 145.378 114.424 141.725 115.528Z" fill="white"/>
<path d="M313.296 155.384H253.115V272.441H313.296V155.384Z" fill="#407BFF"/>
<path opacity="0.6" d="M313.296 155.384H253.115V272.441H313.296V155.384Z" fill="white"/>
<path d="M196.709 155.384H136.528V272.441H196.709V155.384Z" fill="#407BFF"/>
<path opacity="0.6" d="M196.709 155.384H136.528V272.441H196.709V155.384Z" fill="white"/>
<path d="M315.55 155.384H310.588V272.441H315.55V155.384Z" fill="#407BFF"/>
<path opacity="0.3" d="M315.55 155.384H310.588V272.441H315.55V155.384Z" fill="black"/>
<path d="M197.427 164.166L317.086 164.166V155.384H197.427V164.166Z" fill="#407BFF"/>
<path opacity="0.3" d="M197.427 164.166L317.086 164.166V155.384H197.427V164.166Z" fill="black"/>
<path d="M198.97 155.384H194.008V272.441H198.97V155.384Z" fill="#407BFF"/>
<path opacity="0.3" d="M198.97 155.384H194.008V272.441H198.97V155.384Z" fill="black"/>
<path d="M197.14 183.387H313.069V158.1H197.14V183.387Z" fill="#407BFF"/>
<path opacity="0.3" d="M197.14 183.387H313.069V158.1H197.14V183.387Z" fill="black"/>
<path d="M313.326 275.845H279.915C277.647 275.843 275.472 274.941 273.868 273.337C272.264 271.733 271.362 269.558 271.36 267.289V161.874C271.36 159.868 270.563 157.944 269.145 156.526C267.726 155.107 265.802 154.31 263.796 154.31H253.796V153.554H263.788C265.995 153.554 268.111 154.43 269.672 155.991C271.232 157.551 272.109 159.668 272.109 161.874V267.289C272.111 269.357 272.933 271.34 274.395 272.802C275.857 274.264 277.84 275.086 279.908 275.088H313.326C313.895 275.089 314.45 274.911 314.911 274.578C315.372 274.245 315.717 273.776 315.895 273.236C316.074 272.696 316.077 272.113 315.905 271.571C315.733 271.029 315.395 270.555 314.938 270.217L315.384 269.612C315.968 270.045 316.4 270.651 316.619 271.344C316.839 272.037 316.834 272.781 316.607 273.471C316.379 274.161 315.939 274.762 315.35 275.188C314.761 275.614 314.053 275.844 313.326 275.845Z" fill="#407BFF"/>
<path opacity="0.3" d="M313.326 275.845H279.915C277.647 275.843 275.472 274.941 273.868 273.337C272.264 271.733 271.362 269.558 271.36 267.289V161.874C271.36 159.868 270.563 157.944 269.145 156.526C267.726 155.107 265.802 154.31 263.796 154.31H253.796V153.554H263.788C265.995 153.554 268.111 154.43 269.672 155.991C271.232 157.551 272.109 159.668 272.109 161.874V267.289C272.111 269.357 272.933 271.34 274.395 272.802C275.857 274.264 277.84 275.086 279.908 275.088H313.326C313.895 275.089 314.45 274.911 314.911 274.578C315.372 274.245 315.717 273.776 315.895 273.236C316.074 272.696 316.077 272.113 315.905 271.571C315.733 271.029 315.395 270.555 314.938 270.217L315.384 269.612C315.968 270.045 316.4 270.651 316.619 271.344C316.839 272.037 316.834 272.781 316.607 273.471C316.379 274.161 315.939 274.762 315.35 275.188C314.761 275.614 314.053 275.844 313.326 275.845Z" fill="black"/>
<path d="M318.198 189.922H317.441V204.544H318.198V189.922Z" fill="#407BFF"/>
<path opacity="0.3" d="M318.198 189.922H317.441V204.544H318.198V189.922Z" fill="black"/>
<path d="M318.198 181.292H317.441V185.134H318.198V181.292Z" fill="#407BFF"/>
<path opacity="0.3" d="M318.198 181.292H317.441V185.134H318.198V181.292Z" fill="black"/>
<path d="M262.797 120.438H206.716L198.592 153.554H254.666L262.797 120.438Z" fill="#407BFF"/>
<path opacity="0.4" d="M262.797 120.438H206.716L198.592 153.554H254.666L262.797 120.438Z" fill="white"/>
<path d="M200.309 153.554L200.082 155.384H178.078L178.305 153.554H200.309Z" fill="#407BFF"/>
<path opacity="0.4" d="M200.309 153.554L200.082 155.384H178.078L178.305 153.554H200.309Z" fill="white"/>
<path d="M256.391 153.554L256.164 155.384H200.083L200.309 153.554H256.391Z" fill="#407BFF"/>
<path opacity="0.5" d="M256.391 153.554L256.164 155.384H200.083L200.309 153.554H256.391Z" fill="black"/>
<path d="M264.522 120.438H208.441L200.317 153.554H256.39L264.522 120.438Z" fill="#407BFF"/>
<path opacity="0.5" d="M264.522 120.438H208.441L200.317 153.554H256.39L264.522 120.438Z" fill="black"/>
<path d="M286.178 147.041C286.178 147.041 277.926 132.813 289.348 121.489C289.348 121.489 292.336 123.441 292.29 126.028C292.245 128.615 289.091 129.31 289.764 131.489C290.437 133.667 293.425 135.823 291.466 137.631C289.507 139.439 291.784 141.043 291.647 143.251C291.511 145.46 286.178 147.041 286.178 147.041Z" fill="#407BFF"/>
<path d="M286.806 148.342C286.806 148.342 290.149 132.238 275.717 125.105C275.717 125.105 273.493 127.896 274.363 130.4C275.233 132.903 278.432 132.503 278.478 134.795C278.523 137.086 276.375 140.052 278.803 141.148C281.231 142.245 279.56 144.492 280.399 146.549C281.239 148.607 286.806 148.342 286.806 148.342Z" fill="#407BFF"/>
<path opacity="0.5" d="M286.806 148.342C286.806 148.342 290.149 132.238 275.717 125.105C275.717 125.105 273.493 127.896 274.363 130.4C275.233 132.903 278.432 132.503 278.478 134.795C278.523 137.086 276.375 140.052 278.803 141.148C281.231 142.245 279.56 144.492 280.399 146.549C281.239 148.607 286.806 148.342 286.806 148.342Z" fill="black"/>
<path d="M274.159 144.772C274.159 144.772 274.439 155.362 284.961 155.362C295.483 155.362 295.755 144.772 295.755 144.772H274.159Z" fill="#407BFF"/>
<path opacity="0.5" d="M274.159 144.772C274.159 144.772 274.439 155.362 284.961 155.362C295.483 155.362 295.755 144.772 295.755 144.772H274.159Z" fill="black"/>
<path d="M217.601 75.385L208.615 63.7739L199.628 75.385H203.857V90.4151H213.373V75.385H217.601Z" fill="#407BFF"/>
<path d="M243.962 89.0385C243.962 83.4212 246.194 78.0341 250.166 74.0621C254.138 70.0901 259.525 67.8586 265.142 67.8586V73.373C263.086 73.372 261.05 73.776 259.151 74.5621C257.251 75.3482 255.525 76.5008 254.071 77.9542C252.617 79.4075 251.463 81.1332 250.676 83.0325C249.889 84.9317 249.484 86.9675 249.484 89.0233L243.962 89.0385Z" fill="#407BFF"/>
<path d="M243.962 89.0386H249.484C249.484 93.1913 251.134 97.174 254.07 100.11C257.007 103.047 260.989 104.697 265.142 104.697C267.89 104.702 270.589 103.976 272.964 102.594L275.732 107.412C272.512 109.271 268.86 110.25 265.142 110.25C261.424 110.25 257.772 109.271 254.552 107.412C251.332 105.553 248.658 102.879 246.8 99.6591C244.941 96.4392 243.962 92.7867 243.962 89.0688V89.0386Z" fill="#407BFF"/>
<path opacity="0.5" d="M243.962 89.0386H249.484C249.484 93.1913 251.134 97.174 254.07 100.11C257.007 103.047 260.989 104.697 265.142 104.697C267.89 104.702 270.589 103.976 272.964 102.594L275.732 107.412C272.512 109.271 268.86 110.25 265.142 110.25C261.424 110.25 257.772 109.271 254.552 107.412C251.332 105.553 248.658 102.879 246.8 99.6591C244.941 96.4392 243.962 92.7867 243.962 89.0688V89.0386Z" fill="white"/>
<path d="M265.142 73.373V67.8435C269.819 67.8257 274.371 69.3566 278.087 72.1974C281.803 75.0382 284.474 79.0292 285.683 83.5475C286.892 88.0658 286.572 92.8573 284.772 97.1744C282.971 101.491 279.793 105.091 275.732 107.412L272.971 102.624C275.978 100.912 278.334 98.251 279.668 95.058C281.002 91.865 281.241 88.3197 280.346 84.9767C279.451 81.6338 277.474 78.6816 274.723 76.5821C271.972 74.4825 268.603 73.354 265.142 73.373Z" fill="#407BFF"/>
<path opacity="0.7" d="M265.142 73.373V67.8435C269.819 67.8257 274.371 69.3566 278.087 72.1974C281.803 75.0382 284.474 79.0292 285.683 83.5475C286.892 88.0658 286.572 92.8573 284.772 97.1744C282.971 101.491 279.793 105.091 275.732 107.412L272.971 102.624C275.978 100.912 278.334 98.251 279.668 95.058C281.002 91.865 281.241 88.3197 280.346 84.9767C279.451 81.6338 277.474 78.6816 274.723 76.5821C271.972 74.4825 268.603 73.354 265.142 73.373Z" fill="black"/>
<path d="M245.256 37.0647H225.96C225.272 37.0647 224.612 37.338 224.125 37.8246C223.639 38.3112 223.365 38.9711 223.365 39.6592V75.3397C223.371 76.0238 223.647 76.678 224.133 77.1596C224.619 77.6413 225.276 77.9115 225.96 77.9115H250.657C251.344 77.9095 252.002 77.6353 252.487 77.1489C252.972 76.6626 253.244 76.0038 253.244 75.317V45.0601L245.256 37.0647Z" fill="#263238"/>
<path d="M244.121 74.3639H228.078C227.777 74.3639 227.488 74.2443 227.275 74.0315C227.062 73.8188 226.943 73.5302 226.943 73.2292C226.945 72.9296 227.065 72.643 227.278 72.4318C227.49 72.2207 227.778 72.1022 228.078 72.1022H244.129C244.428 72.1022 244.716 72.2207 244.928 72.4318C245.141 72.643 245.261 72.9296 245.263 73.2292C245.261 73.5309 245.14 73.8194 244.926 74.032C244.712 74.2446 244.423 74.3639 244.121 74.3639Z" fill="#407BFF"/>
<path d="M236.557 42.9119H228.078C227.778 42.9119 227.49 42.7934 227.278 42.5822C227.065 42.3711 226.945 42.0844 226.943 41.7848C226.943 41.4839 227.062 41.1953 227.275 40.9825C227.488 40.7697 227.777 40.6501 228.078 40.6501H236.565C236.865 40.6501 237.154 40.7697 237.367 40.9825C237.58 41.1953 237.699 41.4839 237.699 41.7848C237.698 41.9338 237.668 42.0811 237.61 42.2184C237.552 42.3557 237.468 42.4802 237.362 42.5849C237.255 42.6895 237.13 42.7723 236.992 42.8284C236.854 42.8845 236.706 42.9129 236.557 42.9119Z" fill="#407BFF"/>
<path d="M242.102 47.4049H228.078C227.778 47.4049 227.49 47.2864 227.278 47.0752C227.065 46.8641 226.945 46.5774 226.943 46.2778C226.943 45.9769 227.062 45.6883 227.275 45.4755C227.488 45.2627 227.777 45.1432 228.078 45.1432H242.109C242.409 45.1452 242.695 45.2656 242.907 45.4782C243.118 45.6907 243.236 45.9782 243.236 46.2778C243.236 46.4265 243.207 46.5736 243.15 46.7109C243.093 46.8481 243.009 46.9727 242.903 47.0775C242.798 47.1822 242.673 47.2651 242.535 47.3213C242.398 47.3775 242.25 47.4059 242.102 47.4049Z" fill="#407BFF"/>
<path d="M248.546 51.8982H228.078C227.778 51.8982 227.49 51.7797 227.278 51.5685C227.065 51.3574 226.945 51.0707 226.943 50.7711C226.943 50.4702 227.062 50.1816 227.275 49.9688C227.488 49.756 227.777 49.6365 228.078 49.6365H248.554C248.855 49.6365 249.143 49.756 249.356 49.9688C249.569 50.1816 249.688 50.4702 249.688 50.7711C249.688 50.9201 249.657 51.0675 249.599 51.2047C249.541 51.342 249.457 51.4665 249.351 51.5712C249.245 51.6759 249.119 51.7586 248.981 51.8147C248.843 51.8708 248.695 51.8992 248.546 51.8982Z" fill="#407BFF"/>
<path d="M248.547 56.3912H236.64C236.341 56.3912 236.053 56.2727 235.841 56.0616C235.628 55.8504 235.508 55.5638 235.506 55.2642C235.506 54.9632 235.625 54.6746 235.838 54.4618C236.051 54.2491 236.34 54.1295 236.64 54.1295H248.547C248.847 54.1295 249.136 54.2491 249.349 54.4618C249.562 54.6746 249.681 54.9632 249.681 55.2642C249.679 55.5638 249.559 55.8504 249.346 56.0616C249.134 56.2727 248.846 56.3912 248.547 56.3912Z" fill="#407BFF"/>
<path d="M231.179 56.3912H228.078C227.778 56.3912 227.49 56.2727 227.278 56.0616C227.065 55.8504 226.945 55.5638 226.943 55.2642C226.943 54.9632 227.062 54.6746 227.275 54.4618C227.488 54.2491 227.777 54.1295 228.078 54.1295H231.186C231.487 54.1295 231.776 54.2491 231.989 54.4618C232.201 54.6746 232.321 54.9632 232.321 55.2642C232.32 55.4132 232.29 55.5605 232.232 55.6978C232.174 55.8351 232.089 55.9596 231.983 56.0642C231.877 56.1689 231.752 56.2516 231.614 56.3078C231.476 56.3639 231.328 56.3922 231.179 56.3912Z" fill="#407BFF"/>
<path d="M248.546 60.8844H228.078C227.777 60.8844 227.488 60.7648 227.275 60.5521C227.062 60.3393 226.943 60.0507 226.943 59.7498C226.945 59.4501 227.065 59.1635 227.278 58.9523C227.49 58.7412 227.778 58.6227 228.078 58.6227H248.554C248.853 58.6227 249.141 58.7412 249.354 58.9523C249.566 59.1635 249.687 59.4501 249.688 59.7498C249.689 59.8994 249.659 60.0476 249.601 60.1857C249.544 60.3239 249.46 60.4493 249.354 60.5547C249.247 60.6602 249.121 60.7436 248.983 60.8002C248.844 60.8568 248.696 60.8854 248.546 60.8844Z" fill="#407BFF"/>
<path d="M240.642 65.3777H228.078C227.777 65.3777 227.488 65.2581 227.275 65.0453C227.062 64.8326 226.943 64.544 226.943 64.243C226.945 63.9434 227.065 63.6568 227.278 63.4456C227.49 63.2345 227.778 63.116 228.078 63.116H240.649C240.949 63.116 241.236 63.2345 241.449 63.4456C241.661 63.6568 241.782 63.9434 241.784 64.243C241.784 64.3927 241.754 64.5408 241.697 64.679C241.639 64.8172 241.555 64.9426 241.449 65.048C241.343 65.1535 241.217 65.2369 241.078 65.2935C240.94 65.35 240.791 65.3787 240.642 65.3777Z" fill="#407BFF"/>
<path d="M248.546 65.3777H245.188C244.888 65.3757 244.601 65.2552 244.39 65.0427C244.179 64.8301 244.061 64.5426 244.061 64.243C244.061 63.9441 244.179 63.6574 244.391 63.4461C244.602 63.2347 244.889 63.116 245.188 63.116H248.546C248.846 63.116 249.133 63.2345 249.346 63.4456C249.558 63.6568 249.679 63.9434 249.681 64.243C249.681 64.544 249.561 64.8326 249.348 65.0453C249.136 65.2581 248.847 65.3777 248.546 65.3777Z" fill="#407BFF"/>
<path d="M248.546 69.8707H228.078C227.777 69.8707 227.488 69.7512 227.275 69.5384C227.062 69.3256 226.943 69.037 226.943 68.7361C226.945 68.4365 227.065 68.1498 227.278 67.9387C227.49 67.7275 227.778 67.609 228.078 67.609H248.554C248.853 67.609 249.141 67.7275 249.354 67.9387C249.566 68.1498 249.687 68.4365 249.688 68.7361C249.689 68.8857 249.659 69.0339 249.601 69.172C249.544 69.3102 249.46 69.4356 249.354 69.5411C249.247 69.6465 249.121 69.7299 248.983 69.7865C248.844 69.8431 248.696 69.8717 248.546 69.8707Z" fill="#407BFF"/>
<g opacity="0.5">
<path d="M244.121 74.3639H228.078C227.777 74.3639 227.488 74.2443 227.275 74.0315C227.062 73.8188 226.943 73.5302 226.943 73.2292C226.945 72.9296 227.065 72.643 227.278 72.4318C227.49 72.2207 227.778 72.1022 228.078 72.1022H244.129C244.428 72.1022 244.716 72.2207 244.928 72.4318C245.141 72.643 245.261 72.9296 245.263 73.2292C245.261 73.5309 245.14 73.8194 244.926 74.032C244.712 74.2446 244.423 74.3639 244.121 74.3639Z" fill="white"/>
</g>
<g opacity="0.5">
<path d="M236.557 42.9119H228.078C227.778 42.9119 227.49 42.7934 227.278 42.5822C227.065 42.3711 226.945 42.0844 226.943 41.7848C226.943 41.4839 227.062 41.1953 227.275 40.9825C227.488 40.7697 227.777 40.6501 228.078 40.6501H236.565C236.865 40.6501 237.154 40.7697 237.367 40.9825C237.58 41.1953 237.699 41.4839 237.699 41.7848C237.698 41.9338 237.668 42.0811 237.61 42.2184C237.552 42.3557 237.468 42.4802 237.362 42.5849C237.255 42.6895 237.13 42.7723 236.992 42.8284C236.854 42.8845 236.706 42.9129 236.557 42.9119Z" fill="white"/>
</g>
<g opacity="0.5">
<path d="M242.102 47.4049H228.078C227.778 47.4049 227.49 47.2864 227.278 47.0752C227.065 46.8641 226.945 46.5774 226.943 46.2778C226.943 45.9769 227.062 45.6883 227.275 45.4755C227.488 45.2627 227.777 45.1432 228.078 45.1432H242.109C242.409 45.1452 242.695 45.2656 242.907 45.4782C243.118 45.6907 243.236 45.9782 243.236 46.2778C243.236 46.4265 243.207 46.5736 243.15 46.7109C243.093 46.8481 243.009 46.9727 242.903 47.0775C242.798 47.1822 242.673 47.2651 242.535 47.3213C242.398 47.3775 242.25 47.4059 242.102 47.4049Z" fill="white"/>
</g>
<g opacity="0.5">
<path d="M248.546 51.8982H228.078C227.778 51.8982 227.49 51.7797 227.278 51.5685C227.065 51.3574 226.945 51.0707 226.943 50.7711C226.943 50.4702 227.062 50.1816 227.275 49.9688C227.488 49.756 227.777 49.6365 228.078 49.6365H248.554C248.855 49.6365 249.143 49.756 249.356 49.9688C249.569 50.1816 249.688 50.4702 249.688 50.7711C249.688 50.9201 249.657 51.0675 249.599 51.2047C249.541 51.342 249.457 51.4665 249.351 51.5712C249.245 51.6759 249.119 51.7586 248.981 51.8147C248.843 51.8708 248.695 51.8992 248.546 51.8982Z" fill="white"/>
</g>
<g opacity="0.5">
<path d="M248.547 56.3912H236.64C236.341 56.3912 236.053 56.2727 235.841 56.0616C235.628 55.8504 235.508 55.5638 235.506 55.2642C235.506 54.9632 235.625 54.6746 235.838 54.4618C236.051 54.2491 236.34 54.1295 236.64 54.1295H248.547C248.847 54.1295 249.136 54.2491 249.349 54.4618C249.562 54.6746 249.681 54.9632 249.681 55.2642C249.679 55.5638 249.559 55.8504 249.346 56.0616C249.134 56.2727 248.846 56.3912 248.547 56.3912Z" fill="white"/>
</g>
<g opacity="0.5">
<path d="M231.179 56.3912H228.078C227.778 56.3912 227.49 56.2727 227.278 56.0616C227.065 55.8504 226.945 55.5638 226.943 55.2642C226.943 54.9632 227.062 54.6746 227.275 54.4618C227.488 54.2491 227.777 54.1295 228.078 54.1295H231.186C231.487 54.1295 231.776 54.2491 231.989 54.4618C232.201 54.6746 232.321 54.9632 232.321 55.2642C232.32 55.4132 232.29 55.5605 232.232 55.6978C232.174 55.8351 232.089 55.9596 231.983 56.0642C231.877 56.1689 231.752 56.2516 231.614 56.3078C231.476 56.3639 231.328 56.3922 231.179 56.3912Z" fill="white"/>
</g>
<g opacity="0.5">
<path d="M248.546 60.8844H228.078C227.777 60.8844 227.488 60.7648 227.275 60.5521C227.062 60.3393 226.943 60.0507 226.943 59.7498C226.945 59.4501 227.065 59.1635 227.278 58.9523C227.49 58.7412 227.778 58.6227 228.078 58.6227H248.554C248.853 58.6227 249.141 58.7412 249.354 58.9523C249.566 59.1635 249.687 59.4501 249.688 59.7498C249.689 59.8994 249.659 60.0476 249.601 60.1857C249.544 60.3239 249.46 60.4493 249.354 60.5547C249.247 60.6602 249.121 60.7436 248.983 60.8002C248.844 60.8568 248.696 60.8854 248.546 60.8844Z" fill="white"/>
</g>
<g opacity="0.5">
<path d="M240.642 65.3777H228.078C227.777 65.3777 227.488 65.2581 227.275 65.0453C227.062 64.8326 226.943 64.544 226.943 64.243C226.945 63.9434 227.065 63.6568 227.278 63.4456C227.49 63.2345 227.778 63.116 228.078 63.116H240.649C240.949 63.116 241.236 63.2345 241.449 63.4456C241.661 63.6568 241.782 63.9434 241.784 64.243C241.784 64.3927 241.754 64.5408 241.697 64.679C241.639 64.8172 241.555 64.9426 241.449 65.048C241.343 65.1535 241.217 65.2369 241.078 65.2935C240.94 65.35 240.791 65.3787 240.642 65.3777Z" fill="white"/>
</g>
<g opacity="0.5">
<path d="M248.546 65.3777H245.188C244.888 65.3757 244.601 65.2552 244.39 65.0427C244.179 64.8301 244.061 64.5426 244.061 64.243C244.061 63.9441 244.179 63.6574 244.391 63.4461C244.602 63.2347 244.889 63.116 245.188 63.116H248.546C248.846 63.116 249.133 63.2345 249.346 63.4456C249.558 63.6568 249.679 63.9434 249.681 64.243C249.681 64.544 249.561 64.8326 249.348 65.0453C249.136 65.2581 248.847 65.3777 248.546 65.3777Z" fill="white"/>
</g>
<g opacity="0.5">
<path d="M248.546 69.8707H228.078C227.777 69.8707 227.488 69.7512 227.275 69.5384C227.062 69.3256 226.943 69.037 226.943 68.7361C226.945 68.4365 227.065 68.1498 227.278 67.9387C227.49 67.7275 227.778 67.609 228.078 67.609H248.554C248.853 67.609 249.141 67.7275 249.354 67.9387C249.566 68.1498 249.687 68.4365 249.688 68.7361C249.689 68.8857 249.659 69.0339 249.601 69.172C249.544 69.3102 249.46 69.4356 249.354 69.5411C249.247 69.6465 249.121 69.7299 248.983 69.7865C248.844 69.8431 248.696 69.8717 248.546 69.8707Z" fill="white"/>
</g>
<path d="M245.256 37.0647V42.4656C245.255 42.8066 245.321 43.1444 245.451 43.4596C245.581 43.7748 245.772 44.0613 246.014 44.3024C246.255 44.5435 246.541 44.7346 246.856 44.8646C247.172 44.9946 247.509 45.0611 247.85 45.0601H253.244L245.256 37.0647Z" fill="#407BFF"/>
<path opacity="0.5" d="M245.256 37.0647V42.4656C245.255 42.8066 245.321 43.1444 245.451 43.4596C245.581 43.7748 245.772 44.0613 246.014 44.3024C246.255 44.5435 246.541 44.7346 246.856 44.8646C247.172 44.9946 247.509 45.0611 247.85 45.0601H253.244L245.256 37.0647Z" fill="white"/>
</svg>
