<svg width="377" height="280" viewBox="0 0 377 280" fill="none" xmlns="http://www.w3.org/2000/svg">
<path d="M376.389 246.06H0.61084V246.247H376.389V246.06Z" fill="#E6E6E6"/>
<path d="M80.9073 253.192H55.0537V253.38H80.9073V253.192Z" fill="#E6E6E6"/>
<path d="M224.74 254.53H217.014V254.718H224.74V254.53Z" fill="#E6E6E6"/>
<path d="M103.318 255.868H88.7683V256.056H103.318V255.868Z" fill="#E6E6E6"/>
<path d="M316.107 255.424H296.807V255.612H316.107V255.424Z" fill="#E6E6E6"/>
<path d="M283.647 252.756H270.465V252.944H283.647V252.756Z" fill="#E6E6E6"/>
<path d="M206.154 252.456H135.748V252.643H206.154V252.456Z" fill="#E6E6E6"/>
<path d="M178.73 212.54H33.6115C32.4747 212.538 31.3851 212.085 30.5819 211.281C29.7787 210.476 29.3276 209.386 29.3276 208.249V4.25381C29.3375 3.12349 29.793 2.04272 30.5951 1.24625C31.3972 0.449775 32.4811 0.0019363 33.6115 0H178.73C179.868 0 180.959 0.452127 181.764 1.25692C182.569 2.06171 183.021 3.15324 183.021 4.29139V208.249C183.021 209.387 182.569 210.479 181.764 211.283C180.959 212.088 179.868 212.54 178.73 212.54ZM33.6115 0.150312C32.5245 0.152303 31.4827 0.585512 30.7148 1.35485C29.9468 2.12419 29.5155 3.1668 29.5155 4.25381V208.249C29.5155 209.336 29.9468 210.378 30.7148 211.148C31.4827 211.917 32.5245 212.35 33.6115 212.352H178.73C179.817 212.35 180.86 211.917 181.629 211.148C182.398 210.379 182.831 209.337 182.833 208.249V4.25381C182.831 3.16611 182.398 2.12352 181.629 1.35439C180.86 0.585268 179.817 0.152299 178.73 0.150312H33.6115Z" fill="#E6E6E6"/>
<path d="M341.299 212.54H196.173C195.036 212.538 193.946 212.086 193.141 211.281C192.337 210.477 191.884 209.386 191.882 208.249V4.25381C191.894 3.1228 192.351 2.04204 193.154 1.24578C193.958 0.449513 195.042 0.00191518 196.173 0H341.299C342.428 0.00391147 343.51 0.452624 344.311 1.24888C345.111 2.04514 345.566 3.12479 345.575 4.25381V208.249C345.575 209.384 345.125 210.474 344.324 211.278C343.522 212.082 342.435 212.536 341.299 212.54ZM196.173 0.150312C195.086 0.152299 194.043 0.585268 193.274 1.35439C192.505 2.12352 192.072 3.16611 192.07 4.25381V208.249C192.072 209.337 192.505 210.379 193.274 211.148C194.043 211.917 195.086 212.35 196.173 212.352H341.299C342.387 212.35 343.429 211.917 344.198 211.148C344.968 210.379 345.401 209.337 345.403 208.249V4.25381C345.401 3.16611 344.968 2.12352 344.198 1.35439C343.429 0.585268 342.387 0.152299 341.299 0.150312H196.173Z" fill="#E6E6E6"/>
<path d="M259.011 172.565C258.598 172.565 258.185 172.565 257.764 172.603C255.147 172.791 252.604 173.557 250.317 174.843C248.031 176.13 246.057 177.906 244.537 180.045C243.017 182.184 241.989 184.632 241.527 187.215C241.064 189.798 241.178 192.451 241.861 194.984C243.802 202.554 244.74 210.347 244.649 218.162V240.919C244.649 241.716 244.966 242.481 245.53 243.045C246.093 243.609 246.858 243.925 247.655 243.925H319.887V172.565H259.011Z" fill="#F0F0F0"/>
<path d="M337.631 190.354C337.632 185.736 335.836 181.299 332.624 177.98C329.413 174.662 325.036 172.723 320.421 172.572C315.805 172.422 311.312 174.073 307.891 177.175C304.47 180.277 302.39 184.588 302.09 189.197C301.958 191.144 302.151 193.1 302.661 194.984C304.603 202.554 305.54 210.347 305.45 218.162V240.919C305.45 241.716 305.766 242.481 306.33 243.045C306.894 243.608 307.658 243.925 308.456 243.925H331.265C332.063 243.925 332.827 243.608 333.391 243.045C333.955 242.481 334.272 241.716 334.272 240.919V216.824C334.206 209.496 335.131 202.192 337.022 195.111C337.439 193.56 337.644 191.96 337.631 190.354Z" fill="#FAFAFA"/>
<path d="M295.326 200.591H168.306V243.903H295.326V200.591Z" fill="#F0F0F0"/>
<path d="M128.187 148.703H250.218C253.784 148.711 257.202 150.133 259.721 152.658C262.241 155.183 263.656 158.604 263.656 162.171V210.383H114.719V162.171C114.719 158.599 116.138 155.173 118.664 152.647C121.19 150.122 124.615 148.703 128.187 148.703Z" fill="#E6E6E6"/>
<path d="M144.489 148.703H267.819C269.502 148.703 271.168 149.034 272.723 149.678C274.278 150.322 275.69 151.266 276.88 152.456C278.07 153.646 279.014 155.058 279.658 156.613C280.302 158.168 280.633 159.834 280.633 161.517V210.368H131.675V161.517C131.675 158.118 133.025 154.859 135.428 152.456C137.831 150.053 141.09 148.703 144.489 148.703Z" fill="#FAFAFA"/>
<path d="M172.552 196.637H294.47C295.506 196.637 296.5 197.049 297.233 197.782C297.966 198.515 298.378 199.509 298.378 200.545V210.368C298.378 211.405 297.966 212.399 297.233 213.132C296.5 213.864 295.506 214.276 294.47 214.276H172.552C172.243 214.276 171.947 214.153 171.728 213.935C171.51 213.717 171.387 213.42 171.387 213.111V197.802C171.387 197.493 171.51 197.197 171.728 196.978C171.947 196.76 172.243 196.637 172.552 196.637Z" fill="#E6E6E6"/>
<path d="M108.324 172.565C107.91 172.565 107.497 172.565 107.076 172.603C104.457 172.787 101.912 173.549 99.6224 174.834C97.3328 176.118 95.3557 177.893 93.8329 180.032C92.31 182.17 91.2792 184.619 90.8141 187.203C90.3491 189.787 90.4615 192.441 91.1432 194.976C93.0847 202.547 94.0222 210.34 93.9314 218.154V240.912C93.9314 241.709 94.2482 242.473 94.8119 243.037C95.3757 243.601 96.1404 243.918 96.9377 243.918H169.17V172.565H108.324Z" fill="#F0F0F0"/>
<path d="M186.944 190.354C186.945 185.736 185.149 181.299 181.938 177.98C178.726 174.662 174.35 172.723 169.734 172.572C165.118 172.422 160.625 174.073 157.204 177.175C153.784 180.277 151.703 184.588 151.403 189.197C151.271 191.144 151.464 193.1 151.974 194.984C153.916 202.554 154.853 210.347 154.763 218.162V240.919C154.763 241.716 155.079 242.481 155.643 243.045C156.207 243.608 156.972 243.925 157.769 243.925H180.579C181.376 243.925 182.141 243.608 182.704 243.045C183.268 242.481 183.585 241.716 183.585 240.919V216.824C183.519 209.496 184.444 202.192 186.336 195.111C186.753 193.56 186.957 191.96 186.944 190.354Z" fill="#FAFAFA"/>
<path d="M318.572 246.067H109.586C109.012 246.067 108.462 245.839 108.056 245.433C107.65 245.027 107.422 244.477 107.422 243.903H320.774C320.774 244.19 320.717 244.475 320.606 244.74C320.494 245.005 320.332 245.245 320.127 245.447C319.922 245.648 319.679 245.807 319.412 245.913C319.145 246.02 318.859 246.072 318.572 246.067Z" fill="#E0E0E0"/>
<path d="M219.352 43.0864H90.7227V105.721H219.352V43.0864Z" fill="#E0E0E0"/>
<path d="M225.529 43.0864H95.021V105.721H225.529V43.0864Z" fill="#F5F5F5"/>
<path d="M220.591 100.791V48.0244L99.9589 48.0244V100.791H220.591Z" fill="white"/>
<path d="M208.702 79.1165V69.6845C208.702 64.7825 204.728 60.8086 199.826 60.8086L120.724 60.8086C115.822 60.8086 111.849 64.7825 111.849 69.6845V79.1165C111.849 84.0185 115.822 87.9924 120.724 87.9924H199.826C204.728 87.9924 208.702 84.0185 208.702 79.1165Z" fill="#F5F5F5"/>
<path d="M280.776 81.0854H250.135V112.831H280.776V81.0854Z" fill="#E0E0E0"/>
<path d="M283.903 81.0854H254.036V112.831H283.903V81.0854Z" fill="#F5F5F5"/>
<path d="M281.4 110.336V83.5879H256.539V110.336H281.4Z" fill="white"/>
<path d="M268.969 90.2017L262.167 101.979H275.771L268.969 90.2017Z" fill="#F5F5F5"/>
<path d="M321.608 60.2749H290.967V92.0207H321.608V60.2749Z" fill="#E0E0E0"/>
<path d="M324.742 60.2749H294.875V92.0207H324.742V60.2749Z" fill="#F5F5F5"/>
<path d="M322.24 89.5258V62.7778H297.378V89.5258H322.24Z" fill="white"/>
<path d="M312.845 80.9198L315.799 75.8092C316.106 75.2755 316.268 74.6702 316.267 74.0543C316.266 73.4384 316.104 72.8335 315.795 72.3004C315.487 71.7673 315.043 71.3248 314.51 71.0172C313.976 70.7097 313.371 70.548 312.755 70.5483H306.855C306.239 70.548 305.634 70.7097 305.101 71.0172C304.567 71.3248 304.124 71.7673 303.815 72.3004C303.507 72.8335 303.344 73.4384 303.344 74.0543C303.343 74.6702 303.504 75.2755 303.812 75.8092L306.765 80.9198C307.073 81.4536 307.516 81.8969 308.05 82.2051C308.584 82.5133 309.189 82.6756 309.805 82.6756C310.421 82.6756 311.027 82.5133 311.561 82.2051C312.094 81.8969 312.537 81.4536 312.845 80.9198Z" fill="#F5F5F5"/>
<path d="M43.9153 190.144H26.9526V242.73H43.9153V190.144Z" fill="#E6E6E6"/>
<path d="M113.841 242.73H30.2073V246.059H113.841V242.73Z" fill="#E6E6E6"/>
<path d="M43.9157 242.73H117.102V190.144H43.9157V242.73Z" fill="#FAFAFA"/>
<path d="M50.582 213.863H110.436V196.615H50.582V213.863Z" fill="#F0F0F0"/>
<path d="M50.582 236.251H110.436V219.003H50.582V236.251Z" fill="#F0F0F0"/>
<path d="M87.7012 206.423H73.3164C73.0028 206.421 72.7027 206.295 72.4816 206.073C72.2605 205.85 72.1365 205.549 72.1365 205.236C72.1384 204.923 72.2634 204.624 72.4842 204.403C72.7051 204.183 73.0041 204.058 73.3164 204.056H87.7012C88.0135 204.058 88.3125 204.183 88.5334 204.403C88.7542 204.624 88.8792 204.923 88.8812 205.236C88.8812 205.549 88.7571 205.85 88.536 206.073C88.315 206.295 88.0148 206.421 87.7012 206.423Z" fill="#FAFAFA"/>
<path d="M87.7012 228.812H73.3164C73.0035 228.812 72.7034 228.687 72.4821 228.466C72.2608 228.245 72.1365 227.945 72.1365 227.632C72.1365 227.319 72.2608 227.019 72.4821 226.797C72.7034 226.576 73.0035 226.452 73.3164 226.452H87.7012C88.0142 226.452 88.3143 226.576 88.5356 226.797C88.7568 227.019 88.8812 227.319 88.8812 227.632C88.8812 227.945 88.7568 228.245 88.5356 228.466C88.3143 228.687 88.0142 228.812 87.7012 228.812Z" fill="#FAFAFA"/>
<path d="M66.643 151.567H56.8727C57.1508 161.037 52.8293 166.388 52.8293 177.533C52.8293 187.559 55.2794 189.438 61.7654 189.438C68.2513 189.438 70.7014 187.559 70.7014 177.533C70.6863 166.388 66.3574 161.037 66.643 151.567Z" fill="#FAFAFA"/>
<path d="M58.2026 189.077H65.2973V189.678C65.2973 189.802 65.2482 189.92 65.1609 190.007C65.0735 190.095 64.9549 190.144 64.8314 190.144H58.6686C58.545 190.144 58.4265 190.095 58.3391 190.007C58.2517 189.92 58.2026 189.802 58.2026 189.678V189.077Z" fill="#F3F7FF"/>
<path d="M50.9881 155.016H50.2366V169.393H50.9881V155.016Z" fill="#E0E0E0"/>
<path d="M77.2772 159.541H46.2153L51.5439 127.705H71.9562L77.2772 159.541Z" fill="#EBEBEB"/>
<path d="M188.5 280C268.979 280 334.22 276.191 334.22 271.492C334.22 266.793 268.979 262.984 188.5 262.984C108.022 262.984 42.781 266.793 42.781 271.492C42.781 276.191 108.022 280 188.5 280Z" fill="#F5F5F5"/>
<path d="M182.751 249.231C182.044 224.708 181.142 106.706 182.555 94.4108L185.374 91.3369C185.374 91.3369 185.306 94.8617 185.238 104.249C184.945 146.261 183.855 242.963 184.096 249.209L182.751 249.231Z" fill="#407BFF"/>
<path opacity="0.6" d="M182.751 249.231C182.044 224.708 181.142 106.706 182.555 94.4108L185.374 91.3369C185.374 91.3369 185.306 94.8617 185.238 104.249C184.945 146.261 183.855 242.963 184.096 249.209L182.751 249.231Z" fill="white"/>
<path d="M194.257 179.471C201.186 172.549 209.166 166.766 217.901 162.336C224.387 159.164 207.379 179.877 200.72 187.596C194.062 195.314 185.87 203.844 183.239 211.052C182.713 196.366 186.05 187.641 194.257 179.471Z" fill="#407BFF"/>
<path opacity="0.6" d="M194.257 179.471C201.186 172.549 209.166 166.766 217.901 162.336C224.387 159.164 207.379 179.877 200.72 187.596C194.062 195.314 185.87 203.844 183.239 211.052C182.713 196.366 186.05 187.641 194.257 179.471Z" fill="white"/>
<path d="M183.172 116.784C178.106 94.4331 179.669 81.5815 185.374 67.8055C190.71 54.9238 194.874 49.1668 201.074 44.2892C202.675 43.0341 199.075 61.0414 193.558 74.4642C189.665 83.9339 187.734 96.2594 185.043 103.354C183.172 108.224 183.172 116.784 183.172 116.784Z" fill="#407BFF"/>
<path opacity="0.6" d="M183.172 116.784C178.106 94.4331 179.669 81.5815 185.374 67.8055C190.71 54.9238 194.874 49.1668 201.074 44.2892C202.675 43.0341 199.075 61.0414 193.558 74.4642C189.665 83.9339 187.734 96.2594 185.043 103.354C183.172 108.224 183.172 116.784 183.172 116.784Z" fill="white"/>
<path d="M183.442 165.764C182.886 152.386 182.217 139.459 192.386 122.466C194.858 118.325 216.736 83.3855 224.289 81.2811C227.994 80.259 221.411 107.292 211.295 123.428C203.704 135.521 200.202 138.723 191.897 152.837C188.628 158.398 183.442 165.764 183.442 165.764Z" fill="#407BFF"/>
<path opacity="0.6" d="M183.442 165.764C182.886 152.386 182.217 139.459 192.386 122.466C194.858 118.325 216.736 83.3855 224.289 81.2811C227.994 80.259 221.411 107.292 211.295 123.428C203.704 135.521 200.202 138.723 191.897 152.837C188.628 158.398 183.442 165.764 183.442 165.764Z" fill="white"/>
<path d="M170.38 110.516C161.452 101.903 152.696 96.2364 146.21 93.373C139.724 90.5095 156.8 111.936 164.999 121.241C173.199 130.545 180.714 138.617 183.931 146.899C183.006 129.155 179.316 119.136 170.38 110.516Z" fill="#407BFF"/>
<path opacity="0.6" d="M170.38 110.516C161.452 101.903 152.696 96.2364 146.21 93.373C139.724 90.5095 156.8 111.936 164.999 121.241C173.199 130.545 180.714 138.617 183.931 146.899C183.006 129.155 179.316 119.136 170.38 110.516Z" fill="white"/>
<path d="M183.938 191.136C182.488 181.057 179.181 169.551 174.108 161.584C169.035 153.618 161.226 141.473 154.763 138.188C153.214 137.399 161.76 162.013 165.901 168.822C169.29 174.45 173.412 179.603 178.159 184.146C179.256 185.281 183.938 191.136 183.938 191.136Z" fill="#407BFF"/>
<path opacity="0.6" d="M183.938 191.136C182.488 181.057 179.181 169.551 174.108 161.584C169.035 153.618 161.226 141.473 154.763 138.188C153.214 137.399 161.76 162.013 165.901 168.822C169.29 174.45 173.412 179.603 178.159 184.146C179.256 185.281 183.938 191.136 183.938 191.136Z" fill="white"/>
<path d="M194.798 255.589H172.071L170.357 231.104H196.512L194.798 255.589Z" fill="#407BFF"/>
<path d="M198.203 235.229H168.667L167.817 228.849H199.052L198.203 235.229Z" fill="#407BFF"/>
<g opacity="0.4">
<path d="M194.798 255.589H172.071L170.357 231.104H196.512L194.798 255.589Z" fill="black"/>
<path d="M198.203 235.229H168.667L167.817 228.849H199.052L198.203 235.229Z" fill="black"/>
</g>
<path d="M219.374 164.08C212.385 165.335 189.582 151.146 181.864 141.804C187.404 137.012 192.478 131.705 197.015 125.954C192.01 131.688 183.968 136.776 179.196 139.482C177.039 137.618 175.776 136.476 175.776 136.476C175.776 136.476 195.317 129.93 205.703 106.909C213.617 89.3906 225.116 79.9887 237.269 88.9923C260.898 94.7793 235.848 156.873 219.374 164.08Z" fill="#263238"/>
<path d="M226.416 126.261C226.228 126.539 226.116 126.705 225.965 126.9L225.552 127.456C225.266 127.817 224.981 128.155 224.688 128.493C224.094 129.17 223.493 129.816 222.861 130.432C221.589 131.655 220.233 132.788 218.803 133.822C217.367 134.841 215.86 135.755 214.294 136.558C213.497 136.941 212.708 137.309 211.889 137.647L210.664 138.128L210.34 138.256C210.145 138.316 209.98 138.376 209.762 138.429C209.271 138.554 208.762 138.592 208.259 138.542C207.637 138.477 207.039 138.266 206.515 137.925C206.073 137.622 205.692 137.237 205.395 136.791C205.01 136.194 204.737 135.532 204.591 134.836C204.385 133.848 204.297 132.839 204.328 131.83C204.383 130.092 204.574 128.361 204.899 126.652C205.207 124.991 205.568 123.368 205.974 121.759C206.38 120.151 206.846 118.573 207.394 116.979L210.213 117.663C210.01 119.242 209.784 120.843 209.634 122.436C209.484 124.029 209.296 125.607 209.206 127.178C209.1 128.692 209.087 130.21 209.168 131.725C209.196 132.348 209.297 132.966 209.469 133.566C209.536 133.784 209.634 133.927 209.604 133.844C209.541 133.733 209.45 133.64 209.341 133.574C209.163 133.447 208.956 133.367 208.74 133.341C208.64 133.325 208.539 133.325 208.439 133.341L208.679 133.228L209.687 132.74C210.363 132.416 211.009 132.041 211.663 131.687C212.947 130.926 214.189 130.095 215.383 129.2C216.56 128.285 217.677 127.296 218.728 126.239C219.261 125.728 219.765 125.186 220.231 124.638C220.464 124.36 220.704 124.082 220.922 123.804L221.253 123.39L221.524 123.045L226.416 126.261Z" fill="#E4897B"/>
<path d="M209.957 118.355L212.385 114.004L206.417 114.365C206.417 114.365 206.042 117.191 207.68 118.919L209.957 118.355Z" fill="#E4897B"/>
<path d="M227.957 119.039C222.064 119.272 217.585 124.871 217.585 124.871L225.101 134.341C225.101 134.341 230.737 128.659 231.249 125.54C231.797 122.286 231.504 118.896 227.957 119.039Z" fill="#407BFF"/>
<path opacity="0.3" d="M227.957 119.039C222.064 119.272 217.585 124.871 217.585 124.871L225.101 134.341C225.101 134.341 230.737 128.659 231.249 125.54C231.797 122.286 231.504 118.896 227.957 119.039Z" fill="black"/>
<path d="M211.272 111.388L206.898 112.478L206.417 114.364L212.384 114.004L211.272 111.388Z" fill="#E4897B"/>
<path d="M210.859 106.157L211.633 106.563L211.28 112.042L209.551 112.162L210.859 106.157Z" fill="#E4897B"/>
<path d="M209.544 105.947L208.784 106.127L208.063 112.696L209.769 112.26L209.544 105.947Z" fill="#E4897B"/>
<path d="M222.493 120.82C222.493 120.82 220.186 122.556 235.51 152.912L257.644 145.9C254.419 137.009 252.646 131.447 251.105 111.583C247.811 111.926 244.545 112.506 241.335 113.32C237.909 114.135 234.546 115.195 231.271 116.491C227.078 118.265 222.493 120.82 222.493 120.82Z" fill="#407BFF"/>
<path opacity="0.3" d="M222.493 120.82C222.493 120.82 220.186 122.556 235.51 152.912L257.644 145.9C254.419 137.009 252.646 131.447 251.105 111.583C247.811 111.926 244.545 112.506 241.335 113.32C237.909 114.135 234.546 115.195 231.271 116.491C227.078 118.265 222.493 120.82 222.493 120.82Z" fill="black"/>
<path d="M274.245 265.247L268.721 265.781L262.972 252.628L268.496 252.095L274.245 265.247Z" fill="#E4897B"/>
<path d="M262.972 252.636L265.933 259.415H271.698L268.503 252.095L262.972 252.636Z" fill="#CE6F64"/>
<path d="M324.088 238.101L320.939 242.881L308.869 237.116L312.026 232.344L324.088 238.101Z" fill="#E4897B"/>
<path d="M312.026 232.344L308.877 237.116L315.1 240.085L318.249 235.312L312.026 232.344Z" fill="#CE6F64"/>
<path d="M235.51 152.912C235.51 152.912 234.398 198.554 240.019 215.073C245.859 232.254 263.062 257.446 263.062 257.446L273.787 256.927C273.787 256.927 258.32 225.272 256.576 211.601C254.186 192.752 251.736 147.779 251.736 147.779L235.51 152.912Z" fill="#407BFF"/>
<path opacity="0.6" d="M235.51 152.912C235.51 152.912 234.398 198.554 240.019 215.073C245.859 232.254 263.062 257.446 263.062 257.446L273.787 256.927C273.787 256.927 258.32 225.272 256.576 211.601C254.186 192.752 251.736 147.779 251.736 147.779L235.51 152.912Z" fill="black"/>
<path opacity="0.3" d="M253.57 177.172L245.679 159.135C245.679 159.135 246.588 179.93 254.156 185.281C253.953 182.576 253.758 179.848 253.57 177.172Z" fill="black"/>
<path d="M241.365 151.063C241.365 151.063 256.396 187.491 266.331 207.55C274.373 223.746 312.777 240.386 312.777 240.386L316.806 233.622C316.806 233.622 287.427 214.983 281.873 203.995C264.099 168.83 267.887 153.543 257.666 145.9L241.365 151.063Z" fill="#407BFF"/>
<path opacity="0.6" d="M241.365 151.063C241.365 151.063 256.396 187.491 266.331 207.55C274.373 223.746 312.777 240.386 312.777 240.386L316.806 233.622C316.806 233.622 287.427 214.983 281.873 203.995C264.099 168.83 267.887 153.543 257.666 145.9L241.365 151.063Z" fill="black"/>
<path d="M319.61 242.362L320.023 235.988C320.03 235.877 320.076 235.773 320.153 235.693C320.23 235.613 320.333 235.563 320.444 235.553L325.569 235.154C325.698 235.149 325.827 235.17 325.946 235.218C326.066 235.265 326.175 235.337 326.265 235.429C326.355 235.522 326.425 235.632 326.469 235.753C326.514 235.874 326.532 236.003 326.524 236.131C326.336 238.386 326.141 239.438 325.953 242.256C325.847 243.992 325.855 247.848 325.697 250.238C325.539 252.628 323.164 252.613 323.014 251.598C322.338 247.089 321.068 244.962 319.903 243.376C319.685 243.085 319.581 242.724 319.61 242.362Z" fill="#263238"/>
<path d="M267.985 264.074H274.749C274.871 264.076 274.99 264.117 275.088 264.191C275.185 264.266 275.256 264.37 275.29 264.488L276.793 269.854C276.831 269.981 276.839 270.115 276.815 270.245C276.791 270.375 276.736 270.498 276.656 270.603C276.575 270.708 276.47 270.793 276.35 270.849C276.23 270.906 276.099 270.933 275.966 270.928C273.591 270.891 272.434 270.756 269.45 270.756C267.616 270.756 262.867 270.943 260.334 270.943C257.801 270.943 257.328 268.433 258.365 268.208C262.964 267.193 265.617 265.788 267.03 264.45C267.29 264.209 267.631 264.075 267.985 264.074Z" fill="#263238"/>
<path d="M236.75 102.31C237.141 105.752 238.381 111.877 241.327 113.32C241.327 113.32 241.485 116.882 235.472 118.791C228.859 120.881 231.271 116.537 231.271 116.537C234.608 114.53 233.669 111.884 232.241 109.57L236.75 102.31Z" fill="#E4897B"/>
<path d="M225.559 119.197C227.198 118.355 229.279 117.341 231.271 116.507C234.543 115.206 237.903 114.141 241.327 113.32C243.266 112.809 245.22 112.426 246.866 112.163C247.219 113.252 248.369 121.121 236.615 124.03C226.318 126.585 225.018 120.896 225.559 119.197Z" fill="#E4897B"/>
<path d="M230.843 116.725C230.743 116.724 230.646 116.687 230.572 116.619C230.504 116.546 230.466 116.449 230.467 116.349C230.466 116.251 230.504 116.156 230.572 116.086C230.645 116.018 230.74 115.98 230.839 115.98C230.938 115.98 231.034 116.018 231.106 116.086C231.176 116.156 231.216 116.25 231.219 116.349C231.217 116.45 231.176 116.547 231.106 116.619C231.035 116.687 230.941 116.725 230.843 116.725Z" fill="#F0F0F0"/>
<path d="M233.443 121.211C233.343 121.2 233.251 121.149 233.187 121.071C233.124 120.992 233.094 120.891 233.105 120.79C233.116 120.692 233.166 120.602 233.243 120.54C233.321 120.478 233.42 120.449 233.518 120.46C233.568 120.464 233.616 120.479 233.659 120.502C233.703 120.526 233.742 120.557 233.773 120.596C233.805 120.634 233.828 120.679 233.843 120.726C233.857 120.774 233.862 120.824 233.856 120.873C233.845 120.966 233.801 121.051 233.732 121.113C233.663 121.175 233.574 121.21 233.481 121.211H233.443ZM234.608 120.851C234.597 120.751 234.626 120.652 234.688 120.573C234.749 120.494 234.839 120.443 234.939 120.43C235.037 120.419 235.136 120.448 235.213 120.51C235.291 120.572 235.341 120.662 235.352 120.76C235.359 120.81 235.357 120.861 235.344 120.909C235.331 120.957 235.308 121.003 235.277 121.042C235.246 121.081 235.208 121.114 235.164 121.138C235.12 121.162 235.071 121.177 235.021 121.181C234.923 121.19 234.825 121.16 234.748 121.099C234.671 121.037 234.621 120.948 234.608 120.851ZM236.111 120.625C236.086 120.529 236.099 120.428 236.148 120.342C236.198 120.256 236.279 120.193 236.374 120.167C236.422 120.153 236.472 120.15 236.521 120.156C236.571 120.162 236.618 120.179 236.661 120.204C236.704 120.229 236.741 120.263 236.771 120.303C236.8 120.343 236.821 120.389 236.833 120.437C236.858 120.533 236.844 120.635 236.795 120.721C236.746 120.806 236.665 120.869 236.569 120.896H236.472C236.388 120.899 236.305 120.874 236.237 120.825C236.169 120.776 236.119 120.706 236.096 120.625H236.111ZM231.88 120.715C231.837 120.691 231.799 120.659 231.769 120.62C231.739 120.581 231.717 120.536 231.704 120.488C231.691 120.441 231.688 120.391 231.695 120.342C231.702 120.293 231.719 120.246 231.745 120.204C231.796 120.118 231.879 120.056 231.976 120.031C232.073 120.006 232.176 120.019 232.263 120.069C232.306 120.094 232.343 120.128 232.372 120.168C232.402 120.208 232.423 120.253 232.435 120.302C232.447 120.35 232.449 120.4 232.442 120.449C232.434 120.498 232.417 120.545 232.391 120.588C232.358 120.643 232.31 120.69 232.254 120.721C232.197 120.753 232.133 120.769 232.068 120.768C231.996 120.771 231.926 120.753 231.865 120.715H231.88ZM237.547 120.189C237.527 120.144 237.516 120.095 237.515 120.045C237.514 119.996 237.523 119.947 237.541 119.901C237.559 119.854 237.586 119.812 237.621 119.777C237.655 119.741 237.696 119.713 237.742 119.693C237.787 119.673 237.836 119.663 237.886 119.662C237.935 119.661 237.984 119.67 238.031 119.688C238.077 119.706 238.119 119.733 238.154 119.767C238.19 119.802 238.218 119.843 238.238 119.889C238.276 119.98 238.277 120.084 238.241 120.176C238.204 120.269 238.133 120.343 238.043 120.385C237.993 120.396 237.942 120.396 237.892 120.385C237.82 120.391 237.747 120.375 237.683 120.341C237.619 120.306 237.566 120.253 237.531 120.189H237.547ZM238.854 119.498C238.826 119.457 238.806 119.411 238.795 119.362C238.785 119.314 238.784 119.263 238.793 119.214C238.802 119.165 238.821 119.119 238.848 119.077C238.875 119.035 238.911 119 238.952 118.972C239.034 118.917 239.134 118.896 239.231 118.914C239.328 118.933 239.414 118.988 239.471 119.069C239.499 119.109 239.52 119.154 239.531 119.202C239.542 119.25 239.543 119.299 239.534 119.348C239.526 119.396 239.508 119.442 239.482 119.483C239.455 119.525 239.421 119.56 239.38 119.588C239.316 119.632 239.24 119.655 239.162 119.656C239.102 119.657 239.042 119.643 238.989 119.615C238.935 119.588 238.889 119.547 238.854 119.498ZM230.722 119.498C230.701 119.453 230.688 119.404 230.686 119.355C230.683 119.305 230.691 119.255 230.707 119.208C230.724 119.161 230.75 119.118 230.784 119.082C230.817 119.045 230.858 119.015 230.903 118.994C230.947 118.973 230.994 118.96 231.043 118.957C231.092 118.954 231.141 118.961 231.187 118.977C231.233 118.993 231.276 119.018 231.312 119.051C231.348 119.083 231.378 119.123 231.399 119.167C231.421 119.212 231.433 119.26 231.437 119.309C231.44 119.358 231.433 119.408 231.417 119.455C231.401 119.502 231.376 119.545 231.343 119.582C231.31 119.619 231.27 119.649 231.226 119.671C231.176 119.694 231.123 119.706 231.068 119.708C230.996 119.71 230.926 119.691 230.864 119.654C230.803 119.616 230.754 119.562 230.722 119.498ZM240.064 118.626C240.029 118.592 240.001 118.551 239.982 118.506C239.963 118.46 239.954 118.412 239.954 118.363C239.954 118.314 239.963 118.265 239.982 118.22C240.001 118.175 240.029 118.134 240.064 118.1C240.098 118.064 240.139 118.035 240.184 118.016C240.229 117.996 240.278 117.986 240.327 117.986C240.377 117.986 240.425 117.996 240.471 118.016C240.516 118.035 240.557 118.064 240.59 118.1C240.626 118.135 240.653 118.176 240.673 118.222C240.692 118.268 240.701 118.317 240.701 118.367C240.701 118.416 240.692 118.465 240.673 118.511C240.653 118.557 240.626 118.599 240.59 118.634C240.555 118.672 240.512 118.702 240.464 118.723C240.416 118.744 240.364 118.754 240.312 118.754C240.263 118.745 240.215 118.727 240.172 118.7C240.13 118.672 240.093 118.637 240.064 118.596V118.626ZM230.339 117.874C230.336 117.825 230.343 117.776 230.359 117.729C230.375 117.682 230.4 117.639 230.433 117.602C230.466 117.565 230.506 117.535 230.55 117.513C230.595 117.492 230.643 117.479 230.692 117.476C230.793 117.472 230.891 117.508 230.965 117.575C231.04 117.642 231.085 117.736 231.091 117.837C231.093 117.886 231.085 117.935 231.068 117.982C231.051 118.028 231.025 118.071 230.991 118.107C230.958 118.143 230.917 118.173 230.873 118.193C230.828 118.214 230.779 118.226 230.73 118.228C230.681 118.23 230.631 118.222 230.585 118.205C230.539 118.188 230.496 118.162 230.46 118.128C230.423 118.095 230.394 118.054 230.373 118.01C230.353 117.965 230.341 117.916 230.339 117.867V117.874ZM241.034 117.454C240.991 117.428 240.954 117.394 240.924 117.354C240.895 117.315 240.874 117.269 240.862 117.221C240.85 117.173 240.848 117.123 240.855 117.074C240.863 117.024 240.88 116.977 240.906 116.935C240.96 116.852 241.044 116.793 241.141 116.77C241.238 116.748 241.339 116.764 241.425 116.815C241.509 116.868 241.57 116.951 241.594 117.048C241.617 117.145 241.603 117.247 241.552 117.333C241.518 117.388 241.47 117.433 241.413 117.464C241.357 117.496 241.294 117.513 241.229 117.514C241.159 117.51 241.091 117.486 241.034 117.446V117.454ZM241.785 116.131C241.739 116.114 241.696 116.088 241.66 116.055C241.624 116.022 241.595 115.981 241.575 115.936C241.554 115.892 241.543 115.843 241.542 115.794C241.541 115.745 241.549 115.696 241.567 115.65C241.584 115.604 241.61 115.561 241.643 115.525C241.677 115.489 241.717 115.46 241.762 115.439C241.807 115.419 241.855 115.408 241.904 115.407C241.954 115.405 242.003 115.414 242.048 115.432C242.095 115.449 242.138 115.476 242.174 115.51C242.21 115.544 242.239 115.585 242.259 115.631C242.28 115.676 242.291 115.725 242.292 115.775C242.293 115.825 242.284 115.874 242.266 115.92C242.24 115.992 242.191 116.054 242.128 116.097C242.065 116.14 241.99 116.163 241.913 116.161C241.858 116.164 241.803 116.151 241.755 116.123L241.785 116.131ZM242.259 114.71C242.161 114.687 242.077 114.627 242.022 114.543C241.968 114.459 241.948 114.358 241.966 114.259C241.976 114.211 241.996 114.165 242.025 114.124C242.053 114.084 242.09 114.049 242.132 114.023C242.174 113.996 242.22 113.978 242.269 113.97C242.318 113.961 242.368 113.963 242.417 113.974C242.465 113.984 242.511 114.003 242.551 114.031C242.592 114.058 242.626 114.094 242.653 114.135C242.68 114.177 242.698 114.223 242.706 114.271C242.715 114.32 242.713 114.369 242.702 114.417C242.684 114.502 242.637 114.577 242.57 114.632C242.503 114.686 242.42 114.717 242.334 114.718H242.259V114.71Z" fill="#F0F0F0"/>
<path d="M242.529 113.192C242.48 113.194 242.43 113.186 242.383 113.168C242.337 113.15 242.294 113.122 242.259 113.087C242.224 113.052 242.196 113.009 242.178 112.963C242.16 112.916 242.152 112.867 242.154 112.817C242.153 112.719 242.191 112.624 242.259 112.554C242.294 112.519 242.335 112.491 242.379 112.471C242.449 112.445 242.525 112.438 242.598 112.453C242.671 112.468 242.738 112.502 242.792 112.554C242.863 112.623 242.903 112.718 242.905 112.817C242.902 112.918 242.862 113.014 242.792 113.087C242.757 113.119 242.716 113.145 242.672 113.162C242.627 113.182 242.579 113.193 242.529 113.192Z" fill="#F0F0F0"/>
<path d="M234.909 105.263L232.241 109.532C232.585 110.067 232.879 110.634 233.12 111.223C234.435 110.584 236.126 108.698 235.811 107.202C235.628 106.507 235.323 105.85 234.909 105.263Z" fill="#CE6F64"/>
<path d="M235.187 94.6964C237.073 100.048 237.99 102.272 236.487 106.067C234.232 111.772 227.243 112.929 223.793 108.247C220.689 104.038 218.119 95.9891 222.343 91.7503C223.27 90.8096 224.422 90.1217 225.69 89.7521C226.958 89.3825 228.299 89.3435 229.587 89.6388C230.874 89.9341 232.065 90.5538 233.045 91.4391C234.025 92.3244 234.762 93.4457 235.187 94.6964Z" fill="#E4897B"/>
<path d="M227.386 88.9995C226.206 90.8183 231.008 101.34 238.05 99.2432C241.575 98.1911 240.388 95.8387 238.313 93.7494C235.812 91.2708 232.563 89.6859 229.069 89.24L227.386 88.9995Z" fill="#263238"/>
<path d="M227.656 89.3C225.582 89.0971 218.69 90.3672 218.99 97.3717C218.99 97.3717 221.854 94.8014 229.835 94.3655L227.656 89.3Z" fill="#263238"/>
<path d="M237.99 99.0175C238.148 99.5386 238.201 100.086 238.147 100.627C238.093 101.169 237.932 101.695 237.674 102.174C236.983 103.452 235.593 103.076 234.916 101.881C234.307 100.799 233.939 98.8297 235.051 97.9503C235.3 97.7651 235.591 97.6446 235.897 97.5995C236.204 97.5544 236.517 97.5862 236.808 97.692C237.1 97.7978 237.36 97.9743 237.566 98.2057C237.773 98.437 237.918 98.716 237.99 99.0175Z" fill="#E4897B"/>
<path d="M257.583 144.494L259.206 146.163C259.334 146.29 259.206 146.508 258.951 146.591L235.72 153.941C235.517 154.001 235.322 153.941 235.269 153.836L234.443 151.912C234.382 151.784 234.525 151.611 234.743 151.544L257.17 144.449C257.236 144.42 257.31 144.409 257.382 144.417C257.455 144.425 257.524 144.452 257.583 144.494Z" fill="#407BFF"/>
<path d="M227.889 99.4688C228.07 99.8972 227.987 100.333 227.717 100.453C227.446 100.574 227.063 100.318 226.882 99.8972C226.702 99.4763 226.785 99.0329 227.063 98.9126C227.341 98.7924 227.709 99.0404 227.889 99.4688Z" fill="#263238"/>
<path d="M223.072 101.505C223.252 101.926 223.177 102.37 222.899 102.49C222.621 102.61 222.245 102.355 222.064 101.934C221.884 101.513 221.967 101.07 222.245 100.949C222.523 100.829 222.906 101.077 223.072 101.505Z" fill="#263238"/>
<path d="M222.395 100.919L221.246 101.062C221.246 101.062 222.11 101.633 222.395 100.919Z" fill="#263238"/>
<path d="M224.665 101.693C224.697 102.824 224.575 103.954 224.304 105.053C224.586 105.116 224.878 105.116 225.16 105.054C225.442 104.992 225.707 104.868 225.935 104.692L224.665 101.693Z" fill="#DE5753"/>
<path d="M228.085 105.744C228.059 105.744 228.033 105.736 228.012 105.721C227.99 105.707 227.974 105.686 227.964 105.661C227.957 105.645 227.953 105.627 227.952 105.609C227.951 105.592 227.954 105.574 227.961 105.557C227.967 105.54 227.976 105.525 227.989 105.512C228.001 105.499 228.016 105.488 228.032 105.481C228.566 105.269 229.043 104.934 229.423 104.503C229.803 104.072 230.076 103.557 230.219 103.001C230.222 102.983 230.228 102.966 230.238 102.951C230.247 102.936 230.26 102.923 230.275 102.913C230.29 102.903 230.306 102.896 230.324 102.893C230.342 102.89 230.36 102.891 230.377 102.896C230.395 102.898 230.412 102.905 230.427 102.914C230.443 102.923 230.456 102.936 230.467 102.951C230.477 102.965 230.485 102.982 230.489 103C230.492 103.017 230.493 103.036 230.49 103.053C230.338 103.654 230.046 104.21 229.637 104.675C229.228 105.141 228.714 105.502 228.137 105.729L228.085 105.744Z" fill="#263238"/>
<path d="M228.573 97.3269C228.525 97.3286 228.478 97.3155 228.438 97.2893C228.149 97.1113 227.821 97.0047 227.483 96.9786C227.144 96.9524 226.804 97.0075 226.491 97.139C226.459 97.1553 226.424 97.1651 226.388 97.1679C226.352 97.1707 226.316 97.1663 226.282 97.1552C226.248 97.144 226.216 97.1262 226.189 97.1028C226.162 97.0794 226.139 97.0509 226.123 97.0188C226.107 96.9867 226.097 96.9517 226.094 96.9159C226.091 96.88 226.096 96.8439 226.107 96.8097C226.118 96.7755 226.136 96.7439 226.159 96.7166C226.183 96.6892 226.211 96.6668 226.243 96.6505C226.638 96.4797 227.068 96.4062 227.497 96.4363C227.926 96.4663 228.341 96.5991 228.708 96.8234C228.77 96.8595 228.815 96.9184 228.833 96.9874C228.851 97.0564 228.842 97.1298 228.806 97.1916C228.784 97.2342 228.751 97.2697 228.709 97.2937C228.668 97.3177 228.621 97.3292 228.573 97.3269Z" fill="#263238"/>
<path d="M219.863 100.235H219.818C219.783 100.229 219.749 100.216 219.719 100.197C219.689 100.177 219.663 100.152 219.643 100.123C219.623 100.094 219.609 100.06 219.601 100.026C219.594 99.9907 219.593 99.9548 219.6 99.9197C219.671 99.4922 219.846 99.0883 220.107 98.7428C220.369 98.3973 220.711 98.1203 221.103 97.9356C221.136 97.9178 221.173 97.9071 221.21 97.9041C221.248 97.9012 221.285 97.9062 221.321 97.9186C221.356 97.9311 221.389 97.9509 221.416 97.9766C221.444 98.0024 221.465 98.0336 221.48 98.0682C221.495 98.1029 221.502 98.1402 221.502 98.1778C221.501 98.2154 221.493 98.2525 221.477 98.2868C221.461 98.321 221.439 98.3515 221.41 98.3765C221.382 98.4014 221.349 98.4202 221.313 98.4316C221.01 98.586 220.747 98.8102 220.547 99.0859C220.347 99.3616 220.216 99.6809 220.163 100.017C220.149 100.084 220.11 100.144 220.055 100.184C219.999 100.224 219.931 100.242 219.863 100.235Z" fill="#263238"/>
<path d="M255.389 116.702C255.93 117.341 256.591 118.062 257.207 118.746C257.824 119.43 258.493 120.107 259.154 120.768C260.469 122.106 261.822 123.406 263.242 124.616C264.663 125.826 266.098 127.006 267.601 128.058C267.97 128.336 268.353 128.569 268.744 128.81C269.135 129.05 269.495 129.313 269.894 129.561C270.292 129.809 270.698 130.05 271.051 130.238L271.532 130.486L272.058 130.696C272.817 130.971 273.599 131.178 274.395 131.312C275.254 131.446 276.12 131.529 276.988 131.56C278.819 131.602 280.651 131.507 282.467 131.275C284.344 131.053 286.208 130.732 288.051 130.313C289.908 129.93 291.809 129.426 293.583 128.907L294.657 131.598C292.83 132.448 290.958 133.201 289.051 133.853C287.129 134.503 285.175 135.053 283.196 135.499C281.163 135.96 279.093 136.245 277.011 136.348C274.772 136.473 272.529 136.219 270.375 135.596L269.525 135.296L268.684 134.92C268.158 134.672 267.737 134.431 267.263 134.168C266.79 133.905 266.339 133.672 265.895 133.417C265.452 133.161 264.986 132.898 264.558 132.613C262.814 131.514 261.14 130.309 259.545 129.005C257.959 127.712 256.441 126.345 254.99 124.917C254.269 124.195 253.562 123.459 252.871 122.707C252.172 121.956 251.526 121.204 250.827 120.34L255.389 116.702Z" fill="#E4897B"/>
<path d="M319.602 245.654C319.529 245.661 319.456 245.661 319.384 245.654C319.303 245.643 319.226 245.61 319.162 245.558C319.098 245.507 319.05 245.438 319.023 245.361C318.76 244.677 319.993 243.016 320.136 242.828C320.151 242.808 320.172 242.793 320.196 242.785C320.22 242.777 320.246 242.776 320.271 242.783C320.297 242.787 320.321 242.8 320.34 242.819C320.359 242.838 320.372 242.862 320.376 242.888C320.504 243.64 320.639 244.978 320.113 245.481C320.044 245.542 319.963 245.589 319.875 245.619C319.787 245.648 319.694 245.66 319.602 245.654ZM320.158 243.234C319.685 243.91 319.136 244.88 319.271 245.241C319.271 245.286 319.324 245.338 319.437 245.361C319.52 245.387 319.609 245.39 319.695 245.372C319.78 245.354 319.86 245.313 319.925 245.256C320.211 245.008 320.293 244.256 320.158 243.234Z" fill="#407BFF"/>
<path d="M318.241 244.256C318.187 244.264 318.131 244.264 318.076 244.256C317.973 244.226 317.883 244.162 317.82 244.075C317.758 243.988 317.726 243.882 317.73 243.775C317.722 243.671 317.738 243.566 317.775 243.468C317.813 243.371 317.872 243.283 317.948 243.211C318.535 242.633 320.203 242.73 320.248 242.73C320.271 242.734 320.293 242.742 320.313 242.755C320.332 242.768 320.349 242.785 320.361 242.806C320.374 242.826 320.38 242.849 320.38 242.873C320.38 242.897 320.374 242.92 320.361 242.941C319.834 243.618 319.082 244.084 318.241 244.256ZM319.925 242.978C319.3 242.926 318.675 243.071 318.136 243.392C318.089 243.437 318.053 243.492 318.03 243.553C318.006 243.614 317.997 243.68 318.001 243.745C318.001 243.918 318.084 243.963 318.144 243.978C318.535 244.083 319.504 243.497 319.97 242.978H319.925Z" fill="#407BFF"/>
<path d="M264.978 265.194C264.516 265.228 264.054 265.118 263.656 264.879C263.551 264.804 263.465 264.707 263.405 264.593C263.345 264.479 263.312 264.353 263.31 264.225C263.301 264.154 263.311 264.082 263.34 264.017C263.369 263.952 263.416 263.896 263.475 263.857C264.099 263.443 266.406 264.488 266.865 264.706C266.89 264.717 266.912 264.736 266.925 264.761C266.939 264.785 266.944 264.813 266.94 264.841C266.936 264.869 266.925 264.896 266.906 264.917C266.887 264.939 266.862 264.954 266.835 264.961C266.226 265.104 265.604 265.182 264.978 265.194ZM263.896 264.022C263.805 264.017 263.713 264.038 263.633 264.082C263.612 264.095 263.596 264.115 263.587 264.138C263.577 264.16 263.575 264.186 263.581 264.21C263.58 264.298 263.601 264.385 263.642 264.464C263.682 264.542 263.741 264.61 263.814 264.661C264.347 265.067 265.625 264.916 266.361 264.781C265.584 264.401 264.753 264.144 263.896 264.022Z" fill="#407BFF"/>
<path d="M266.805 264.962H266.753C266.001 264.646 264.445 263.414 264.498 262.767C264.498 262.632 264.611 262.452 264.964 262.414C266.309 262.241 266.88 264.669 266.91 264.804C266.915 264.824 266.915 264.845 266.91 264.865C266.905 264.885 266.896 264.904 266.883 264.92C266.87 264.936 266.854 264.949 266.835 264.957C266.816 264.966 266.796 264.97 266.775 264.969L266.805 264.962ZM265.114 262.67H265.024C264.881 262.67 264.806 262.722 264.799 262.79C264.746 263.166 265.813 264.143 266.595 264.571C266.414 263.985 265.911 262.67 265.114 262.67Z" fill="#407BFF"/>
<path d="M294.973 127.847L293.35 123.834L290.629 128.975C290.629 128.975 292.298 131.808 294.665 131.598L295.034 130.553C295.341 129.673 295.32 128.712 294.973 127.847Z" fill="#E4897B"/>
<path d="M227.19 98.8823L226.048 99.0251C226.048 99.0251 226.912 99.5963 227.19 98.8823Z" fill="#263238"/>
<path d="M274.546 257.243L261.747 257.92L259.898 254.373L273.787 253.914L274.546 257.243Z" fill="#407BFF"/>
<path opacity="0.7" d="M274.546 257.243L261.747 257.92L259.898 254.373L273.787 253.914L274.546 257.243Z" fill="white"/>
<path d="M317.73 232.734L312.567 241.205L309.846 240.641L314.686 230.698L317.73 232.734Z" fill="#407BFF"/>
<path opacity="0.7" d="M317.73 232.734L312.567 241.205L309.846 240.641L314.686 230.698L317.73 232.734Z" fill="white"/>
<path d="M255.389 147.959L255.99 147.771C256.11 147.734 256.178 147.644 256.148 147.568L255.028 145.051C255.028 144.975 254.87 144.953 254.75 144.991L254.149 145.178C254.029 145.178 253.961 145.306 253.991 145.381L255.088 147.869C255.118 147.967 255.246 147.997 255.389 147.959Z" fill="#407BFF"/>
<path d="M237.471 153.619L238.073 153.431C238.193 153.431 238.268 153.303 238.238 153.228L237.141 150.74C237.103 150.665 236.983 150.642 236.863 150.68L236.261 150.868C236.141 150.868 236.073 150.996 236.104 151.071L237.201 153.558C237.231 153.626 237.351 153.656 237.471 153.619Z" fill="#407BFF"/>
<path d="M246.423 150.792L247.024 150.597C247.136 150.597 247.212 150.469 247.182 150.394L246.084 147.914C246.084 147.839 245.926 147.809 245.806 147.846L245.205 148.034C245.085 148.072 245.017 148.169 245.047 148.237L246.144 150.725C246.175 150.8 246.302 150.83 246.423 150.792Z" fill="#407BFF"/>
<path opacity="0.6" d="M255.389 147.959L255.99 147.771C256.11 147.734 256.178 147.644 256.148 147.568L255.028 145.051C255.028 144.975 254.87 144.953 254.75 144.991L254.149 145.178C254.029 145.178 253.961 145.306 253.991 145.381L255.088 147.869C255.118 147.967 255.246 147.997 255.389 147.959Z" fill="black"/>
<path opacity="0.6" d="M237.471 153.619L238.073 153.431C238.193 153.431 238.268 153.303 238.238 153.228L237.141 150.74C237.103 150.665 236.983 150.642 236.863 150.68L236.261 150.868C236.141 150.868 236.073 150.996 236.104 151.071L237.201 153.558C237.231 153.626 237.351 153.656 237.471 153.619Z" fill="black"/>
<path opacity="0.6" d="M246.423 150.792L247.024 150.597C247.136 150.597 247.212 150.469 247.182 150.394L246.084 147.914C246.084 147.839 245.926 147.809 245.806 147.846L245.205 148.034C245.085 148.072 245.017 148.169 245.047 148.237L246.144 150.725C246.175 150.8 246.302 150.83 246.423 150.792Z" fill="black"/>
<path d="M251.127 111.583C253.555 111.583 258.643 118.348 258.643 118.348L251.976 127.231C251.976 127.231 247.723 121.684 247.745 118.52C247.775 115.236 248.346 111.614 251.127 111.583Z" fill="#407BFF"/>
<path opacity="0.3" d="M251.127 111.583C253.555 111.583 258.643 118.348 258.643 118.348L251.976 127.231C251.976 127.231 247.723 121.684 247.745 118.52C247.775 115.236 248.346 111.614 251.127 111.583Z" fill="black"/>
<path d="M291.118 123.624L291.057 127.667C291.058 127.853 291.116 128.034 291.223 128.186L292.688 130.238L293.35 123.834L292.598 123.045C292.478 122.928 292.327 122.847 292.162 122.814C291.998 122.78 291.827 122.795 291.671 122.856C291.514 122.917 291.379 123.022 291.281 123.158C291.183 123.295 291.126 123.456 291.118 123.624Z" fill="#E4897B"/>
<path d="M161.948 66.0771V247.954H273.855V66.0771H161.948ZM264.16 240.664H165.067V73.3597H264.145L264.16 240.664Z" fill="#407BFF"/>
<path opacity="0.6" d="M161.948 66.0771V247.954H273.855V66.0771H161.948ZM264.16 240.664H165.067V73.3597H264.145L264.16 240.664Z" fill="white"/>
<path d="M165.067 73.3594H164.022V240.663H165.067V73.3594Z" fill="white"/>
<path d="M165.067 73.3594H164.022V240.663H165.067V73.3594Z" fill="#F0F0F0"/>
<path d="M285.586 23.501H83.6053C81.8636 23.5049 80.194 24.1965 78.9596 25.4252C77.7252 26.6539 77.026 28.3204 77.0142 30.0621V264.36C77.0201 266.105 77.7167 267.778 78.9517 269.011C80.1867 270.245 81.8597 270.94 83.6053 270.944H285.586C287.331 270.94 289.003 270.245 290.237 269.011C291.471 267.777 292.166 266.105 292.17 264.36V30.0621C292.16 28.3211 291.462 26.6546 290.229 25.4257C288.996 24.1967 287.327 23.5049 285.586 23.501ZM165.067 73.3593H264.144V240.663H165.067V73.3593Z" fill="#407BFF"/>
<path opacity="0.5" d="M285.586 23.501H83.6053C81.8636 23.5049 80.194 24.1965 78.9596 25.4252C77.7252 26.6539 77.026 28.3204 77.0142 30.0621V264.36C77.0201 266.105 77.7167 267.778 78.9517 269.011C80.1867 270.245 81.8597 270.94 83.6053 270.944H285.586C287.331 270.94 289.003 270.245 290.237 269.011C291.471 267.777 292.166 266.105 292.17 264.36V30.0621C292.16 28.3211 291.462 26.6546 290.229 25.4257C288.996 24.1967 287.327 23.5049 285.586 23.501ZM165.067 73.3593H264.144V240.663H165.067V73.3593Z" fill="black"/>
<path d="M283.835 23.501H81.8546C80.1129 23.5049 78.4432 24.1965 77.2089 25.4252C75.9745 26.6539 75.2753 28.3204 75.2634 30.0621V264.36C75.2694 266.105 75.966 267.778 77.201 269.011C78.436 270.245 80.109 270.94 81.8546 270.944H283.835C285.58 270.938 287.251 270.242 288.484 269.009C289.718 267.775 290.413 266.104 290.419 264.36V30.0621C290.407 28.3217 289.709 26.6564 288.476 25.4278C287.244 24.1993 285.576 23.5069 283.835 23.501ZM165.09 73.3593H264.145V240.663H165.067L165.09 73.3593Z" fill="#407BFF"/>
<path opacity="0.2" d="M283.835 23.501H81.8546C80.1129 23.5049 78.4432 24.1965 77.2089 25.4252C75.9745 26.6539 75.2753 28.3204 75.2634 30.0621V264.36C75.2694 266.105 75.966 267.778 77.201 269.011C78.436 270.245 80.109 270.94 81.8546 270.944H283.835C285.58 270.938 287.251 270.242 288.484 269.009C289.718 267.775 290.413 266.104 290.419 264.36V30.0621C290.407 28.3217 289.709 26.6564 288.476 25.4278C287.244 24.1993 285.576 23.5069 283.835 23.501ZM165.09 73.3593H264.145V240.663H165.067L165.09 73.3593Z" fill="black"/>
<path d="M75.2634 40.5312V264.36C75.2694 266.105 75.966 267.778 77.201 269.011C78.436 270.245 80.109 270.94 81.8546 270.944H283.835C285.58 270.938 287.251 270.242 288.484 269.009C289.718 267.775 290.413 266.104 290.419 264.36V40.5312H75.2634ZM165.067 73.3593H264.145V240.663H165.067V73.3593Z" fill="#407BFF"/>
<path opacity="0.6" d="M75.2634 40.5312V264.36C75.2694 266.105 75.966 267.778 77.201 269.011C78.436 270.245 80.109 270.94 81.8546 270.944H283.835C285.58 270.938 287.251 270.242 288.484 269.009C289.718 267.775 290.413 266.104 290.419 264.36V40.5312H75.2634ZM165.067 73.3593H264.145V240.663H165.067V73.3593Z" fill="white"/>
<path d="M76.5183 49.2871V262.188H289.209V49.2871H76.5183ZM264.182 240.664H165.067V73.3595H264.144L264.182 240.664Z" fill="white"/>
<path opacity="0.76" d="M275.967 35.5636C277.901 35.5636 279.469 33.9956 279.469 32.0613C279.469 30.1271 277.901 28.5591 275.967 28.5591C274.032 28.5591 272.464 30.1271 272.464 32.0613C272.464 33.9956 274.032 35.5636 275.967 35.5636Z" fill="#407BFF"/>
<path opacity="0.76" d="M263.558 35.5636C265.493 35.5636 267.061 33.9956 267.061 32.0613C267.061 30.1271 265.493 28.5591 263.558 28.5591C261.624 28.5591 260.056 30.1271 260.056 32.0613C260.056 33.9956 261.624 35.5636 263.558 35.5636Z" fill="#407BFF"/>
<path opacity="0.76" d="M247.648 32.0613C247.648 32.754 247.853 33.4311 248.238 34.0071C248.623 34.583 249.17 35.0319 249.81 35.297C250.45 35.5621 251.154 35.6314 251.833 35.4963C252.513 35.3612 253.137 35.0276 253.626 34.5378C254.116 34.048 254.45 33.424 254.585 32.7446C254.72 32.0652 254.651 31.361 254.386 30.7211C254.121 30.0811 253.672 29.5342 253.096 29.1493C252.52 28.7645 251.843 28.5591 251.15 28.5591C250.221 28.5591 249.33 28.9281 248.673 29.5849C248.017 30.2417 247.648 31.1325 247.648 32.0613Z" fill="#407BFF"/>
<path d="M75.2708 40.9673L290.419 40.9673V40.088L75.2708 40.088V40.9673Z" fill="#407BFF"/>
<path d="M294.801 66.077H294.049V60.8161H294.801V66.077ZM294.801 56.2391H294.049V39.0811H294.801V56.2391Z" fill="#407BFF"/>
<path opacity="0.4" d="M294.801 66.077H294.049V60.8161H294.801V66.077ZM294.801 56.2391H294.049V39.0811H294.801V56.2391Z" fill="black"/>
<path d="M111.864 120.084H133.05V109.555H111.864V120.084Z" fill="#407BFF"/>
<path opacity="0.6" d="M111.864 120.084H133.05V109.555H111.864V120.084Z" fill="white"/>
<path d="M96.7278 189.595H135.929V179.066H96.7278V189.595Z" fill="#407BFF"/>
<path opacity="0.6" d="M96.7278 189.595H135.929V179.066H96.7278V189.595Z" fill="white"/>
<path d="M61.4872 67.9482L142.558 67.9482V57.4189L61.4872 57.4189V67.9482Z" fill="#407BFF"/>
<path opacity="0.6" d="M61.4872 67.9482L142.558 67.9482V57.4189L61.4872 57.4189V67.9482Z" fill="white"/>
<path d="M61.4872 85.3237L126.993 85.3237V74.7944L61.4872 74.7944V85.3237Z" fill="#407BFF"/>
<path opacity="0.6" d="M61.4872 85.3237L126.993 85.3237V74.7944L61.4872 74.7944V85.3237Z" fill="white"/>
<path d="M61.4873 102.7L135.929 102.7V92.1709L61.4873 92.1709V102.7Z" fill="#407BFF"/>
<path opacity="0.6" d="M61.4873 102.7L135.929 102.7V92.1709L61.4873 92.1709V102.7Z" fill="white"/>
<path d="M61.4871 120.084H103.063V109.555H61.4871V120.084Z" fill="#407BFF"/>
<path opacity="0.6" d="M61.4871 120.084H103.063V109.555H61.4871V120.084Z" fill="white"/>
<path d="M61.4873 137.46H135.929V126.931L61.4873 126.931V137.46Z" fill="#407BFF"/>
<path opacity="0.6" d="M61.4873 137.46H135.929V126.931L61.4873 126.931V137.46Z" fill="white"/>
<path d="M61.4872 154.835H142.558V144.306H61.4872V154.835Z" fill="#407BFF"/>
<path opacity="0.6" d="M61.4872 154.835H142.558V144.306H61.4872V154.835Z" fill="white"/>
<path d="M61.4869 172.219H118.635V161.689H61.4869V172.219Z" fill="#407BFF"/>
<path opacity="0.6" d="M61.4869 172.219H118.635V161.689H61.4869V172.219Z" fill="white"/>
<path d="M61.487 189.595H87.9343V179.066H61.487V189.595Z" fill="#407BFF"/>
<path opacity="0.6" d="M61.487 189.595H87.9343V179.066H61.487V189.595Z" fill="white"/>
<path d="M94.6583 225.389C96.299 215.605 89.6979 206.344 79.9143 204.703C70.1306 203.063 60.8693 209.664 59.2286 219.447C57.5879 229.231 64.189 238.492 73.9727 240.133C83.7563 241.774 93.0176 235.173 94.6583 225.389Z" fill="#407BFF"/>
<path opacity="0.6" d="M94.6583 225.389C96.299 215.605 89.6979 206.344 79.9143 204.703C70.1306 203.063 60.8693 209.664 59.2286 219.447C57.5879 229.231 64.189 238.492 73.9727 240.133C83.7563 241.774 93.0176 235.173 94.6583 225.389Z" fill="white"/>
<path d="M78.7732 219.297C74.5043 217.989 71.8589 213.345 71.8589 213.345C71.8589 213.345 70.5136 213.27 70.4459 214.487C70.4199 215.308 70.564 216.126 70.8692 216.89C71.1744 217.653 71.6342 218.344 72.2196 218.921L70.1679 218.808C69.436 218.769 68.7026 218.848 67.9959 219.041L67.3119 219.222C66.7482 219.379 66.2675 219.749 65.9716 220.254C65.6757 220.759 65.5877 221.359 65.7262 221.927L66.7483 225.918C67.0357 227.123 67.7634 228.177 68.7884 228.872C69.8134 229.568 71.0615 229.854 72.2873 229.676C74.3766 229.368 77.6308 228.924 78.1945 228.789L79.6976 228.669L80.2011 219.718L78.7732 219.297Z" fill="white"/>
<path d="M85.4615 218.057H79.7121C79.2638 218.057 78.9004 218.42 78.9004 218.868V229.029C78.9004 229.478 79.2638 229.841 79.7121 229.841H85.4615C85.9098 229.841 86.2732 229.478 86.2732 229.029V218.868C86.2732 218.42 85.9098 218.057 85.4615 218.057Z" fill="#407BFF"/>
<path d="M135.188 235.12C142.202 228.105 142.202 216.732 135.188 209.718C128.173 202.703 116.8 202.703 109.785 209.718C102.771 216.732 102.771 228.105 109.785 235.12C116.8 242.135 128.173 242.135 135.188 235.12Z" fill="#407BFF"/>
<path opacity="0.6" d="M135.188 235.12C142.202 228.105 142.202 216.732 135.188 209.718C128.173 202.703 116.8 202.703 109.785 209.718C102.771 216.732 102.771 228.105 109.785 235.12C116.8 242.135 128.173 242.135 135.188 235.12Z" fill="white"/>
<path d="M131.435 215.997C130.847 215.409 130.149 214.943 129.381 214.625C128.613 214.306 127.79 214.143 126.959 214.143C126.128 214.143 125.305 214.306 124.537 214.625C123.769 214.943 123.071 215.409 122.484 215.997C121.297 214.81 119.687 214.143 118.008 214.143C116.329 214.143 114.72 214.81 113.533 215.997C112.346 217.184 111.679 218.794 111.679 220.472C111.679 222.151 112.346 223.761 113.533 224.948L122.484 233.899L131.435 224.948C132.618 223.759 133.283 222.15 133.283 220.472C133.283 218.795 132.618 217.186 131.435 215.997Z" fill="#407BFF"/>
<path d="M156.747 66.0771V247.954H271.42V66.0771H156.747ZM264.145 240.664H165.067V73.3597H264.145V240.664Z" fill="#407BFF"/>
<path opacity="0.8" d="M156.747 66.0771V247.954H271.42V66.0771H156.747ZM264.145 240.664H165.067V73.3597H264.145V240.664Z" fill="white"/>
</svg>
